<?xml version="1.0" encoding="UTF-8" standalone="no"?>
<!-- Created with Inkscape (http://www.inkscape.org/) -->

<svg
   version="1.1"
   id="svg1"
   width="189"
   height="68"
   viewBox="0 0 189 68"
   sodipodi:docname="drone2.svg"
   inkscape:version="1.4 (86a8ad7, 2024-10-11)"
   xmlns:inkscape="http://www.inkscape.org/namespaces/inkscape"
   xmlns:sodipodi="http://sodipodi.sourceforge.net/DTD/sodipodi-0.dtd"
   xmlns="http://www.w3.org/2000/svg"
   xmlns:svg="http://www.w3.org/2000/svg">
  <defs
     id="defs1" />
  <sodipodi:namedview
     id="namedview1"
     pagecolor="#ffffff"
     bordercolor="#000000"
     borderopacity="0.25"
     inkscape:showpageshadow="2"
     inkscape:pageopacity="0.0"
     inkscape:pagecheckerboard="0"
     inkscape:deskcolor="#d1d1d1"
     inkscape:zoom="4.6984127"
     inkscape:cx="115.25169"
     inkscape:cy="59.0625"
     inkscape:window-width="1920"
     inkscape:window-height="1009"
     inkscape:window-x="-8"
     inkscape:window-y="-8"
     inkscape:window-maximized="1"
     inkscape:current-layer="g1" />
  <g
     inkscape:groupmode="layer"
     inkscape:label="Image"
     id="g1">
    <g
       id="g2"
       transform="matrix(1.0643463,0,0,2.5955286,-5.0165383,-54.305486)"
       style="opacity:1">
      <path
         style="fill:#d0d0d0;fill-opacity:1"
         d="m 77.8125,36.316886 c 0.721875,-0.288871 1.584375,-0.253344 1.916667,0.07895 0.332291,0.332292 -0.258334,0.568641 -1.3125,0.52522 -1.164943,-0.04798 -1.4019,-0.284941 -0.604167,-0.604167 z M 55.5,32 c 0.339919,-0.55 1.378976,-0.993109 2.309017,-0.984687 C 59.266292,31.028509 59.292687,31.164601 58,32 c -1.958372,1.265597 -3.282182,1.265597 -2.5,0 z m 75.5,0 c -1.29269,-0.835399 -1.26629,-0.971491 0.19098,-0.984687 0.93004,-0.0084 1.9691,0.434687 2.30902,0.984687 0.78218,1.265597 -0.54163,1.265597 -2.5,0 z M 59.75,29.337719 c 0.6875,-0.277412 1.8125,-0.277412 2.5,0 0.6875,0.277413 0.125,0.504386 -1.25,0.504386 -1.375,0 -1.9375,-0.226973 -1.25,-0.504386 z m 28,-0.07812 c 3.4375,-0.195271 9.0625,-0.195271 12.5,0 3.4375,0.195271 0.625,0.355038 -6.25,0.355038 -6.875,0 -9.6875,-0.159767 -6.25,-0.355038 z m 39,0.07812 c 0.6875,-0.277412 1.8125,-0.277412 2.5,0 0.6875,0.277413 0.125,0.504386 -1.25,0.504386 -1.375,0 -1.9375,-0.226973 -1.25,-0.504386 z M 35.8125,27.316886 c 0.721875,-0.288871 1.584375,-0.253344 1.916667,0.07895 0.332291,0.332292 -0.258334,0.568641 -1.3125,0.52522 -1.164943,-0.04798 -1.4019,-0.284941 -0.604167,-0.604167 z m 116,0 c 0.72187,-0.288871 1.58437,-0.253344 1.91667,0.07895 0.33229,0.332292 -0.25834,0.568641 -1.3125,0.52522 -1.16495,-0.04798 -1.4019,-0.284941 -0.60417,-0.604167 z M 90.776433,24.266503 c 2.352038,-0.211245 5.952038,-0.208273 8,0.0066 C 100.82439,24.487985 98.9,24.660822 94.5,24.65719 90.1,24.65359 88.424395,24.477749 90.776433,24.266503 Z"
         id="path9" />
      <path
         style="fill:#b9b9b9;fill-opacity:1"
         d="m 76.75,34.337719 c 0.6875,-0.277412 1.8125,-0.277412 2.5,0 0.6875,0.277413 0.125,0.504386 -1.25,0.504386 -1.375,0 -1.9375,-0.226973 -1.25,-0.504386 z m 33,0 c 0.6875,-0.277412 1.8125,-0.277412 2.5,0 0.6875,0.277413 0.125,0.504386 -1.25,0.504386 -1.375,0 -1.9375,-0.226973 -1.25,-0.504386 z m -50,-3 c 0.6875,-0.277412 1.8125,-0.277412 2.5,0 0.6875,0.277413 0.125,0.504386 -1.25,0.504386 -1.375,0 -1.9375,-0.226973 -1.25,-0.504386 z m 67,0 c 0.6875,-0.277412 1.8125,-0.277412 2.5,0 0.6875,0.277413 0.125,0.504386 -1.25,0.504386 -1.375,0 -1.9375,-0.226973 -1.25,-0.504386 z m -71,-2 c 0.6875,-0.277412 1.8125,-0.277412 2.5,0 0.6875,0.277413 0.125,0.504386 -1.25,0.504386 -1.375,0 -1.9375,-0.226973 -1.25,-0.504386 z m 24.0625,-0.02083 c 0.721875,-0.288871 1.584375,-0.253344 1.916667,0.07895 0.332291,0.332292 -0.258334,0.568641 -1.3125,0.52522 -1.164943,-0.04798 -1.4019,-0.284941 -0.604167,-0.604167 z m 27,0 c 0.72187,-0.288871 1.58437,-0.253344 1.91667,0.07895 0.33229,0.332292 -0.25834,0.568641 -1.3125,0.52522 -1.16495,-0.04798 -1.4019,-0.284941 -0.60417,-0.604167 z m 23.9375,0.02083 c 0.6875,-0.277412 1.8125,-0.277412 2.5,0 0.6875,0.277413 0.125,0.504386 -1.25,0.504386 -1.375,0 -1.9375,-0.226973 -1.25,-0.504386 z M 87.5,27 c 0.339919,-0.55 3.489919,-1 7,-1 3.510081,0 6.66008,0.45 7,1 0.39136,0.63324 -2.175955,1 -7,1 -4.824045,0 -7.391364,-0.36676 -7,-1 z"
         id="path8" />
      <path
         style="fill:#a3a3a3;fill-opacity:1"
         d="m 63.75,31.337719 c 0.6875,-0.277412 1.8125,-0.277412 2.5,0 0.6875,0.277413 0.125,0.504386 -1.25,0.504386 -1.375,0 -1.9375,-0.226973 -1.25,-0.504386 z m 59,0 c 0.6875,-0.277412 1.8125,-0.277412 2.5,0 0.6875,0.277413 0.125,0.504386 -1.25,0.504386 -1.375,0 -1.9375,-0.226973 -1.25,-0.504386 z"
         id="path7" />
      <path
         style="fill:#8c8c8c;fill-opacity:1"
         d="m 93.8125,34.316886 c 0.721875,-0.288871 1.584375,-0.253344 1.916667,0.07895 0.332291,0.332292 -0.258334,0.568641 -1.3125,0.52522 -1.164943,-0.04798 -1.4019,-0.284941 -0.604167,-0.604167 z m 0,-3 c 0.721875,-0.288871 1.584375,-0.253344 1.916667,0.07895 0.332291,0.332292 -0.258334,0.568641 -1.3125,0.52522 -1.164943,-0.04798 -1.4019,-0.284941 -0.604167,-0.604167 z m -43,-2 c 0.721875,-0.288871 1.584375,-0.253344 1.916667,0.07895 0.332291,0.332292 -0.258334,0.568641 -1.3125,0.52522 -1.164943,-0.04798 -1.4019,-0.284941 -0.604167,-0.604167 z m 86,0 c 0.72187,-0.288871 1.58437,-0.253344 1.91667,0.07895 0.33229,0.332292 -0.25834,0.568641 -1.3125,0.52522 -1.16495,-0.04798 -1.4019,-0.284941 -0.60417,-0.604167 z"
         id="path6" />
      <path
         style="fill:#767676;fill-opacity:1"
         d="m 35.8125,33.316886 c 0.721875,-0.288871 1.584375,-0.253344 1.916667,0.07895 0.332291,0.332292 -0.258334,0.568641 -1.3125,0.52522 -1.164943,-0.04798 -1.4019,-0.284941 -0.604167,-0.604167 z m 116,0 c 0.72187,-0.288871 1.58437,-0.253344 1.91667,0.07895 0.33229,0.332292 -0.25834,0.568641 -1.3125,0.52522 -1.16495,-0.04798 -1.4019,-0.284941 -0.60417,-0.604167 z m -104,-4 c 0.721875,-0.288871 1.584375,-0.253344 1.916667,0.07895 0.332291,0.332292 -0.258334,0.568641 -1.3125,0.52522 -1.164943,-0.04798 -1.4019,-0.284941 -0.604167,-0.604167 z m 92,0 c 0.72187,-0.288871 1.58437,-0.253344 1.91667,0.07895 0.33229,0.332292 -0.25834,0.568641 -1.3125,0.52522 -1.16495,-0.04798 -1.4019,-0.284941 -0.60417,-0.604167 z"
         id="path5" />
      <path
         style="fill:#606060;fill-opacity:1"
         d="m 31.8125,30.316886 c 0.721875,-0.288871 1.584375,-0.253344 1.916667,0.07895 0.332291,0.332292 -0.258334,0.568641 -1.3125,0.52522 -1.164943,-0.04798 -1.4019,-0.284941 -0.604167,-0.604167 z m 6.9375,0.02083 c 0.6875,-0.277412 1.8125,-0.277412 2.5,0 0.6875,0.277413 0.125,0.504386 -1.25,0.504386 -1.375,0 -1.9375,-0.226973 -1.25,-0.504386 z m 110.0625,-0.02083 c 0.72187,-0.288871 1.58437,-0.253344 1.91667,0.07895 0.33229,0.332292 -0.25834,0.568641 -1.3125,0.52522 -1.16495,-0.04798 -1.4019,-0.284941 -0.60417,-0.604167 z m 7,0 c 0.72187,-0.288871 1.58437,-0.253344 1.91667,0.07895 0.33229,0.332292 -0.25834,0.568641 -1.3125,0.52522 -1.16495,-0.04798 -1.4019,-0.284941 -0.60417,-0.604167 z m -111,-1 c 0.721875,-0.288871 1.584375,-0.253344 1.916667,0.07895 0.332291,0.332292 -0.258334,0.568641 -1.3125,0.52522 -1.164943,-0.04798 -1.4019,-0.284941 -0.604167,-0.604167 z m 98,0 c 0.72187,-0.288871 1.58437,-0.253344 1.91667,0.07895 0.33229,0.332292 -0.25834,0.568641 -1.3125,0.52522 -1.16495,-0.04798 -1.4019,-0.284941 -0.60417,-0.604167 z"
         id="path4" />
      <path
         style="fill:#494949;fill-opacity:1"
         d="m 57.75,46.337719 c 0.6875,-0.277412 1.8125,-0.277412 2.5,0 0.6875,0.277413 0.125,0.504386 -1.25,0.504386 -1.375,0 -1.9375,-0.226973 -1.25,-0.504386 z m 71,0 c 0.6875,-0.277412 1.8125,-0.277412 2.5,0 0.6875,0.277413 0.125,0.504386 -1.25,0.504386 -1.375,0 -1.9375,-0.226973 -1.25,-0.504386 z M 92,41 c 0,-0.55 1.125,-1 2.5,-1 1.375,0 2.5,0.45 2.5,1 0,0.55 -1.125,1 -2.5,1 C 93.125,42 92,41.55 92,41 Z M 63.5,34 c 0.339919,-0.55 1.068034,-1 1.618034,-1 0.55,0 0.721885,0.45 0.381966,1 -0.339919,0.55 -1.068034,1 -1.618034,1 -0.55,0 -0.721885,-0.45 -0.381966,-1 z m 60,0 c -0.33992,-0.55 -0.16803,-1 0.38197,-1 0.55,0 1.27811,0.45 1.61803,1 0.33992,0.55 0.16803,1 -0.38197,1 -0.55,0 -1.27811,-0.45 -1.61803,-1 z M 45,33 c 0,-0.55 0.476558,-1 1.059017,-1 0.582459,0 0.780902,0.45 0.440983,1 -0.339919,0.55 -0.816476,1 -1.059017,1 C 45.198442,34 45,33.55 45,33 Z m 97.5,0 c -0.33992,-0.55 -0.14148,-1 0.44098,-1 0.58246,0 1.05902,0.45 1.05902,1 0,0.55 -0.19844,1 -0.44098,1 -0.24254,0 -0.7191,-0.45 -1.05902,-1 z M 34.75,30.337719 c 0.6875,-0.277412 1.8125,-0.277412 2.5,0 0.6875,0.277413 0.125,0.504386 -1.25,0.504386 -1.375,0 -1.9375,-0.226973 -1.25,-0.504386 z M 42.5,30 c 0.339919,-0.55 0.816476,-1 1.059017,-1 C 43.801558,29 44,29.45 44,30 44,30.55 43.523442,31 42.940983,31 42.358524,31 42.160081,30.55 42.5,30 Z m 103.00708,0.01145 c -0.35034,-0.56686 0.0511,-0.734507 0.94098,-0.393011 C 148.18048,30.283234 148.49745,31 147.05902,31 c -0.51754,0 -1.21592,-0.444846 -1.55194,-0.988546 z m 6.24292,0.326265 c 0.6875,-0.277412 1.8125,-0.277412 2.5,0 0.6875,0.277413 0.125,0.504386 -1.25,0.504386 -1.375,0 -1.9375,-0.226973 -1.25,-0.504386 z"
         id="path3" />
      <path
         style="fill:#333333;fill-opacity:1"
         d="M 54.380032,45.805888 C 54.106096,45.36265 54.553199,45 55.373595,45 c 0.820396,0 1.792674,-0.948506 2.160617,-2.107791 0.417102,-1.314174 2.983958,-3.179477 6.817387,-4.954111 C 69.902658,35.36831 70.208538,35.07605 67.5,34.929888 65.75849,34.83591 65.234119,34.576152 66.25,34.310674 67.2125,34.059147 68,33.211348 68,32.426676 68,31.278034 65.612689,30.966755 55.75,30.829408 L 43.5,30.658815 58.5,29.952601 C 68.528986,29.480427 75.322705,28.650878 79,27.44944 c 7.683106,-2.510206 22.55356,-2.535162 30.5,-0.05119 4.34498,1.358195 10.22452,2.005584 21.31528,2.346998 14.92993,0.459598 15.32916,0.418411 15.86664,-1.636896 C 146.98516,26.94876 147.82922,26 148.55761,26 c 0.7284,0 1.63432,-0.501537 2.01317,-1.114527 0.49396,-0.799234 -1.25743,-0.944831 -6.19098,-0.514671 -3.78389,0.329921 -9.5798,0.249703 -12.8798,-0.178261 l -6,-0.778117 8.16482,-0.768505 c 4.49065,-0.422678 9.73076,-0.474732 11.6447,-0.115675 2.02179,0.379289 4.38881,0.166391 5.64911,-0.508101 1.65356,-0.884959 2.50843,-0.879403 3.59621,0.02337 0.92309,0.766095 2.99053,0.949833 5.85472,0.520321 2.43525,-0.365188 7.95184,-0.3234 12.25908,0.09286 L 180.5,23.415539 174,24.236031 c -3.575,0.45127 -9.3125,0.546957 -12.75,0.212636 C 157.06745,24.041886 155,24.197933 155,24.920406 155,25.514183 155.71713,26 156.59362,26 c 0.87649,0 1.82897,0.9 2.11663,2 0.28766,1.1 1.11897,2 1.84736,2 2.1663,0 2.71445,1.959081 0.75577,2.701109 -0.99736,0.377841 -2.40802,1.274662 -3.13481,1.992937 C 156.21317,36.636435 149.91579,36.262188 146.5,34 l -3,-1.986822 7.95,-0.0066 c 5.16163,-0.0043 7.60819,-0.348403 6.97544,-0.981146 C 156.88451,29.484512 121,30.97891 121,32.584014 c 0,0.698136 0.7875,1.475133 1.75,1.72666 1.01588,0.265478 0.49151,0.525236 -1.25,0.619214 -2.70854,0.146162 -2.40266,0.438422 3.1484,3.00821 3.83343,1.774634 6.40029,3.639937 6.81739,4.954111 C 131.83373,44.051494 132.80601,45 133.6264,45 c 0.8204,0 1.2675,0.36265 0.99357,0.805888 -0.60258,0.974996 -8.25594,0.891478 -9.24834,-0.100923 C 124.9839,45.317234 125.45417,45 126.41667,45 c 0.9625,0 1.5653,-0.5625 1.33957,-1.25 -0.74066,-2.255763 -6.7777,-5.611369 -12.33137,-6.854227 -5.14128,-1.150567 -5.58669,-1.09238 -7.83963,1.024149 -1.48883,1.398679 -4.0267,2.394063 -6.73695,2.642314 -4.056446,0.371559 -4.123941,0.339704 -1.005641,-0.474622 5.137831,-1.341715 6.108621,-2.860841 3.296571,-5.158597 -3.336705,-2.726447 -13.941735,-2.726447 -17.278436,0 -2.812056,2.297756 -1.841268,3.816882 3.296567,5.158597 3.042007,0.794402 2.938832,0.835384 -1.147131,0.455645 -2.966904,-0.275736 -5.056397,-1.11701 -6.160293,-2.480264 C 79.86042,35.606058 78.021782,35.507395 71.319032,37.497898 64.007605,39.669159 57.85941,45 62.666667,45 c 0.916666,0 1.349432,0.317234 0.961702,0.704965 -0.992401,0.992401 -8.645756,1.075919 -9.248337,0.100923 z M 84.5,33.528836 c 5.129672,-1.848029 14.870328,-1.848029 20,0 2.2,0.792578 5.9125,1.447827 8.25,1.456108 3.81542,0.01352 4.25,-0.228654 4.25,-2.368313 0,-3.321768 -1.67718,-3.589322 -22.5,-3.589322 -20.822816,0 -22.5,0.267554 -22.5,3.589322 0,2.139659 0.434582,2.381829 4.25,2.368313 2.3375,-0.0083 6.05,-0.66353 8.25,-1.456108 z M 155,34 c 0,-0.55 -0.9,-1 -2,-1 -1.1,0 -2,0.45 -2,1 0,0.55 0.9,1 2,1 1.1,0 2,-0.45 2,-1 z m 0,-6 c 0,-0.55 -0.87344,-1 -1.94098,-1 -1.06754,0 -2.2191,0.45 -2.55902,1 -0.35052,0.567158 0.48962,1 1.94098,1 C 153.84844,29 155,28.55 155,28 Z m -52,-1 c -0.825,-0.533156 -4.65,-0.969374 -8.5,-0.969374 -3.85,0 -7.675,0.436218 -8.5,0.969374 -1.023146,0.661208 1.679028,0.969374 8.5,0.969374 6.82097,0 9.52315,-0.308166 8.5,-0.969374 z M 91.192368,38.295568 c -3.726681,-0.726358 -1.906732,-2.768603 2.771216,-3.109704 3.750728,-0.273492 7.245796,1.003201 5.969749,2.180654 -0.840684,0.775727 -6.462124,1.373212 -8.740965,0.92905 z M 31.461878,34.938317 C 31.100992,34.354391 29.697356,33.455234 28.342686,32.940189 25.822061,31.981849 25.96788,30 28.559017,30 29.351558,30 30,29.282871 30,28.40638 c 0,-0.87649 0.9,-1.828975 2,-2.116631 1.1,-0.287656 2,-0.956345 2,-1.485974 0,-0.579406 -2.489435,-0.720848 -6.25,-0.355108 -3.4375,0.334321 -9.175,0.238634 -12.75,-0.212636 l -6.5,-0.820492 7.831355,-0.756842 c 4.307246,-0.416264 9.823834,-0.458052 12.259084,-0.09286 2.864192,0.429512 4.931634,0.245774 5.854722,-0.520321 1.087775,-0.902772 1.942653,-0.908328 3.596214,-0.02337 1.260299,0.674492 3.627319,0.88739 5.649104,0.508101 1.913936,-0.359057 7.154053,-0.308935 11.644703,0.111381 L 63.5,23.405837 57,24.23118 c -3.575,0.453938 -9.364645,0.546223 -12.865878,0.205078 -4.484424,-0.436944 -6.166411,-0.29752 -5.690983,0.471739 C 38.814331,25.508598 39.713992,26 40.442386,26 c 0.728393,0 1.559707,0.9 1.847363,2 0.478976,1.831606 0.03068,2 -5.324352,2 -3.216049,0 -6.125478,0.45 -6.465397,1 -0.391747,0.63386 2.24116,1.002413 7.190983,1.006589 L 45.5,32.013178 42.5,34 c -3.204521,2.12227 -9.95191,2.695845 -11.038122,0.938317 z M 38,34 c 0,-0.55 -0.9,-1 -2,-1 -1.1,0 -2,0.45 -2,1 0,0.55 0.9,1 2,1 1.1,0 2,-0.45 2,-1 z m 0.5,-6 C 38.160081,27.45 37.008524,27 35.940983,27 34.873442,27 34,27.45 34,28 c 0,0.55 1.151558,1 2.559017,1 1.451367,0 2.291506,-0.432842 1.940983,-1 z m 11.75,5.264961 c 2.6125,-0.205999 6.8875,-0.205999 9.5,0 2.6125,0.205998 0.475,0.374543 -4.75,0.374543 -5.225,0 -7.3625,-0.168545 -4.75,-0.374543 z m 79,0 c 2.6125,-0.205999 6.8875,-0.205999 9.5,0 2.6125,0.205998 0.475,0.374543 -4.75,0.374543 -5.225,0 -7.3625,-0.168545 -4.75,-0.374543 z"
         id="path2" />
    </g>
  </g>
</svg>
