<?xml version="1.0" encoding="utf-8" ?>
<svg baseProfile="tiny" height="415px" version="1.2" width="566px" xmlns="http://www.w3.org/2000/svg" xmlns:ev="http://www.w3.org/2001/xml-events" xmlns:xlink="http://www.w3.org/1999/xlink"><defs /><path d="M 565,120 L 562,117 L 562,112 L 558,110 L 550,99 L 551,97 L 543,93 L 543,90 L 542,92 L 540,91 L 542,88 L 541,84 L 539,83 L 542,88 L 538,90 L 537,89 L 539,88 L 526,81 L 528,80 L 525,81 L 524,79 L 519,78 L 517,76 L 507,76 L 502,81 L 501,88 L 496,93 L 499,93 L 498,96 L 496,96 L 496,98 L 489,105 L 488,104 L 488,106 L 485,106 L 485,109 L 478,110 L 474,113 L 473,112 L 474,114 L 468,116 L 464,121 L 457,119 L 461,121 L 460,123 L 458,123 L 452,129 L 447,128 L 449,131 L 424,148 L 420,153 L 417,152 L 417,149 L 414,147 L 414,144 L 415,145 L 412,146 L 412,144 L 407,141 L 407,137 L 404,140 L 403,137 L 389,129 L 391,127 L 392,128 L 392,124 L 392,126 L 388,129 L 383,125 L 382,126 L 381,123 L 377,123 L 377,121 L 375,120 L 374,122 L 371,122 L 370,120 L 365,121 L 364,131 L 369,137 L 368,139 L 369,141 L 371,141 L 370,143 L 374,148 L 377,156 L 376,159 L 371,159 L 381,168 L 382,174 L 387,184 L 385,186 L 381,186 L 372,190 L 366,188 L 365,189 L 375,194 L 379,194 L 385,190 L 386,191 L 380,198 L 368,192 L 364,192 L 361,187 L 355,183 L 352,186 L 351,192 L 342,199 L 340,205 L 334,205 L 321,209 L 319,205 L 319,202 L 321,201 L 319,201 L 310,191 L 310,187 L 308,188 L 308,185 L 305,184 L 300,179 L 301,178 L 298,177 L 299,176 L 297,177 L 288,168 L 281,164 L 279,161 L 278,162 L 276,158 L 264,155 L 262,157 L 262,160 L 256,164 L 259,162 L 263,164 L 260,167 L 264,169 L 265,173 L 268,175 L 271,181 L 272,186 L 275,190 L 274,192 L 273,191 L 275,193 L 275,196 L 274,197 L 271,194 L 274,200 L 273,202 L 278,204 L 277,205 L 283,214 L 282,216 L 281,215 L 253,222 L 248,221 L 249,222 L 245,224 L 237,224 L 237,226 L 235,225 L 224,229 L 223,228 L 211,232 L 205,232 L 202,234 L 196,233 L 196,235 L 179,238 L 172,241 L 170,240 L 168,242 L 165,240 L 165,242 L 144,247 L 143,246 L 141,248 L 137,248 L 136,246 L 137,248 L 135,250 L 119,252 L 106,256 L 104,255 L 101,256 L 102,261 L 99,263 L 89,265 L 86,264 L 86,266 L 84,265 L 81,267 L 79,267 L 79,265 L 73,269 L 71,268 L 72,267 L 70,269 L 68,267 L 66,269 L 48,270 L 45,267 L 46,266 L 36,266 L 25,264 L 20,261 L 17,262 L 11,260 L 3,260 L 0,263 L 0,270 L 2,277 L 3,276 L 5,278 L 4,279 L 20,302 L 40,321 L 52,329 L 67,336 L 94,342 L 126,341 L 165,336 L 176,336 L 213,330 L 228,329 L 234,327 L 243,327 L 250,325 L 305,319 L 342,313 L 351,313 L 357,311 L 375,310 L 381,308 L 405,308 L 421,310 L 431,313 L 433,312 L 437,314 L 473,321 L 486,320 L 492,316 L 492,312 L 497,304 L 499,294 L 498,279 L 495,266 L 496,247 L 501,240 L 500,239 L 503,237 L 503,235 L 509,228 L 509,225 L 513,222 L 514,218 L 524,205 L 524,203 L 526,201 L 527,202 L 527,199 L 559,151 L 560,146 L 565,137 Z" fill="black" stroke="none" /></svg>