<?xml version="1.0" encoding="utf-8"?>
<!-- Generator: Adobe Illustrator 19.2.0, SVG Export Plug-In . SVG Version: 6.00 Build 0)  -->
<svg version="1.1" id="Layer_1" xmlns="http://www.w3.org/2000/svg" xmlns:xlink="http://www.w3.org/1999/xlink" x="0px" y="0px"
	 width="125.9px" height="117.2px" viewBox="0 0 125.9 117.2" enable-background="new 0 0 125.9 117.2" xml:space="preserve">
<g>
	<path fill="#A4A7A9" d="M44.4,84.5c0,0,0.1-1.4,0.9-2c0.8-0.6,2.9-1.3,2.9-1.3l0.1,0.5l-1.8,0.8l-1.4,0.9c0,0-0.4,0.9-0.1,1.5
		C45.3,85.5,44.4,84.5,44.4,84.5z"/>
	<g>
		<line fill="none" stroke="#A4A7A9" stroke-width="1.3312" stroke-miterlimit="10" x1="13.5" y1="44.6" x2="47.2" y2="78.5"/>
		<line fill="none" stroke="#A4A7A9" stroke-width="1.3312" stroke-miterlimit="10" x1="17.1" y1="42.1" x2="47.8" y2="78.9"/>
		<line fill="none" stroke="#A4A7A9" stroke-width="1.3312" stroke-miterlimit="10" x1="23.1" y1="38.6" x2="47.5" y2="79"/>
		<line fill="none" stroke="#A4A7A9" stroke-width="1.3312" stroke-miterlimit="10" x1="26.8" y1="37.5" x2="48.1" y2="78.4"/>
		<line fill="none" stroke="#A4A7A9" stroke-width="1.3312" stroke-miterlimit="10" x1="33.6" y1="35.1" x2="48.3" y2="79.2"/>
		<polyline fill="none" stroke="#A4A7A9" stroke-width="1.3312" stroke-miterlimit="10" points="44.3,33.2 48.8,78.3 36.1,34.1 		
			"/>
		<line fill="none" stroke="#A4A7A9" stroke-width="1.3312" stroke-miterlimit="10" x1="55.1" y1="31.8" x2="48.7" y2="78.2"/>
		<line fill="none" stroke="#A4A7A9" stroke-width="1.3312" stroke-miterlimit="10" x1="109" y1="58.3" x2="64.8" y2="82.6"/>
		<line fill="none" stroke="#A4A7A9" stroke-width="1.3312" stroke-miterlimit="10" x1="94.4" y1="47.5" x2="63.6" y2="81.3"/>
		<polyline fill="none" stroke="#A4A7A9" stroke-width="1.3312" stroke-miterlimit="10" points="89.7,44 63.4,82.6 103.8,53.2 		"/>
		<polyline fill="none" stroke="#A4A7A9" stroke-width="1.3312" stroke-miterlimit="10" points="86.3,43.5 63,82.3 99.7,49.4 		"/>
		<line fill="none" stroke="#A4A7A9" stroke-width="1.3312" stroke-miterlimit="10" x1="79.3" y1="40.3" x2="64.6" y2="80.2"/>
		<line fill="none" stroke="#A4A7A9" stroke-width="1.3312" stroke-miterlimit="10" x1="75.1" y1="37.5" x2="63.4" y2="81.1"/>
		<line fill="none" stroke="#A4A7A9" stroke-width="1.3312" stroke-miterlimit="10" x1="69.1" y1="36.1" x2="63.7" y2="80.7"/>
		<line fill="none" stroke="#A4A7A9" stroke-width="1.3312" stroke-miterlimit="10" x1="40.4" y1="33.5" x2="49" y2="78.4"/>
	</g>
	<path fill="#A3A6A8" d="M13.5,44.8c0,0-3.2,0.1-3.8-0.6c0,0-1,0.6-1.9-0.2c-0.9-0.9-2.6-3.8-2.5-5.1c0.1-1.4,0-1.8-0.2-2.2
		c-0.2-0.4-3-10.4-3.6-11.9c-0.5-1.5-2-6.9,1.3-9.4C6,13,6,13.4,6,13.4s1.5-2.6,3.9-3c2.4-0.4,3.4,0.1,3.4,0.1s0.9-2.8,3-3.8
		c2.1-0.9,3.1-0.7,3.1-0.7s2-1.9,4.2-1.9C25.8,4.2,28,5.4,28,5.4s0.5-1.4,2.5-2.6c2-1.2,4.3-0.9,4.3-0.9s2.2-1.3,4.7-0.4
		C42,2.4,43.2,3,43.2,3s1.6-2.7,4.7-2.3c3.1,0.4,2.5,0.6,2.5,0.6s2.5-0.8,4.5,0.2c2,0.9,3.5,2.5,3.5,2.5s3.2-2.2,6.1-1.2
		c2.9,1,1.7,0.6,1.7,0.6s2.5-0.2,4.2,0.6c1.7,0.8,2.9,2.5,2.9,2.5s2.3-1.7,4.8-1.4c2.5,0.3,3.1,0.6,3.1,0.6s2.4-0.1,4.3,1.2
		c1.9,1.3,2.6,2.7,2.6,2.7s2.7-1.4,5.1-0.4c2.4,1,2.6,1.2,2.6,1.2s3,0.5,4.2,1.8c1.1,1.4,1.6,3.1,1.6,3.1s2.2-1.3,4.6,0.1
		c2.4,1.4,2.8,2.1,2.8,2.1s2.8,0.5,4,2.5c1.2,2,1.3,2.8,1.3,2.8s2.3-0.7,4.3,0.8c1.9,1.5,2.3,2.5,2.3,2.5s4.5,2.4,4.5,7.1
		c0,4.6-0.1,8.9-2,12.9c-1.6,3.3-3,4.9-3.6,8.6c-0.6,3.1-2.6,5.5-5.6,4.8c-1.5-0.3-4-1-5.5-0.4c0,0-2.1-2-3.1-2.8
		c-0.9-0.7-2.3-2.5-3.2-3c-0.9-0.5-2.8-2.2-3.3-2.5c-0.5-0.3-5.7-3.7-7.3-3.8c-1.5-0.1-1-0.2-1-0.2s-0.3-0.7-2.5-1.8
		c-2.2-1.1-3.3-1-3.3-1s-1.2-1.1-3.2-2c-2-0.9-3.5-0.8-3.5-0.8s-1.2-0.9-2.1-1.4c-0.9-0.5-5.3-2.1-6.6-2.6c-1.3-0.5-2.2-1.2-2.2-1.2
		s-2.9-0.6-4.5-1.6c-1.6-1.1-1.3-1.2-1.3-1.2s-0.8,0.2-2.5,0.1c-1.8-0.1-3.6-0.7-3.6-0.7s-2.7,0.1-4.6,0.2c-2,0.1-3.6,0.3-3.8,0.5
		c-0.2,0.2-1.6,0.8-2.4,0.8c-0.8,0-5.1,0.5-6.7,0.7c-1.6,0.3-5.2,1.3-5.2,1.3s-0.9,0.2-2.6,0.3c-1.7,0.1-4.7,1.7-6.5,2.4
		c-1.8,0.7-6,2.7-7.1,3.7C15.5,43.5,14.4,44.8,13.5,44.8z"/>
	<path fill="#A4A7A9" d="M49.3,98.8c0,0-1.3,2.2-2.3,2.9c-0.6,0.5-0.9,1.7-0.9,2.2c0,0.5-0.5,1.8-0.8,3c-0.4,1.2,0.3,2-0.1,2.4
		c-0.4,0.4-0.6,0.7-0.4,1.1c0.2,0.5-0.4,0.8-0.4,0.8s-0.3,0.5,0.3,0.7c0.6,0.2,0.2,0.1,0.2,0.1s-1.4,1.8-1.3,2.1
		c0.1,0.2,0.1,0.8,1.2,0.7c1.1-0.1,1.6-1.2,2-1.2c0.4-0.1,1.1-0.5,1.2-0.8c0-0.3-0.3-1-0.7-1c-0.4,0-0.4,0-0.4,0s0.6-0.6,0.3-0.7
		c-0.3-0.2-0.3-0.2-0.3-0.2s0.2-0.9,0.8-1.2c0.6-0.4,1-1.4,1.1-2.1c0.2-0.7,0.2-1.4,0.5-1.7c0.4-0.3,1.5-1.9,1.8-2.3
		c0.3-0.4,0.7-0.7,1-0.6c0.3,0.1,0.9,0,1.1,0c0.3,0,1.4,0.8,1.6,1.6c0.1,0.9,0.5,1.9,0.8,2.3c0.2,0.4,0.5,0.5,0.3,0.9
		c-0.2,0.4-0.3,1.3,0.1,2.2c0.4,0.9,0.6,1.9,0.6,2.2c0,0.3,0.8,0.8,0.8,0.8s-1.3,0.9-0.9,1.5c0.4,0.6,0.8,0.9,1,1.3
		c0.2,0.5,0.7,1.1,1.4,1.2c0.8,0.1,0.4-0.4,0.5-0.9c0-0.5-0.2-1.5-0.2-1.5l0.1-1.8c0,0,0.6-0.8,0.5-2c-0.1-1.1-0.1-1.7-0.1-1.7
		s0-1.7-0.3-1.9c0,0,0.2-1.1-0.2-1.8c-0.4-0.8-0.6-1.2-0.6-1.2s-0.2-1.8-0.4-2.7c-0.2-0.9-0.3-1.9-0.5-2c-0.2-0.1,0.5-2.7,0.5-2.7
		s0.8,0.6,1.8,0.6c1.1,0,1.1-0.3,1.5-0.6c0.4-0.3,1.4-0.5,1.7-0.9c0.5-0.7,0.5,0,0.6-0.5c0.1-0.5,0-0.3,0-0.3s1.2-0.9,1.7-1.3
		c0.4-0.3,0.2-0.8-0.2-1.3c-0.5-0.5-1.3-0.8-1.7,0c-0.4,0.8-0.4,0.8-0.4,0.8s-0.5-0.6-0.6-0.3c0,0.3-0.3,0.5-0.3,0.5
		s-1.5,0.7-1.9,0.6c-0.9-0.3-0.9-0.6-1.5-0.9c-0.6-0.3-1.3-2-1.3-2l-0.8-0.6l0.3-2c0,0,0.1-1.4-0.7-2.2c-0.9-0.8-1.8-0.9-2.4-0.1
		c-0.6,0.8-1,1.8-0.9,2.5c0.1,0.7,0.1,0.7,0.1,0.7s0.1,0.3-0.4,0.6c-0.4,0.2-0.7,0.1-0.7,0.1l-0.5-0.7c0,0-1.7-1.1-2.1-1.3
		c-0.4-0.2-1.4-1.5-1.3-1.9c0-0.4,0.2-1.1-0.3-1.4c-0.5-0.3-1-0.4-1-0.4l-0.4-2.4l-1.1-0.8c0,0-0.9,0.9-0.7,1.2c0.1,0.3,0.6,1,0.6,1
		s-0.1,1.2,0.1,1.3c0.2,0.1-0.7,0.5-0.5,1.3c0.1,0.8,0.1,0.8,0.1,0.8s1.2,0.9,1.9,2.2c0.6,1.4,0.8,2,1.8,2.7c1,0.6,1.6,1.5,1.5,1.9
		c0,0.4-0.1,2-0.1,2L49.3,98.8z"/>
	<path fill="#A4A7A9" d="M62.8,81c0,0,0.9-0.3,0.4,0.9c-0.5,1.3-3.9,6.8-3.9,6.8s0.1,0.5-0.5,1.2c-0.5,0.7-1.2,2.1-1.2,2.1l-1-0.8
		c0,0,1-2,1.9-2.6L62.8,81z"/>
	<path fill="#A4A7A9" d="M48.1,78.4l0.9,0.1c0,0,1.3,7.7,1.4,8c0.1,0.2,0.2,0.4,0,0.6c-0.1,0.2,0.7,0.6,0.6,1.1
		c-0.1,0.5-0.1,1.6-0.1,1.6L50,90c0,0-0.4-2.1-0.2-2.4c0.3-0.3-0.3-0.4-0.3-0.8C49.5,86.4,48.1,78.4,48.1,78.4z"/>
	<path fill="#C7C9C8" stroke="#A4A7A9" stroke-width="1.3312" stroke-miterlimit="10" d="M46.2,79.8c0.1-0.2,1.6-2.4,2.9-2.3
		c1.3,0.1,2.9,0.2,3.8,1.2c0.8,1,1.4,1.2,2.2,1.5c0.8,0.3,2.4,0.2,3.4,0.2c1.1,0,1.3-0.1,2-0.3c0.7-0.2,1.2-0.8,1.8-0.6
		c0.6,0.3,0.6,0.3,0.6,0.3s1.1-0.7,1.4-0.2c0.3,0.5,0.7,1.4,0.6,1.8c-0.1,0.4-0.1,1.2-0.1,1.2s0.5,0.4,0,0.8
		c-0.5,0.3-1.2,0.6-1.2,0.6s-0.2,1.3-0.6,1.2c-0.4,0-2.7-0.1-3.3,0c-0.6,0.1-4.1-0.3-5.8-0.7c-1.7-0.4-1.6-0.2-2.8-0.8
		c-1.3-0.6-3-1.5-3-1.5l-0.7-1.1C47.5,81.1,45.8,80.3,46.2,79.8z"/>
	<path fill="#A4A7A9" d="M63.2,84.5l2.1,6.6c0,0,0.8,2.7,1.1,3.2c0.3,0.5,0.6,1,0.6,1s-0.1,0.4-0.6,0c-0.4-0.4-1.1-2-1.1-2l-2.5-8.6
		L63.2,84.5z"/>
	<g>
		<path fill="#FFFFFF" d="M30.9,29.1c-0.6-3.8-0.2-13.3-1.1-17.9c-0.5-2.5-1.2-4.6-1.7-5.9C28,5.3,28,5.4,28,5.4s-2.1-1.2-4.3-1.1
			c-2.2,0.1-4.2,1.9-4.2,1.9s-1-0.3-3.1,0.7c-2.1,0.9-3,3.8-3,3.8s0,0-0.1,0c0.1,0.1,0.2,0.2,0.3,0.3c1.6,1,8,26.4,8.6,28.7
			c0.6-0.3,1.1-0.5,1.5-0.6c1.8-0.7,4.8-2.3,6.5-2.4c0.6,0,1.1-0.1,1.5-0.1C31.5,34.6,31.3,31.7,30.9,29.1z"/>
		<path fill="#FFFFFF" d="M82.7,31.3c0,0,2.7-13.4,3.6-15.8c0.5-1.5,1.4-4.2,2-6.1c-0.2,0.1-0.3,0.1-0.3,0.1s-0.6-1.4-2.6-2.7
			c-1.9-1.3-4.3-1.2-4.3-1.2S80.6,5.3,78.1,5c-2.5-0.3-4.8,1.4-4.8,1.4s0,0-0.1-0.1c-1,5.8-3.3,19.4-3.5,20.6
			c-0.3,1.5-1.9,3.7-2.3,5c-0.3,0.8-0.7,2.7-1.1,3.9c0.5,0.1,0.9,0.2,0.9,0.2s0.9,0.7,2.2,1.2c1.3,0.5,5.7,2.1,6.6,2.6
			c0.7,0.4,1.5,0.9,1.9,1.2L82.7,31.3z"/>
		<path fill="#FFFFFF" d="M106.5,46.9c1.2-2,1.6-13.8,2.6-16c0.7-1.7,3.2-5.9,5.1-8.3c-0.1-0.2-0.3-1.1-1.3-2.8c-1.2-2-4-2.5-4-2.5
			s-0.4-0.7-2.8-2.1c-1.8-1-3.5-0.6-4.2-0.3c-1.8,2.7-4.9,7.7-4.9,10.3c-0.1,3.6-1.3,9.8-2.5,12.4c-1,2.2-3.2,7.4-3.8,9
			c0,0,0,0.1,0,0.1s-0.1,0-0.1,0c0,0,0,0,0,0c0,0,0.2,0.1,1.1,0.1c1.6,0.1,6.8,3.5,7.3,3.8c0.4,0.2,1.5,1.2,2.4,1.9
			C102.9,51.3,105.7,48.4,106.5,46.9z"/>
		<path fill="#FFFFFF" d="M58.2,4.4l0-0.6c-0.4-0.4-1.7-1.6-3.4-2.3c-2-0.9-4.5-0.2-4.5-0.2s0.6-0.2-2.5-0.6C44.8,0.3,43.2,3,43.2,3
			S43.1,3,43,2.9c0,6.6-0.1,20.5-0.1,21.9c0.1,1.4,0.8,7.1,1.1,9.3c0.2,0,0.4,0,0.5,0c0.8,0,2.2-0.6,2.4-0.8
			c0.2-0.2,1.8-0.4,3.8-0.5c2-0.1,4.6-0.2,4.6-0.2s0.1,0,0.1,0L58.2,4.4z"/>
	</g>
	<path fill="#A4A7A9" d="M57.7,97.6c0,0-0.3,1.2-0.4,1.6c0,0-1.2,0.9-1.8,1.7c-0.6,0.8-1.2,2.4-1.2,2.4l-0.8-0.4c0,0,0.3-1.6,1.4-3
		C56.3,98.2,57.7,97.6,57.7,97.6z"/>
	<path fill="#A4A7A9" d="M52.5,102.9c0.1,0,0-2,0-2.1c-0.3-1.6-1.3-2.9-2.4-4c-0.3,0.2,0,1-0.3,1.2c0.7,0.8,0.9,1,1.4,2
		c0.4,0.8,0.5,2,0.4,2.9L52.5,102.9z"/>
	<path fill="#A4A7A9" d="M53,89.9c0,0,0.7,1.8-0.5,3.5c-1.2,1.7-2.2,2.3-2.2,2.3l0-1.2c0,0,0.7-0.4,1.4-1.9c0.7-1.5,0.5-2.1,0.5-2.1
		L53,89.9"/>
	<path fill="#A4A7A9" d="M56.9,90.8c0,0-1.6,2.7,0.7,6.3l0.7-1.2c0,0-0.8-1.2-0.8-2.3c0-1.1,0.3-1.8,0.3-1.8L56.9,90.8z"/>
	<path fill="none" stroke="#A4A7A9" stroke-width="1.3312" stroke-miterlimit="10" d="M13.5,44.8c0,0-3.2,0.1-3.8-0.6
		c0,0-1,0.6-1.9-0.2c-0.9-0.9-2.6-3.8-2.5-5.1c0.1-1.4,0-1.8-0.2-2.2c-0.2-0.4-3-10.4-3.6-11.9c-0.5-1.5-2-6.9,1.3-9.4
		C6,13,6,13.4,6,13.4s1.5-2.6,3.9-3c2.4-0.4,3.4,0.1,3.4,0.1s0.9-2.8,3-3.8c2.1-0.9,3.1-0.7,3.1-0.7s2-1.9,4.2-1.9
		C25.8,4.2,28,5.4,28,5.4s0.5-1.4,2.5-2.6c2-1.2,4.3-0.9,4.3-0.9s2.2-1.3,4.7-0.4C42,2.4,43.2,3,43.2,3s1.6-2.7,4.7-2.3
		c3.1,0.4,2.5,0.6,2.5,0.6s2.5-0.8,4.5,0.2c2,0.9,3.5,2.5,3.5,2.5s3.2-2.2,6.1-1.2c2.9,1,1.7,0.6,1.7,0.6s2.5-0.2,4.2,0.6
		c1.7,0.8,2.9,2.5,2.9,2.5s2.3-1.7,4.8-1.4c2.5,0.3,3.1,0.6,3.1,0.6s2.4-0.1,4.3,1.2c1.9,1.3,2.6,2.7,2.6,2.7s2.7-1.4,5.1-0.4
		c2.4,1,2.6,1.2,2.6,1.2s3,0.5,4.2,1.8c1.1,1.4,1.6,3.1,1.6,3.1s2.2-1.3,4.6,0.1c2.4,1.4,2.8,2.1,2.8,2.1s2.8,0.5,4,2.5
		c1.2,2,1.3,2.8,1.3,2.8s2.3-0.7,4.3,0.8c1.9,1.5,2.3,2.5,2.3,2.5s4.5,2.4,4.5,7.1c0,4.6-0.1,8.9-2,12.9c-1.6,3.3-3,4.9-3.6,8.6
		c-0.6,3.1-2.6,5.5-5.6,4.8c-1.5-0.3-4-1-5.5-0.4c0,0-2.1-2-3.1-2.8c-0.9-0.7-2.3-2.5-3.2-3c-0.9-0.5-2.8-2.2-3.3-2.5
		c-0.5-0.3-5.7-3.7-7.3-3.8c-1.5-0.1-1-0.2-1-0.2s-0.3-0.7-2.5-1.8c-2.2-1.1-3.3-1-3.3-1s-1.2-1.1-3.2-2c-2-0.9-3.5-0.8-3.5-0.8
		s-1.2-0.9-2.1-1.4c-0.9-0.5-5.3-2.1-6.6-2.6c-1.3-0.5-2.2-1.2-2.2-1.2s-2.9-0.6-4.5-1.6c-1.6-1.1-1.3-1.2-1.3-1.2s-0.8,0.2-2.5,0.1
		c-1.8-0.1-3.6-0.7-3.6-0.7s-2.7,0.1-4.6,0.2c-2,0.1-3.6,0.3-3.8,0.5c-0.2,0.2-1.6,0.8-2.4,0.8c-0.8,0-5.1,0.5-6.7,0.7
		c-1.6,0.3-5.2,1.3-5.2,1.3s-0.9,0.2-2.6,0.3c-1.7,0.1-4.7,1.7-6.5,2.4c-1.8,0.7-6,2.7-7.1,3.7C15.5,43.5,14.4,44.8,13.5,44.8z"/>
</g>
</svg>
