<?xml version="1.0" encoding="utf-8"?>
<!-- Generator: Adobe Illustrator 19.2.0, SVG Export Plug-In . SVG Version: 6.00 Build 0)  -->
<svg version="1.1" id="Layer_1" xmlns="http://www.w3.org/2000/svg" xmlns:xlink="http://www.w3.org/1999/xlink" x="0px" y="0px"
	 width="108.1px" height="131px" viewBox="0 0 108.1 131" enable-background="new 0 0 108.1 131" xml:space="preserve">
<g>
	<path fill="#C7C9C8" stroke="#A4A7A9" stroke-width="1.3312" stroke-miterlimit="10" d="M105,47.7c0,0,0,9.4-0.5,9.6
		c-0.6,0.3-5.2,1.9-4.8,1.9C100.1,59.3,105,47.7,105,47.7z"/>
	<path fill="#FFFFFF" stroke="#A4A7A9" stroke-width="1.3312" stroke-miterlimit="10" d="M13.6,86.8c0,0,0.1-4.1,7.3-3.6
		c7.2,0.5,5.2,0.3,5.2,0.3s2.8-3.4,8.7-2c5.9,1.3,16.4,3.7,16.4,3.7s0.7,0.6,1.7-1.9c1-2.5,1.8-4.3,3.2-4.5c1.4-0.2,3.4,0,3.4,0
		s3.6,13.9,1.8,13.6c-1.8-0.3-6.2-0.5-8.8-0.7c-2.6-0.2-27.1,0.5-29.9,0.7C19.8,92.5,13.4,93.6,13.6,86.8z"/>
	<path fill="#A4A7A9" stroke="#A4A7A9" stroke-width="1.3312" stroke-miterlimit="10" d="M27.1,88.6c0,0-1.5-2,4-1.8
		c5.5,0.3,31.1,0.7,32.8,0.9c1.7,0.2,4.7,0.9,4.7,0.9s-5,0-10.2,0C53.1,88.6,29,90.5,27.1,88.6z"/>
	<path fill="#A4A7A9" stroke="#A4A7A9" stroke-width="1.3312" stroke-miterlimit="10" d="M26.1,83.5c0,0,1.1,0.2-1.6,0
		c3.6,0.3,6.3,1,6.3,1l6.9,0.7c0.4-1.1-0.3-2.3-1-3.3c-0.7-0.2-1.3-0.3-1.9-0.4C28.9,80.1,26.1,83.5,26.1,83.5z"/>
	<path fill="#A4A7A9" stroke="#A4A7A9" stroke-width="1.3312" stroke-miterlimit="10" d="M1,87.4l12.5-0.6l0.8,1.8L1,88.1
		C1,88.1,0.2,87.5,1,87.4z"/>
	<polygon fill="#A4A7A9" stroke="#A4A7A9" stroke-width="1.3312" stroke-miterlimit="10" points="19.3,92.5 16.8,97.8 17.7,97.8 
		20.1,92.5 	"/>
	<path fill="#A4A7A9" stroke="#A4A7A9" stroke-width="1.3312" stroke-miterlimit="10" d="M25.7,92.2l4.2,6.4l0.5-0.6
		c0,0-4.5-7.6-4.7-7.6c-0.2,0-0.4-0.3-0.6,0c-0.3,0.3-0.4,0.3,0,1C25.5,92.2,25.7,92.2,25.7,92.2z"/>
	<path fill="#A4A7A9" stroke="#A4A7A9" stroke-width="1.3312" stroke-miterlimit="10" d="M16,86.5c0,0,0.3,0.1,0.4,0.5
		c0.2,0.8,0.2,2.4-0.9,2.5c-2.8,0.2-3.1-1.4-3.1-1.4S12.9,85.5,16,86.5z"/>
	<circle fill="#A4A7A9" stroke="#A4A7A9" stroke-width="1.3312" stroke-miterlimit="10" cx="17.9" cy="98.4" r="2.3"/>
	<ellipse fill="#A4A7A9" stroke="#A4A7A9" stroke-width="1.3312" stroke-miterlimit="10" cx="30.2" cy="98.9" rx="2.2" ry="2.2"/>
	<polygon fill="#FFFFFF" stroke="#A4A7A9" stroke-width="1.3312" stroke-miterlimit="10" points="71.4,64.3 11.5,0.5 70.3,65.9 	"/>
	<path fill="#A4A7A9" stroke="#A4A7A9" stroke-width="1.3312" stroke-miterlimit="10" d="M77.1,58.1c0,0,2.1-8,3.7-13.1
		c1.6-5.1,2.4-9.1,2.4-9.1l0.6,2.7c0,0-5.3,18.9-5.7,19.2C77.1,58.6,77.1,58.1,77.1,58.1z"/>
	<path fill="#A4A7A9" stroke="#A4A7A9" stroke-width="1.3312" stroke-miterlimit="10" d="M80.1,68.3c0,0-5.5,1.8-9.5,1.6
		c-4-0.1-5.1-0.8-5.1-0.8v-1.9L68,65c0,0,1.7-1.2,2-1.8c0.3-0.6,11.6-4,11.6-4v4.5L80.1,68.3z"/>
	<path fill="#C7C9C8" stroke="#A4A7A9" stroke-width="1.3312" stroke-miterlimit="10" d="M88,27.8c0,0-3.2-3.2-3.7-5.4
		c-0.5-2.2-1.4-7.6,2.9-8c4.3-0.4,7.7,3.9,7.7,3.9s0.1,2-0.3,3.7c-0.4,1.6,0.5,2.4,0.5,2.4l0.5,1.6l2.3,1l-6.2,0.9H88z"/>
	<path fill="#A4A7A9" stroke="#A4A7A9" stroke-width="1.3312" stroke-miterlimit="10" d="M85.2,18c0,0,2.2,7.3,3.2,7.3
		c1,0,2.5,0,2.5,0s2.2-1.1,2.8-1.1c0.5,0,1.5-0.4,1.5-0.4s1-8,0-7.4c-1,0.6-7.4,2.1-7.4,2.1L85.2,18z"/>
	<path fill="#A4A7A9" stroke="#A4A7A9" stroke-width="1.3312" stroke-miterlimit="10" d="M83.1,16.4c0,0-0.7-4.4,3-5.4
		c3.7-1,6.6,0,8.1,2.7c1.5,2.7,1.2,4.2,1.2,4.2s-9.6,1.4-13.2,0.6c-3.6-0.8-1.7-1.4-1.7-1.4L83.1,16.4z"/>
	<path fill="#A4A7A9" stroke="#A4A7A9" stroke-width="1.3312" stroke-miterlimit="10" d="M81.8,53.6c0,0,0.7-11.3,1.2-14.3
		c0.6-3-0.5-5.6,0.8-7.4c1.3-1.8,2.6-2.3,4.1-3.2c1.5-0.9,3-2.1,4.1-2.1c1.1,0,5.6-0.2,7.4,1.2c1.8,1.3,6.1,4.9,6.2,8.3
		c0.1,3.4,0,4.7,0,4.7l1.8,6.5l-3.7,3.6c0,0-2.2,7-2.5,8.5c-0.3,1.5,0.7,11.8,0.7,11.8h-6.3c0,0-4.2-0.1-9-1.1
		c-4.8-1-7.7-1.4-7.7-1.4s1.2-5.3,1.3-6.6C80.2,60.8,81.8,53.6,81.8,53.6z"/>
	<path fill="#C7C9C8" stroke="#A4A7A9" stroke-width="1.3312" stroke-miterlimit="10" d="M89.1,50.3c0,0-0.1,5.5-1.2,6.3
		c-1.1,0.8-11,5.5-11,5.5l-7,2.9c0,0-0.1-1.4,0.5-2.3c0.7-1-1.1-1.5,0.8-2.6c1.9-1,3.6-1,3.6-1s7.4-5.4,8-6.9
		c0.6-1.5,1.1-2.8,1.1-2.8l4.1-1.1C87.8,48.4,87.7,49.9,89.1,50.3z"/>
	<path fill="#A4A7A9" stroke="#A4A7A9" stroke-width="1.3312" stroke-miterlimit="10" d="M79.4,67.2c0,0-2.9,15.2-2.6,23.8
		c0.3,8.7,1.3,9,1.3,9s-0.4,2.8,0,4c0.4,1.2,0.8,4.1,0.8,4.1l2.5,13.8l0.7,0.5v1.5c0,0-1.7,0.9-2.6,1.8c-1,0.9-4.1,2.2-5.5,2.7
		c-1.4,0.5-1.1,1.8-1.1,1.8H88H90c0,0,0-0.5,0-1.1c0-1,0-2.5,0-3.2c-0.1-1.1,1-3,1-3l-3.3-21.9c0,0,0.7-0.8,0.1-2.3
		c-0.6-1.5-1-3.4-1-3.4l2.2-11.2l1,0.4c0,0,1.7,14.7,3.1,16.5c1.4,1.8,1.9,5.4,1.9,5.4v13.8c0,0,0.4,3.3,0,4.3
		c-0.4,1-5.9,2.1-5.9,2.1v2.9c0,0,11.4,0.3,11.8,0.3c0.4,0,1.4-3.7,1.4-3.7s1.1-0.8,1.1-1.8c0-1-1.1-3.2-0.7-3.3
		c0.4-0.1,0.7-9.2,0.7-11c0-1.8-1.8-11.2-2.5-13.5c-0.7-2.3-1.9-11.3-1.5-12.8c0.4-1.5,0.8-6.1,0.8-8.8c0-2.8,0-5.2,0-5.2L79.4,67.2
		z"/>
	<path fill="#C7C9C8" d="M85.2,21.1c0,0,0.8-1.6,1.8-0.2c1.1,1.4-0.9,2.6-0.9,2.6L85.2,21.1z"/>
</g>
</svg>
