<?xml version="1.0" encoding="utf-8"?>
<!-- Generator: Adobe Illustrator 19.2.0, SVG Export Plug-In . SVG Version: 6.00 Build 0)  -->
<svg version="1.1" id="Layer_1" xmlns="http://www.w3.org/2000/svg" xmlns:xlink="http://www.w3.org/1999/xlink" x="0px" y="0px"
	 width="91.7px" height="106.2px" viewBox="0 0 91.7 106.2" enable-background="new 0 0 91.7 106.2" xml:space="preserve">
<g>
	<path fill="#A4A7A9" stroke="#A4A7A9" stroke-width="1.3312" stroke-miterlimit="10" d="M44.1,94.3c0,0-1.2-1.7-2.7-2.6
		c-1.4-0.9-15.4-7-22.7-13.4C11.5,72,6.2,65.4,4.9,61.7C3.6,58,1.5,53.5,1.4,50.6c-0.1-2.9-0.3-4.5-0.4-5.5c-0.1-1-0.7-6.3,0.3-8.9
		c1-2.5,0.7-2.5,0.7-2.5s0.1-3,1.6-6.1c1.5-3.1,2.5-4.2,2.5-4.2s0.8-3.3,3.3-6c2.4-2.7,2.4-2.7,2.4-2.7s3-3.4,4.2-4.3
		c1.2-0.8,3.7-1.9,3.7-1.9s1.6-2,3.7-3c2.1-1.1,4.3-1.2,4.3-1.2s2-1.5,4.6-2.2c2.6-0.7,4.5-0.5,4.5-0.5s1.6-0.9,4.4-0.9
		c2.8,0,4.8,0.6,4.8,0.6s2.3-1.8,8.9,0.9c0,0,6.1-0.6,9.2,2.7c0,0,5.5,0.7,8.5,4.7c0,0,4.9,1.4,7.9,6.8c0,0,4.5,3.4,6,9.4
		c0,0,3,3.7,3.4,9.8c0,0,2.5,6.6,0.4,12.5c0,0,0.2,7.3-3.9,13.6c0,0-2,5.4-6.5,10.1c0,0-4.3,5.3-9.5,8.9c0,0-8.8,6.1-15,9.1L53.2,91
		c0,0-2.2,2.3-3,2.5C49.5,93.6,47.2,96,44.1,94.3z"/>
	<g>
		<path fill="#C7C9C8" stroke="#A4A7A9" stroke-width="1.3312" stroke-miterlimit="10" d="M39.5,89.5c0,0-14.5-8.5-23.4-15.1
			c-2.4-1.8-4.1-3.1-5.4-4c2.2,2.5,4.9,5.2,8,7.9c0.2,0.2,0.5,0.4,0.8,0.7l20,11.1V89.5z"/>
		<path fill="#C7C9C8" stroke="#A4A7A9" stroke-width="1.3312" stroke-miterlimit="10" d="M56.6,29.2c1.2-10.2,0.7-17,0-22.1
			c-0.3-2.3-0.7-3.9-1.1-4.9c-0.3,0-0.5,0-0.5,0c-6.1-2.5-8.5-1.2-8.9-1c0.5,3.8,1.1,16.2,1.1,17.5c0,1.5,0,26.2,0,29.2
			c0,3,0,35,0,35l1.7,0.3c0,0,3.1-22.8,3.5-25.8C52.7,54.4,55.4,39.4,56.6,29.2z"/>
		<path fill="#C7C9C8" stroke="#A4A7A9" stroke-width="1.3312" stroke-miterlimit="10" d="M72,38.2C74,32,75.1,27,75.7,20.4
			c0.5-5.4-1.8-9.4-2.7-10.7c-0.2-0.1-0.3-0.1-0.3-0.1C70,6.1,65.3,5.1,64.4,5c0.9,2,2.6,5.8,2.8,8.6c0.4,3.8-0.7,10.9-1,12.7
			C65.8,28,61.6,45.1,60,51.1c-1.7,6-9.5,32.5-9.5,32.5l1.1,0.6c0,0,9.2-20.3,10.7-23.2C63.7,58.1,69.9,44.3,72,38.2z"/>
		<path fill="#C7C9C8" stroke="#A4A7A9" stroke-width="1.3312" stroke-miterlimit="10" d="M89.9,35.9c-0.3,1.6-0.8,4.1-1.6,8
			c-2.1,9.9-9.5,17-14.7,22.8c-5.3,5.7-19.4,19.8-19.4,19.8v1.2c0,0,11.4-9.3,16.7-13.6c5.3-4.3,13.8-14.1,16.2-17.7
			c1.6-2.4,2.6-5.3,3.1-7.1c0-0.7,0-1.1,0-1.1C92.1,42.9,90.4,37.1,89.9,35.9z"/>
		<path fill="#C7C9C8" stroke="#A4A7A9" stroke-width="1.3312" stroke-miterlimit="10" d="M77.3,71.6c-6.5,5.6-23.1,17.3-23.1,17.3
			L54,90.6l1.4-0.7c6.2-3,15-9.1,15-9.1c5.1-3.6,9.5-8.9,9.5-8.9c3.1-3.2,5-6.8,5.9-8.7C84.2,64.9,81.4,68.1,77.3,71.6z"/>
		<path fill="#C7C9C8" stroke="#A4A7A9" stroke-width="1.3312" stroke-miterlimit="10" d="M39.1,88.3h0.6v-1.1l-0.6-0.3
			c0,0-16.1-12.9-24.7-20.3C7.7,60.7,2.9,52.2,1.3,49c0,0.5,0.1,1,0.1,1.6c0,0.3,0.1,0.6,0.1,0.9c0.1,0.4,0.2,0.9,0.3,1.3
			c0.5,2.1,1.5,4.5,2.4,6.8C14.4,73.4,39.1,88.3,39.1,88.3z"/>
		<path fill="#C7C9C8" stroke="#A4A7A9" stroke-width="1.3312" stroke-miterlimit="10" d="M8.8,53.5c3,4.8,14.5,16.3,18.8,20.8
			c4.3,4.5,12.2,11.8,12.2,11.8l0.3-1.1c0,0-14.8-18.2-17.7-21.8c-2.9-3.7-11.9-15.8-14.7-22.8c-2.3-5.5-2-13.5-1.9-16.6
			c-0.4,0.5-1.2,1.7-2.3,3.9C2.1,30.8,2,33.7,2,33.7s0.2,0-0.2,1C3.2,44.7,5.9,49,8.8,53.5z"/>
		<path fill="#C7C9C8" stroke="#A4A7A9" stroke-width="1.3312" stroke-miterlimit="10" d="M45.5,83c0,0-3.5-22.2-4-24.7
			c-0.4-2.5-2.8-19.1-3.5-24.7c-0.7-5.6-2.3-21.8-2.4-27c-0.1-2.5,0.3-4,0.7-4.9c-0.7,0-2.2,0.1-4,0.6c-2.6,0.7-4.6,2.2-4.6,2.2
			s-0.2,0-0.5,0.1c-1.5,2.8-1.3,7-1.2,9.8c0.1,3.7,1.7,12.6,2.5,16.7c0.8,4.1,4.3,16.1,5.7,20.6C35.7,56,43.8,83,43.8,83H45.5z"/>
		<path fill="#C7C9C8" stroke="#A4A7A9" stroke-width="1.3312" stroke-miterlimit="10" d="M61.8,75.4C64.7,71.8,72,62.7,77,56
			c5-6.7,7.9-14.4,9.2-19.5c1-3.6,0.8-8,0.6-10.1c-0.3-0.4-0.4-0.6-0.4-0.6c-1.2-5-4.6-8.2-5.6-9.1c0.3,0.9,0.6,2.2,1.2,4.3
			c1.2,4.3-0.1,10.6-1.7,15.6c-1.7,5-9.9,20.5-11.5,22.9C67.3,61.9,53,84.6,53,84.6l0.7,0.9C53.6,85.6,58.8,79,61.8,75.4z"/>
		<path fill="#C7C9C8" stroke="#A4A7A9" stroke-width="1.3312" stroke-miterlimit="10" d="M34.3,66.4c-2.4-5.3-4.4-9.7-10.5-24.2
			c-6.1-14.5-6.5-21.9-6.7-26.6c-0.1-2.9,0.9-5.2,1.7-6.6c-0.8,0.4-2.2,1-2.9,1.6c-1.2,0.8-4.2,4.3-4.2,4.3s0,0-0.6,0.7
			c-0.9,3.4-1.1,8.5-0.1,13.6c1.1,6.3,7.2,17.5,11.9,26c4.7,8.5,18,29.2,18,29.2l1.2-0.4C42.2,83.7,36.7,71.7,34.3,66.4z"/>
	</g>
	<path fill="#FFFFFF" stroke="#A4A7A9" stroke-width="1.3312" stroke-miterlimit="10" d="M40.1,91.3c0,0-2.3-2.9-0.3-6.4
		c1.8-3.2,7.9-2.9,9.9-2.4c2,0.5,6,1.6,5.4,5.8c-0.4,2.9-3.5,5-5.6,5.8c-1.7,0.6-5,0.7-5,0.7S41.1,92.9,40.1,91.3z"/>
	<path fill="none" stroke="#000000" stroke-width="1.3312" stroke-miterlimit="10" d="M45.4,105.1"/>
	<path fill="#A4A7A9" d="M44.8,92.1c0,0-0.3-1.9,0.6-2.1c0.9-0.3,2.7-0.7,3,0.6c0.3,1.3,0,1.9,0,1.9L44.8,92.1z"/>
	<path fill="#A4A7A9" d="M44.1,96c0,0-0.2-4,0-4.1c0.2-0.1,0.4-0.4,2.3-0.5c1.9,0,2.8,0.1,3.1,1.1c0.3,1,1,5.9,1.1,7.1
		c0.1,1.2-0.3,5-0.3,5l-1.5-8.1l-4.3,0.4l-0.3,0.3L44.1,96z"/>
	<path fill="#C7C9C8" stroke="#A4A7A9" stroke-width="1.3312" stroke-miterlimit="10" d="M50.7,104.3c0,0.5-0.4,0.9-0.9,0.9
		l-3.9,0.3c-0.5,0-0.9-0.4-0.9-0.9l-0.8-7.7c0-0.5,0.4-0.9,0.9-0.9h3.8c0.5,0,0.9,0.4,0.9,0.9L50.7,104.3z"/>
</g>
</svg>
