<?xml version="1.0" encoding="utf-8"?>
<!-- Generator: Adobe Illustrator 19.2.0, SVG Export Plug-In . SVG Version: 6.00 Build 0)  -->
<svg version="1.1" id="Layer_1" xmlns="http://www.w3.org/2000/svg" xmlns:xlink="http://www.w3.org/1999/xlink" x="0px" y="0px"
	 width="93.5px" height="116.6px" viewBox="0 0 93.5 116.6" enable-background="new 0 0 93.5 116.6" xml:space="preserve">
<g>
	<line fill="#A4A7A9" stroke="#A4A7A9" stroke-width="1.3312" stroke-miterlimit="10" x1="68" y1="7.6" x2="58" y2="9.9"/>
	<line fill="#A4A7A9" stroke="#A4A7A9" stroke-width="1.3312" stroke-miterlimit="10" x1="69.8" y1="4" x2="60" y2="6.2"/>
	<path fill="#A4A7A9" stroke="#A4A7A9" stroke-width="1.3312" stroke-miterlimit="10" d="M70.9,1.5C70.3,1.6,61.4,4,61.4,4"/>
	<line fill="#A4A7A9" stroke="#A4A7A9" stroke-width="1.3312" stroke-miterlimit="10" x1="92.4" y1="75.1" x2="84.1" y2="76.2"/>
	<line fill="#A4A7A9" stroke="#A4A7A9" stroke-width="1.3312" stroke-miterlimit="10" x1="90.8" y1="71.4" x2="79.8" y2="72.3"/>
	<g>
		<polygon fill="#A4A7A9" stroke="#A4A7A9" stroke-width="1.3312" stroke-miterlimit="10" points="25.8,89.2 25.9,87.8 27.3,87.3 
			28.8,87.8 28.8,89.8 27.8,89.9 		"/>
		<path fill="#C7C9C8" stroke="#A4A7A9" stroke-width="1.3312" stroke-miterlimit="10" d="M3.7,45.7c0,0,46.2-40.6,54.5-42.8
			c8.2-2.2,8.2-2.2,8.2-2.2l4.5,0.8c0,0-4.5,1.1-1,2.5c0,0-3.5,1.5-1.8,3.6c0,0-3.1,2-0.8,4.4c0,0-4,2-0.8,4.1c0,0-4.1,3-1.3,5.2
			c0,0-2.9,2.9-1.2,5c0,0-2.5,2.9-0.9,5.5c0,0-2.9,2.4-1.1,5.3c0,0-1.2,3.4,0.8,6.1c1.9,2.7,6.5,6.8,6.5,6.8s-0.6,1.5,3.2,3.1
			c0,0,1.8,2.3,3.7,2.8c0,0,0,2.9,3.5,3.1c0,0-0.2,2.5,3.5,3.9c0,0,0,2.9,3.2,3.5c0,0,1.5,4,3,4.3c1.6,0.3,1.6,0.3,1.6,0.3
			s-1.7,1.9,1.5,4c0,0-3.4,2.9-2,4.4c0,0-6.2,3.4-7.7,3.3c-1.5-0.1-25.4-6.3-50-20.5C19,54.4,6,47,6,47S2.7,46.6,3.7,45.7z"/>
		<path fill="#A4A7A9" stroke="#A4A7A9" stroke-width="1.3312" stroke-miterlimit="10" d="M27.5,92.8c0,0,1-4.6,1.7-8.2
			C30,81,37,48.2,37,48.2l0.7,1.9l-9.1,42.4L27.5,92.8z"/>
		<path fill="#A4A7A9" stroke="#A4A7A9" stroke-width="1.3312" stroke-miterlimit="10" d="M35.9,80c0.1-0.1,0.2-0.5,0.2-0.6
			c0.1-0.4,0.2-0.8,0.2-1.2c-0.1-2.2-2.4-2.9-4.2-2.2c-0.5,0.2-1,0.4-1.4,0.7c-0.3,0.2-0.6,0.5-0.8,0.8c-0.7,1.1-0.3,2.5,0.3,2.5
			c0.6,0,1,1.8,1,1.8l1.8,0.9L35.9,80z"/>
		<path fill="#A4A7A9" stroke="#A4A7A9" stroke-width="1.3312" stroke-miterlimit="10" d="M61.6,95.8c0,0,2.1-0.8,1.8-1.5
			c-0.3-0.7,2.3-0.9,3-1c0.7-0.1-0.3-1.8-0.3-1.9c0.1-0.1-1.7-2.7-1-3.1c0.7-0.4,0.3-1,0.7-0.4c0.4,0.6,0.7,1.9,0.7,1.9l1.2-0.4
			l-1.4-4.3c0,0,0.9-1.7,0.8-2.4c-0.1-0.7-0.9-0.2-0.9-0.2s1.7-1.7,1-2.8c-0.6-1.1-3.4-1.8-5-0.8c0,0-1.9-0.5-2.9,0.2l-1.5,0
			c0,0,1-1.8-1.6-0.9c-2.6,0.9-2.6,1.3-2.6,1.3s-5.1,3-3.4,8.2c1.7,5.2,3.5,5.9,3.5,5.9L61.6,95.8z"/>
		<path fill="#A4A7A9" stroke="#A4A7A9" stroke-width="1.3312" stroke-miterlimit="10" d="M17.7,96.1c0,0-0.9-2.6-1.4-4.1
			c-0.4-1.4-1.3-1.3-1.3-1.3l-2.7,4.7l1.8,1.9L17.7,96.1z"/>
		<path fill="#A4A7A9" stroke="#A4A7A9" stroke-width="1.3312" stroke-miterlimit="10" d="M54,111.5c-0.5,0.1,1.8,3.2,2,3.4
			c3.8,3,7.2-1,7.9-4.7l-6.5,0.6C57.4,110.8,54,111.5,54,111.5z"/>
		<path fill="#A4A7A9" stroke="#A4A7A9" stroke-width="1.3312" stroke-miterlimit="10" d="M56.1,110.3c0,0,1.1,4.4,3.6,2.7
			c2.5-1.7,1.4-3.3,1.4-3.3L56.1,110.3z"/>
		<path fill="#A4A7A9" stroke="#A4A7A9" stroke-width="1.3312" stroke-miterlimit="10" d="M13.3,106.5c0,0,1.3,4.3-1.8,6.2
			c-3.2,1.8-6,0-6.7-1.4c-0.7-1.4-0.9-4.1-0.1-4.8C5.5,105.8,13.3,106.5,13.3,106.5z"/>
		<path fill="#A4A7A9" stroke="#A4A7A9" stroke-width="1.3312" stroke-miterlimit="10" d="M38.7,88.2c0,0,0-4.8-1.3-6.7
			c-1.3-1.9-1.4-1.5-1.4-1.5l-3.4,2c0,0-1.1-0.2-2-0.2c-0.9,0.1-1.7-0.3-1.9,0.6c-0.2,0.9-0.6,1.5,0.3,1.9c0.9,0.4,1.6-0.5,1.6-0.5
			l-0.6,2.6c0,0-1,3.6-1.2,5c-0.2,1.4,1.4-0.9,1.4-0.9s-8.4,2.2-9.9,3.2c-1.5,1-5,3.3-5,3.3s6.3,1.2,6.6,1.1
			c0.3-0.1,13.8-6.3,13.8-6.3L38.7,88.2z"/>
		<g>
			<path fill="#FFFFFF" stroke="#A4A7A9" stroke-width="1.3312" stroke-miterlimit="10" d="M91,71.1c0,0,0,0-1.6-0.3
				c-1.6-0.3-3-4.3-3-4.3c-3.3-0.6-3.2-3.5-3.2-3.5c-3.6-1.4-3.5-3.9-3.5-3.9c-3.6-0.2-3.5-3.1-3.5-3.1c-1.9-0.5-3.7-2.8-3.7-2.8
				c-3.9-1.6-3.2-3.1-3.2-3.1s-0.1-0.1-0.4-0.4l-15.2-1l35.3,31.7c0.9-0.5,1.6-0.8,1.6-0.8c-1.4-1.6,2-4.4,2-4.4
				C89.3,73,91,71.1,91,71.1z"/>
			<path fill="#FFFFFF" stroke="#A4A7A9" stroke-width="1.3312" stroke-miterlimit="10" d="M45.5,42c0,0,5.9,1.6,17.1,1.2
				c-1.8-2.7-0.7-6-0.7-6c-1.8-2.8,1.1-5.3,1.1-5.3c-1.6-2.6,0.9-5.5,0.9-5.5c-1.7-2.2,1.2-5,1.2-5c-2.8-2.2,1.3-5.2,1.3-5.2
				C63.3,14,67.2,12,67.2,12C65,9.7,68,7.6,68,7.6C66.3,5.5,69.8,4,69.8,4c-3.5-1.4,1-2.5,1-2.5l-4.5-0.8c0,0,0,0-3.5,0.9
				C59.6,6.7,50.1,22.2,45.5,42z"/>
		</g>
		<path fill="#C7C9C8" stroke="#A4A7A9" stroke-width="1.3312" stroke-miterlimit="10" d="M15.7,92.2c0,0,0.7-3.9-0.4-6.7l-6.7,7.6
			L8,93.9L15.7,92.2z"/>
		<path fill="#FFFFFF" stroke="#A4A7A9" stroke-width="1.3312" stroke-miterlimit="10" d="M4.4,107.2c0,0-3.8-0.8-3.7-2.6
			C0.8,101.4,8,93.9,8,93.9l7-2.4l0.7,0.7c0,0-2.3,2.2-1.3,3.5c1,1.4,4,2.6,9,0.6c4.9-1.9,24.7-14.8,25.9-14.8
			c1.2,0,1.4,0.9,1.3,1.5c-0.1,0.6-1.3,3.2-0.1,5.3c1.2,2.1,2.3,4.7,2.6,6c0.3,1.3-2.1,5.5-2.1,5.5s-6.2,2.1-11,3
			c-4.7,0.9-9.9,1.5-10.4,1.8c-0.5,0.3-1.1,0.9-2.1,1.1c-1,0.2-2.8,1-7.8,1.3c-4.9,0.3-8.3,0.4-8.3,0.4L4.4,107.2z"/>
		<path fill="#C7C9C8" stroke="#A4A7A9" stroke-width="1.3312" stroke-miterlimit="10" d="M49.3,81.6c-0.1,0-0.2,0-0.4,0.1
			c-4.2,2.7-18.6,11.7-19.6,12.4c-1.2,0.8-2.7,4.3-3.1,5.6c-0.4,1,0.7,4.6,1.2,6.1c0.1,0,0.1,0,0.2,0c1-0.2,1.6-0.7,2.1-1.1
			c0.5-0.3,5.7-0.9,10.4-1.8c4.7-0.9,11-3,11-3s2.4-4.2,2.1-5.5c-0.3-1.3-1.4-3.9-2.6-6c-1.2-2.1-0.1-4.7,0.1-5.3
			C50.7,82.5,50.5,81.6,49.3,81.6z"/>
		<path fill="#A4A7A9" stroke="#A4A7A9" stroke-width="1.3312" stroke-miterlimit="10" d="M16.9,105.3c0.1-0.4-12.2,0.1-12.9,0.2
			c-0.4,0-0.3,1-0.1,1.6c0.3,0.1,0.5,0.1,0.5,0.1l7,0.3c0,0,2-0.1,5.2-0.2C16.7,106.5,16.8,105.6,16.9,105.3z"/>
		<path fill="#FFFFFF" stroke="#A4A7A9" stroke-width="1.3312" stroke-miterlimit="10" d="M57,112.3c-1.9,0.2-3.8,0.1-4-0.9
			c-0.2-1.2-0.2-2.4,3.1-4.7c3.3-2.3,8.5-5.5,9.7-5.7c1.2-0.2,2.4-0.1,2.1,1.4c-0.5,2.2-1.1,7.3-3,8.6
			C62.9,112.3,59.4,112.1,57,112.3z"/>
		<path fill="#A4A7A9" stroke="#A4A7A9" stroke-width="1.3312" stroke-miterlimit="10" d="M50.4,99.5c0,0,0.8,3.9,4.6,3.7
			c3.9-0.2,4.8-3.3,5.1-4c0.3-0.7,0-2.4,0-2.4L50.4,99.5z"/>
		<path fill="#A4A7A9" stroke="#A4A7A9" stroke-width="1.3312" stroke-miterlimit="10" d="M47.6,101l8.4,8.1c0,0,1.3,2.4,2.4,1.6
			c1-0.8,1.1-0.8,1.2-1.6c0.2-0.7-1.3-7.6-1.3-7.6l-0.5,1l1,5.9l-2.1,0.4l-8.1-8.1L47.6,101z"/>
		<path fill="#A4A7A9" stroke="#A4A7A9" stroke-width="1.3312" stroke-miterlimit="10" d="M54.1,82.9l-0.6-3.4c0,0-2.1,0.2-2.3,1.1
			c-0.1,0.9-0.5,2,1.2,2.1C54.1,82.9,54.1,82.9,54.1,82.9z"/>
		<path fill="#A4A7A9" stroke="#A4A7A9" stroke-width="1.3312" stroke-miterlimit="10" d="M50.5,85.2c0,0,0.7-1.4,1.3,0.1
			c0.6,1.6,2.3,7.2,2.3,7.2L52.9,93L50.5,85.2z"/>
		<path fill="#A4A7A9" stroke="#A4A7A9" stroke-width="1.3312" stroke-miterlimit="10" d="M24.2,84.2c0,0-0.9-1.8-0.3-2.1
			c0.6-0.3,2.5,0.3,2.5,0.3l1.3-0.5l0.1,0.3l1.3,0.3l-0.6,1.6c0,0-0.3-0.1-1.3-0.3c-1-0.2-1-0.2-1-0.2l-0.6,0.6L24.2,84.2z"/>
		<path fill="#FFFFFF" stroke="#A4A7A9" stroke-width="1.3312" stroke-miterlimit="10" d="M56.7,76.6L39.1,48.5l-0.8-0.1l-1.5,1.4
			l-0.6,0.9l0.8,2.3l6,14.8c0,0,1.5,2.1,2,2.6c0.5,0.6,3.5,8.1,3.5,8.1L56.7,76.6z"/>
		<polygon fill="#A4A7A9" stroke="#A4A7A9" stroke-width="1.3312" stroke-miterlimit="10" points="37,48.9 24.5,80.1 23.6,80.7 
			36.2,48.4 		"/>
		<polygon fill="#A4A7A9" stroke="#A4A7A9" stroke-width="1.3312" stroke-miterlimit="10" points="15.6,86.4 31.5,60.7 32.2,58.3 
			15.3,85.5 		"/>
		<polygon fill="#A4A7A9" stroke="#A4A7A9" stroke-width="1.3312" stroke-miterlimit="10" points="27.8,91.2 23.5,80.8 24.2,80.5 
			28.7,91.5 		"/>
		<path fill="#A4A7A9" stroke="#A4A7A9" stroke-width="1.3312" stroke-miterlimit="10" d="M23.8,81.4c0,0,9.1-5,9.8-5.4
			c1.3-0.9,1.2-1.8,1-2.4c-0.2-0.6-5.1-7.9-5.1-7.9l-0.3,0.7c0,0,4.8,7,4.8,7.7c0,0.6-0.2,1.1-2.2,2.2c-1.7,0.9-8.3,4.4-8.3,4.4
			L23.8,81.4z"/>
		<path fill="#C7C9C8" stroke="#A4A7A9" stroke-width="1.3312" stroke-miterlimit="10" d="M33.6,80.6c0,0,2-0.8,1.6-2.4
			c-0.5-1.5-1.5-1.1-2-0.8c-0.5,0.3-1.2,0.7-1,1.8C32.4,80.4,32.9,80.4,33.6,80.6z"/>
		<polygon fill="#A4A7A9" stroke="#A4A7A9" stroke-width="1.3312" stroke-miterlimit="10" points="49.7,82.1 43.8,68.9 45.7,70 
			49.6,79.4 50.7,79 51.1,80.1 50.3,80.5 51.1,81.7 		"/>
		<polygon fill="#A4A7A9" stroke="#A4A7A9" stroke-width="1.3312" stroke-miterlimit="10" points="67.8,78.3 63.2,59.1 68.6,75.3 
			68.1,76.6 68.6,78 		"/>
		<polygon fill="#A4A7A9" stroke="#A4A7A9" stroke-width="1.3312" stroke-miterlimit="10" points="68.8,81.3 71.6,94.6 70.3,81.6 
			69.7,81.1 		"/>
		<path fill="#A4A7A9" stroke="#A4A7A9" stroke-width="1.3312" stroke-miterlimit="10" d="M67.8,81.7c0,0,2-0.7,2.3-0.8
			c0.3-0.1-1-3.1-1-3.1l-2.3,0.8L67.8,81.7z"/>
		<line fill="#A4A7A9" stroke="#A4A7A9" stroke-width="1.3312" stroke-miterlimit="10" x1="3.7" y1="45.7" x2="53.6" y2="48.7"/>
		<line fill="#A4A7A9" stroke="#A4A7A9" stroke-width="1.3312" stroke-miterlimit="10" x1="47" y1="36.5" x2="62" y2="37.2"/>
		<line fill="#A4A7A9" stroke="#A4A7A9" stroke-width="1.3312" stroke-miterlimit="10" x1="48.5" y1="31.5" x2="63.1" y2="31.9"/>
		<line fill="#A4A7A9" stroke="#A4A7A9" stroke-width="1.3312" stroke-miterlimit="10" x1="50.4" y1="26.2" x2="64" y2="26.4"/>
		<line fill="#A4A7A9" stroke="#A4A7A9" stroke-width="1.3312" stroke-miterlimit="10" x1="52.2" y1="21.7" x2="65.2" y2="21.3"/>
		<line fill="#A4A7A9" stroke="#A4A7A9" stroke-width="1.3312" stroke-miterlimit="10" x1="66.4" y1="16.1" x2="54.2" y2="17.3"/>
		<line fill="#A4A7A9" stroke="#A4A7A9" stroke-width="1.3312" stroke-miterlimit="10" x1="67" y1="12.2" x2="56.3" y2="13"/>
		<line fill="#A4A7A9" stroke="#A4A7A9" stroke-width="1.3312" stroke-miterlimit="10" x1="86.4" y1="66.5" x2="75.7" y2="68.5"/>
		<line fill="#A4A7A9" stroke="#A4A7A9" stroke-width="1.3312" stroke-miterlimit="10" x1="83.1" y1="63" x2="71.4" y2="64.9"/>
		<line fill="#A4A7A9" stroke="#A4A7A9" stroke-width="1.3312" stroke-miterlimit="10" x1="79.7" y1="59.1" x2="67.2" y2="60.9"/>
		<line fill="#A4A7A9" stroke="#A4A7A9" stroke-width="1.3312" stroke-miterlimit="10" x1="76.1" y1="55.9" x2="63.1" y2="57.2"/>
		<line fill="#A4A7A9" stroke="#A4A7A9" stroke-width="1.3312" stroke-miterlimit="10" x1="72.4" y1="53.1" x2="58.9" y2="53.5"/>
		<line fill="#A4A7A9" stroke="#A4A7A9" stroke-width="1.3312" stroke-miterlimit="10" x1="5.2" y1="46.8" x2="23.5" y2="80.8"/>
		<line fill="#A4A7A9" stroke="#A4A7A9" stroke-width="1.3312" stroke-miterlimit="10" x1="65.5" y1="49.4" x2="38" y2="82.9"/>
		<path fill="#FFFFFF" stroke="#A4A7A9" stroke-width="1.3312" stroke-miterlimit="10" d="M62,97.2c0.1-0.1,2.2-8,2.1-8.6
			c-0.2-0.5-0.8-1.2-2-0.7c-1.2,0.5-10.1,5.2-11.6,7c-1.5,1.8-2.4,4.5-1.1,4.6C50.7,99.6,61.4,98.2,62,97.2z"/>
		<polygon fill="#A4A7A9" stroke="#A4A7A9" stroke-width="1.3312" stroke-miterlimit="10" points="55.1,103.2 57.3,108.7 58,108.6 
			56,102.9 		"/>
		<path fill="#A4A7A9" stroke="#A4A7A9" stroke-width="1.3312" stroke-miterlimit="10" d="M38.5,46.6l-2.3-0.2l0,2
			c0,0,0.9,1.8,1.5,1.6c0.6-0.2,0.9-3.2,0.9-3.2L38.5,46.6z"/>
		<path fill="#A4A7A9" stroke="#A4A7A9" stroke-width="1.3312" stroke-miterlimit="10" d="M26.2,101.6c0,0.1,26.1-9.4,26.1-9.4
			l-1.4-2.4l-24.3,9C26.6,98.7,25.8,99.7,26.2,101.6z"/>
		<path fill="#A4A7A9" stroke="#A4A7A9" stroke-width="1.3312" stroke-miterlimit="10" d="M10.8,107.7c0,0,0.6,1.9-0.8,2.6
			c-1.4,0.8-2.6,0-2.9-0.6c-0.3-0.6-0.4-1.8,0-2.1C7.4,107.4,10.8,107.7,10.8,107.7z"/>
	</g>
</g>
</svg>
