<?xml version="1.0" encoding="utf-8"?>
<!-- Generator: Adobe Illustrator 19.2.0, SVG Export Plug-In . SVG Version: 6.00 Build 0)  -->
<svg version="1.1" id="Layer_1" xmlns="http://www.w3.org/2000/svg" xmlns:xlink="http://www.w3.org/1999/xlink" x="0px" y="0px"
	 width="175.9px" height="93.4px" viewBox="0 0 175.9 93.4" enable-background="new 0 0 175.9 93.4" xml:space="preserve">
<g>
	<path fill="none" stroke="#A4A7A9" stroke-width="1.1104" stroke-miterlimit="10" d="M1.7,92.3c0,0-3.2-3,1.1-9.1
		c2-2.9,4.1-5.7,6.1-8.6c3.7-5.3,7.5-10.5,11.3-15.7c4.4-6.1,8.8-12.1,13.3-18.1C37.6,35.4,41.8,30,46,24.6c2.7-3.5,5.5-7.1,8.8-10
		c0.5-0.5,1.2-1.3,1.8-1.6c1.7-0.7,4.3-0.5,6.2-0.7c1.4-0.2,2.8-0.3,4.2-0.4c2.8-0.3,5.6-0.6,8.4-0.9c7.9-0.9,15.8-1.7,23.7-2.6
		c8.5-0.9,17.1-1.9,25.6-2.8c7.1-0.8,14.3-1.6,21.4-2.3c3.6-0.4,7.2-0.8,10.9-1.1c0.1,0,0.3,0,0.4,0c3-0.2,15-2.5,16.4-1.2
		c1.4,1.2,5,3.7-6.8,7.7C155.2,12.5,92.5,34,90.7,34.9c-1.8,0.9-7.8,2.3-14.1,6.8c-6.2,4.5-41.8,27.6-56.8,41.1
		C4.9,96.4,1.7,92.3,1.7,92.3z"/>
	<path fill="#B0B2B3" d="M54.6,19L3.5,86l-0.6,5.3L7,90c0,0,17.4-14.8,25.6-21.4c8.2-6.6,32.6-23.7,38.4-27c5.8-3.4,10.9-6.7,15-8.5
		c4.1-1.7,47.5-15.8,53.4-17.4c5.9-1.5,33.5-11.5,33.5-11.5s-21.5,3-26.4,3.9c-4.9,0.9-30.8,2.9-41,3.9c-10.2,1.1-45.2,4.4-45.2,4.4
		l0.2,2.4l-2,1.1L54.6,19z"/>
	<polygon fill="#C7C9C8" stroke="#A4A7A9" stroke-width="1.1104" stroke-miterlimit="10" points="75.8,33 82.1,52.7 82.7,51.1 
		77.1,32.8 	"/>
	<polygon fill="#C7C9C8" stroke="#A4A7A9" stroke-width="1.1104" stroke-miterlimit="10" points="58.5,67.8 75.8,33 76.8,35.8 
		60.8,67.8 	"/>
	<path fill="#A4A7A9" d="M71.4,56.3c0,0-1-1-0.5-1.4c0.5-0.4,4.2-3.6,4.8-3.9c0.6-0.3,1-0.2,2.7,0c1.6,0.2,2.7,0.6,2.7,0.6
		s7.9,1.1,10.1,1.9c2.3,0.8,3.4,0.8,4.4,1.3c1,0.6,2.2,0.7,3.1,0.7c0.9,0,3.7,0.1,4.4,0.6c0.8,0.5,3.5,3.7,3.7,4.8
		c0.2,1.1,0.1,1.9-0.5,2.4c-0.6,0.5-1.1,0.3-1.3,0.9c-0.2,0.5-0.9,1.3-1.5,1.2c-0.5-0.1-1.7-0.9-1.7-0.9S98.6,65.3,98,66
		c-0.5,0.7-3.6,3.7-4.8,3.7c-1.1,0-4.4-2.1-6.1-3.4c-1.7-1.3-2.6-2-2.9-2.4c-0.3-0.5-0.3-0.5-0.3-0.5s-5.5-1.2-6-1.5
		c-0.5-0.2-3.1-0.5-3.1-0.5s-1.8,4.6-2.3,4.9c-0.5,0.3-4.7,1.8-5.8,1.5c-1.2-0.3-2.6-2-2.6-2s-0.7-0.5,0-1c0.7-0.5,1.1-1.2,1.4-0.8
		c0.4,0.5,1.9,1.2,1.9,1.2s1.1-1.3,1.6-1.2c0.5,0.1,0.5,0.1,0.5,0.1s-0.4-0.7,0.1-2.1c0.4-1.4,1-1.8,1-2.7
		C70.5,58.5,70.9,56.2,71.4,56.3z"/>
	<path fill="#A4A7A9" d="M74.4,50.9c0,0-1.1-3.1-3.9-2.5c-2.7,0.5-2.9,3.3-2.3,4.1c0.5,0.8,2.7,3.8,3.7,3.4
		C73,55.4,75,54.2,74.4,50.9z"/>
	<path fill="#FFFFFF" d="M71.8,49.4c0,0-2.9,0.4-3.3,2.7c0,0,1.3,3.8,3.2,2.2C73.6,52.7,73.3,52.7,71.8,49.4z"/>
	<line fill="none" stroke="#A4A7A9" stroke-width="1.1104" stroke-miterlimit="10" x1="139.4" y1="9.5" x2="89.6" y2="54.7"/>
	<path fill="none" stroke="#A4A7A9" stroke-width="1.1104" stroke-miterlimit="10" d="M70,15.5"/>
	<path fill="none" stroke="#A4A7A9" stroke-width="1.1104" stroke-miterlimit="10" d="M87.7,32.4"/>
	<path fill="none" stroke="#A4A7A9" stroke-width="1.1104" stroke-miterlimit="10" d="M86,13.9"/>
	<path fill="#A4A7A9" d="M82.7,53.4c0,0-2.7-3.2-1.4-3c1.3,0.2,6.7,3,6.7,3l0.7,1.5C88.6,54.9,85.1,55,82.7,53.4z"/>
	<polyline fill="none" stroke="#A4A7A9" stroke-width="1.1104" stroke-miterlimit="10" points="88,53.4 56.5,16.9 59.8,65.6 	"/>
	<path fill="#C7C9C8" stroke="#A4A7A9" stroke-width="1.1104" stroke-miterlimit="10" d="M109.4,59.4l-31-24L77.7,33L110,58.7
		C110,58.7,110.2,59.4,109.4,59.4z"/>
	<path fill="#C7C9C8" stroke="#A4A7A9" stroke-width="1.1104" stroke-miterlimit="10" d="M89,54.4c-1.2-2.4-9.3-19-9.8-20.1
		c-0.5-1.1-2.4-1.9-2.4-1.9S87.8,55,88,55.6c0,0-5.2,2.2-6.5,2.3c-1.3,0.1-2.8-0.4-4.5,0.1c-1.7,0.5-9,3.5-9,3.5s-1.5,2.5-2.1,3.1
		c-0.5,0.6-7.3,3.3-7.3,3.3l0.4,1.2l0.8-0.5l7-3.2c0,0,1.2-2.4,1.9-2.9c0.7-0.5,8-3,9-3.1c1.1-0.2,2.3,0.3,3.7,0
		c1.5-0.3,8.3-3.2,8.3-3.2S89,54.3,89,54.4z"/>
</g>
</svg>
