<?xml version="1.0" encoding="utf-8"?>
<!-- Generator: Adobe Illustrator 19.2.0, SVG Export Plug-In . SVG Version: 6.00 Build 0)  -->
<svg version="1.1" id="Layer_1" xmlns="http://www.w3.org/2000/svg" xmlns:xlink="http://www.w3.org/1999/xlink" x="0px" y="0px"
	 width="254px" height="154px" viewBox="0 0 254 154" enable-background="new 0 0 254 154" xml:space="preserve">
<g>
	<path fill="#FFFFFF" stroke="#B1B2B4" stroke-width="1.3312" stroke-miterlimit="10" d="M113.2,87.8c0,0-2.8-0.2-6.2-0.2
		c-3.4,0-10.6,0-14.3,0.3c-3.7,0.3-14,0.9-17.8,1.1C71.1,89.3,44.8,91.5,39,92c-5.8,0.5-14.2,1.1-14.2,1.1s-0.9,1.3-2.6,1.7
		c-1.7,0.5-16.1-2.4-16.1-2.4l0.7-30.9l3.8-0.5L1.2,47.4l8.6-1l20.1,12.8L38,74.7l-7.1,0.9c0,0,0.3,10.5,3.1,10.4
		c2.8-0.1,63-11.9,63-11.9S64.6,30.7,60,23.2c-4.6-7.5-12.8-20.8-12.3-21c0,0,6.3-2.2,8.5-1.2c2.2,1,68.5,66.1,68.5,66.1
		s12.1-3,23.4-1.8c0,0,9.9,0,17.3,2.3c7.4,2.3,13.8,5.2,15.5,6.2c1.7,1.1,2.6,2.7,1.8,3.9c-0.8,1.1-8.8,4.7-13,5.8
		c-4.1,1.1-17.9,3.7-17.9,3.7l35.2,21.3"/>
	<path fill="#FFFFFF" stroke="#B1B2B4" stroke-width="1.3312" stroke-miterlimit="10" d="M107,84.8c3.4,0,6.2,3.1,6.2,3.1l8.7,5.1
		c0,0,17.5,9.7,44,23.4c26.5,13.6,75.7,34.7,76.3,35.2c0.6,0.5,0.4,1.5,0.9,1.8c0.4,0.3,9-3.4,10-4.5c1-1.1-1.8-2.6-1.8-2.6
		l-64.2-37.9l-35.2-21.3c-4-2.4-8.1-4.8-12-7.4c-10.5-6.9-19.9-1.4-30.3,2.6l-2.6,1.8V84.8z"/>
	<g>
		<path fill="#B1B2B4" d="M130,68.8c4,8.6,11.3,9,19.8,8.5c0,0,2.5-2.5,2-6.3c-0.3-2.4-1.4-4.6-2.2-5.8c-0.9,0-1.5,0-1.5,0
			c-3.3-0.4-6.7-0.3-9.8-0.2l-3.4,0.3c-3.3,0.3-6.1,0.8-8,1.2C128.1,67,129.5,67.8,130,68.8z"/>
		<path fill="#B1B2B4" d="M232.2,147c6,2.7,9.9,4.4,10,4.5c0.6,0.5,0.4,1.5,0.9,1.8c0.4,0.3,9-3.4,10-4.5c1-1.1-1.8-2.6-1.8-2.6
			l-7.8-4.6C239.9,143.1,235.3,145.4,232.2,147z"/>
		<path fill="#B1B2B4" d="M10.1,61.2c-1.1,0.1-3.3,0.4-3.3,0.4L6.1,92.4c0,0,2.3,0.4,4,0.8V61.2z"/>
		<path fill="#B1B2B4" d="M151,65.3c0.8,1.7,2.2,4.9,2.5,7.6c0.4,3.9,1.3,3.6,2.9,4.1c1.6,0.5,12.9,0,12.9,0s2.6-4.1,2.6-7.3
			c-2-0.7-4.2-1.5-6.5-2.2C160.5,66,154.5,65.5,151,65.3z"/>
		<path fill="#B1B2B4" d="M47.7,2.1C47.6,2.2,48.5,4,50,6.6c3-0.8,7.1-1.8,9.9-2.4c-2.1-1.9-3.4-3.1-3.7-3.2
			C54-0.1,47.7,2.1,47.7,2.1z"/>
	</g>
	<polygon fill="none" stroke="#B1B2B4" stroke-width="1.3312" stroke-miterlimit="10" points="14.9,60.8 12.2,62.5 28.3,75.9 
		38,74.7 29.9,59.1 9.7,46.4 1.2,47.4 10.5,61 	"/>
	<line fill="none" stroke="#B1B2B4" stroke-width="1.3312" stroke-miterlimit="10" x1="97" y1="74.1" x2="124.7" y2="67"/>
</g>
</svg>
