<?xml version="1.0" encoding="utf-8"?>
<!-- Generator: Adobe Illustrator 19.2.0, SVG Export Plug-In . SVG Version: 6.00 Build 0)  -->
<svg version="1.1" id="Layer_1" xmlns="http://www.w3.org/2000/svg" xmlns:xlink="http://www.w3.org/1999/xlink" x="0px" y="0px"
	 width="201.9px" height="86.7px" viewBox="0 0 201.9 86.7" enable-background="new 0 0 201.9 86.7" xml:space="preserve">
<g>
	<polygon fill="#A4A7A9" stroke="#A4A7A9" stroke-width="1.3312" stroke-miterlimit="10" points="42.5,36.4 36.7,26.9 40.2,26.9 
		44.8,34.4 	"/>
	<path fill="#C7C9C8" stroke="#A4A7A9" stroke-width="1.3312" stroke-miterlimit="10" d="M12.8,24.7c0,0-1.3-1.1,0.6-1.9
		c1.9-0.8,4.9-1.7,10-1.3c5.1,0.3,35,3.9,38.4,4.4c3.3,0.6-11.5,4.6-11.5,4.6S15.3,25.1,12.8,24.7z"/>
	<path fill="#FFFFFF" stroke="#A4A7A9" stroke-width="1.3312" stroke-miterlimit="10" d="M0.9,47.9c0,0,9.2-6.4,17.3-7
		c8.1-0.6,17-0.7,19.2-1.5c2.2-0.9,12.2-11.1,17.7-12.5c5.5-1.4,6.6-1,14-1.1c4.8-0.1,13,2.6,20.3,4.8c5.3,1.5,10,3.1,12.7,4
		c6.4,2.2,10.3,3.3,20.1,2.1c9.8-1.2,23.8-2.8,26-4.2c2.2-1.4,6.2-8.2,7.5-11c1.3-2.9,9.1-20.2,9.4-20.1c0.3,0.1,15.5-0.6,15.5-0.6
		l-11.4,37.4l6.5,4l0.8,6.7l-5.9,2.1c0,0-12.7-3.1-16.6-3.5c-3.9-0.4-26.4,0.9-41.4,4.9c-14.9,4-21.7,4.9-25.1,7.1
		c-3.3,2.2-7.7,5.9-7.7,5.9l-0.1,8.8h-1.4c0,0-1.9-4.4-1.4-8.6c0,0-3.8-0.3-7.7-0.4c-11-0.3-22,1.2-33.1,1c-5.5-0.1-10.9,1-16.1-2.1
		c-5.2-3.1-8.4-6.1-9.7-9.6c-1.3-3.5-2.1-3.2-4.5-3.6C3.5,50-0.3,48.7,0.9,47.9z"/>
	<path fill="none" stroke="#A4A7A9" stroke-width="1.3312" stroke-miterlimit="10" d="M57.9,31.7h19.5c0,0,1.5-0.2,2.1,3.5
		c0.6,3.8,1.2,8.6,0.4,9.6c-0.8,1-8.6,11.8-11.3,13c-2.7,1.2-16.9,0.1-18,0c-1.1-0.1-1.8-0.2-1.9-2.1c-0.1-1.9,0-11.8,0-11.8"/>
	<path fill="#A4A7A9" stroke="#A4A7A9" stroke-width="1.3312" stroke-miterlimit="10" d="M54.3,27.1c-5.1,1.9-13,9.6-16.1,11.8
		c1.6,0.6,3.8,1.6,4.9,3.1c1.9,2.5,2.2,3.3,3.9,3.2c1.7-0.1,9.3-10.3,9.8-11.3c0.5-1,2-4.3,2.5-5.4C59.7,27.9,56.8,27.3,54.3,27.1z"
		/>
	<path fill="#A4A7A9" stroke="#A4A7A9" stroke-width="1.3312" stroke-miterlimit="10" d="M50.6,47.9l25-0.7l3-3.6
		c0,0,0.1-10.4-2.2-10.5c-2.3-0.1-16.5,0-16.5,0l-9.3,12.2V47.9z"/>
	<path fill="#A4A7A9" stroke="#A4A7A9" stroke-width="1.3312" stroke-miterlimit="10" d="M85.4,36.2c0,0-0.9-1.9,1.4-1.7
		c2.3,0.2,7.6,0.6,9,3.4c1.3,2.9,1.2,6,0.8,6.6c-0.4,0.7-4.5,0.6-6.3,0.7c-1.8,0.1-2.5,0-2.5,0L85.4,36.2z"/>
	<path fill="#C7C9C8" stroke="#A4A7A9" stroke-width="1.3312" stroke-miterlimit="10" d="M63.4,65c0,0,5,0.2,7.6-1.8
		c2.6-2,26.2-30.3,28.6-30.7c4-0.7,3.8-1.1,7.4-3l-20,0.4c0,0,5.3,2,5.3,3.2c0,1.1-4.2,5.6-7.1,9.4c-2.9,3.9-14.9,17.7-15.9,18.6
		c-1,0.9-4.1,1-4.7,1.2C64,62.5,62.8,63.8,63.4,65z"/>
	<path fill="#C7C9C8" stroke="#A4A7A9" stroke-width="1.3312" stroke-miterlimit="10" d="M166.4,42.8c0,0,21.1,2.3,24,2.2
		c2.9-0.1,9.3-2.3,10.4-3c1.1-0.7,0.1-1.7-2.1-1.6c-2.2,0.1-26.2-1.4-26.2-1.4S163.4,39.7,166.4,42.8z"/>
	<polyline fill="#A4A7A9" stroke="#A4A7A9" stroke-width="1.3312" stroke-miterlimit="10" points="177.9,9.7 172.9,9.7 162.9,38.3 
		169.3,38.1 	"/>
	<polygon fill="#A4A7A9" stroke="#A4A7A9" stroke-width="1.3312" stroke-miterlimit="10" points="62.2,74.6 62.2,72.1 66.6,64.8 
		64.4,64.9 60.4,72 60.4,74.6 	"/>
	<path fill="#A4A7A9" stroke="#A4A7A9" stroke-width="1.3312" stroke-miterlimit="10" d="M54.6,72.6c0,0,0.3-5.3,6-4.6
		c5.7,0.7,0.5,0,0.5,0l-0.5,10.8C60.6,78.7,53.6,79.2,54.6,72.6z"/>
	<path fill="#A4A7A9" stroke="#A4A7A9" stroke-width="1.3312" stroke-miterlimit="10" d="M25.8,76.2c0,0-3.5,3.8-0.9,7.3
		c2.7,3.5,6.3,1.7,7.2,1.3c0.9-0.3,3.2-5.3,1.3-7.3C31.5,75.6,29.5,74,25.8,76.2z"/>
	<path fill="#C7C9C8" stroke="#A4A7A9" stroke-width="1.3312" stroke-miterlimit="10" d="M23.9,72.6l3.9-6.6h2.6L27.1,72
		c0,0,3.9,7.7,3.8,8.4c-0.1,0.7-0.7,1.8-1.8,0C27.9,78.5,23.9,72.6,23.9,72.6z"/>
	<path fill="#A4A7A9" stroke="#A4A7A9" stroke-width="1.3312" stroke-miterlimit="10" d="M8.1,48.7c0,0-1-3.8,1.7-3.7
		c2.7,0.1,4.8-0.2,4.9,0.9c0.1,1.1-1.3,2.2-3.4,2.8C9.2,49.4,8.1,48.7,8.1,48.7z"/>
	<path fill="#A4A7A9" stroke="#A4A7A9" stroke-width="1.3312" stroke-miterlimit="10" d="M25.8,52.9c0,0,2.8-0.3,4.4-0.9
		c1.7-0.6,2.2-1.1,2.5-0.7c0.3,0.4,0,3.1,0,3.1s-0.7,0.6-2.5,0c-1.9-0.5-4.4-0.8-4.4-0.8V52.9z"/>
	<path fill="#A4A7A9" stroke="#A4A7A9" stroke-width="1.3312" stroke-miterlimit="10" d="M76.8,75.1c0,0-3.5,2.1-2.2,6.2
		c1.3,4.1,5.4,5.3,7.8,4.3c2.4-1,5.7-5.4,3.3-9.1C83.4,72.9,79.8,73.2,76.8,75.1z"/>
	<path fill="#C7C9C8" stroke="#A4A7A9" stroke-width="1.3312" stroke-miterlimit="10" d="M78.1,80.4c-0.9-4.5,7.2-5.6,6.8-0.4
		C84.5,84,78.9,84.6,78.1,80.4z"/>
	<path fill="#A4A7A9" stroke="#A4A7A9" stroke-width="1.3312" stroke-miterlimit="10" d="M61.1,67.9c0,0-5.1,1-5.2,4.9
		c-0.1,3.9,1.3,5.3,2.6,5.6c1.3,0.3,4.5,1.1,6.1-2.5c1.6-3.7-0.1-6.8-1.2-7.2C62.4,68.3,61.1,67.9,61.1,67.9z"/>
	<path fill="#C7C9C8" stroke="#A4A7A9" stroke-width="1.3312" stroke-miterlimit="10" d="M112.7,24c0,0,27.3-1.3,31.4-1.1
		c4.1,0.2,13.4,1.1,18.3,2c5,0.9,15.4,2.9,15.3,3.5c-0.1,0.7-1.3,1-4.5,1c-3.2,0-41.2,0-47.7,0c-6.4,0-65.9,0.8-65.9,0.8
		s-0.2-4.4,4.2-4.6C68.4,25.5,112.7,24,112.7,24z"/>
</g>
</svg>
