<?xml version="1.0" encoding="utf-8"?>
<!-- Generator: Adobe Illustrator 19.2.0, SVG Export Plug-In . SVG Version: 6.00 Build 0)  -->
<svg version="1.1" id="Layer_1" xmlns="http://www.w3.org/2000/svg" xmlns:xlink="http://www.w3.org/1999/xlink" x="0px" y="0px"
	 width="189.9px" height="68.5px" viewBox="0 0 189.9 68.5" enable-background="new 0 0 189.9 68.5" xml:space="preserve">
<g>
	<path fill="#A4A7A9" d="M141.2,42.4l45.5-0.7c0,0-6.5,4.1-9.9,4.8c-3.4,0.8-29.8,2.4-30.5,2.7c-0.6,0.3-5.6,3.3-5.6,3.3l-13.3,1.2
		l-21.9,1.7l2.2-3L139.2,42L141.2,42.4z"/>
	<path fill="#A4A7A9" d="M142.8,52.6c0,0-0.5,4.4,2.9,5.2c3.4,0.8,4.6-2.5,4.8-3.1c0.2-0.7-0.5-3.9-1.6-4.8
		c-1.1-0.9-3.5-0.9-4.9,0.7C142.5,52.2,142.8,52.6,142.8,52.6z"/>
	<path fill="#A4A7A9" d="M120.1,50.6l2.6,8.4h0.6c0,0-2.1,2.7-0.7,5.1c1.3,2.4,3.6,3,5.7,2.5c2.1-0.5,3-3.8,2.7-4.9
		c-0.3-1.1-0.8-2.3-0.8-2.3l0.9-0.4l-4-9.6l-3.4,1.1L120.1,50.6z"/>
	<path fill="#FFFFFF" stroke="#A4A7A9" stroke-width="1.3312" stroke-miterlimit="10" d="M132.2,20.3c0,0-4.4-2.9-13.1-3.7
		c-8.7-0.7-16.9-1.7-28.2,5.2C79.7,28.5,78.6,32,76.2,33.5c-2.4,1.5-6.4,2.4-6.4,2.4L39.2,48.8L17.2,30.8c0,0-1.1-1.3-4.6-0.4
		c-3.5,0.9-11.8,3.5-11.8,3.5l9,25.8l0.6,1.7l2.2,4.8c0,0,7,0.9,16.2,0c9.2-0.9,59.7-11.1,59.7-11.1s33.2-4.8,35.2-5
		c2-0.2,28.2-11.8,31.5-16.8c3.3-5,3.3-7,3.3-7l-2.8-9c0,0-5,0.6-8.5,0.9C143.8,18.6,132.2,20.3,132.2,20.3z"/>
	<path fill="#C7C9C8" stroke="#A4A7A9" stroke-width="1.3312" stroke-miterlimit="10" d="M49.4,65.9c0,0,0.7-3.4,0.8-3.4
		c0.1,0-19,3.3-19,3.3s-1.2,2,0.7,2.1C34,67.9,49.4,65.9,49.4,65.9z"/>
	<path fill="#C7C9C8" stroke="#A4A7A9" stroke-width="1.3312" stroke-miterlimit="10" d="M54.4,63.7c0,0,1.9,0.1,2.4-1.2
		c0.5-1.3,0.3-1.3,0.3-1.3l-3.1,0.6L54.4,63.7z"/>
	<path fill="#C7C9C8" stroke="#A4A7A9" stroke-width="1.3312" stroke-miterlimit="10" d="M89.5,50.8c0,0-3-0.4-5.2,0.7
		c-2.2,1.1-4.6,3.2-4.6,3.2l-24.9-7.8l2.4-2.2c0,0-0.4-0.5-1.1-0.4c-0.7,0.1-3.1-0.2-7.2-1.2c-4.2-1-14.2-4.1-14.2-4.1l12.8-5.2h6.4
		l51.1,8.1l16.6,1l6.8-3.1l2.1,2.5c0,0-22.9,8.8-24.7,9.2C103.9,51.9,97,52,97,52L89.5,50.8z"/>
	<path fill="#A4A7A9" stroke="#A4A7A9" stroke-width="1.3312" stroke-miterlimit="10" d="M85.6,43.1c0.3,0,4.5-2.8,7.2,1.1
		c2.7,4,2.7,4,2.7,4l-6.1,1.6L85.6,43.1z"/>
	<path fill="#A4A7A9" stroke="#A4A7A9" stroke-width="1.3312" stroke-miterlimit="10" d="M88.5,57.8l1-8.2l6.5-1.4
		c0,0-1.8,7.2-2.6,8.1C92.7,57.1,90.4,58,88.5,57.8z"/>
	<path fill="#A4A7A9" d="M98.3,53.7V56c0,0,2.9,3.1,1.4,6.7c-1.6,3.6-5.4,2.2-6.4,1c-1.1-1.2-2.9-6.1,1.6-7.6l-0.2-2l1.4-0.2
		c0,0-0.4,0.9,0,1.4c0.4,0.5,0.4,0.5,0.4,0.5l0.1-1.8L98.3,53.7z"/>
	<path fill="#A4A7A9" stroke="#A4A7A9" stroke-width="1.3312" stroke-miterlimit="10" d="M86,60.6c0,0,0.4-1,1.7-1.3
		c1.3-0.2,2.4-0.8,2.5-1.5l1.8-0.6c0,0-0.2,2-2.2,2.7C87.8,60.7,86,60.6,86,60.6z"/>
	<path fill="#A4A7A9" d="M131.8,20.1c-1.2-0.7-5.4-2.9-12.7-3.5c-2.9-0.2-5.8-0.5-8.7-0.5c-1.4,0.8-2.8,2-2.6,3.2
		c0.4,2.3,2.2,9.7,2.7,9.7c0.5,0,4-0.9,4-0.9s4.2-5.6,7.9-6.9C126.1,19.8,131.8,20.1,131.8,20.1z"/>
	<path fill="#A4A7A9" d="M97.3,32.9c2.9-1.1,8.1-1.9,8.6-2.6c0.5-0.7-0.9-3.1-1.9-8.1c-0.6-2.8,0.3-4.6,1.2-5.6
		c-4.3,0.6-9,2.1-14.3,5.3c-3.8,2.3-6.5,4.3-8.4,5.9c-1.1,2.1-0.9,4.6-0.3,5.5c0.9,1.1,4,2.2,6.8,2.4C91.7,35.7,94.4,34,97.3,32.9z"
		/>
	<path fill="#A4A7A9" d="M39.2,48.8L17.2,30.8c0,0-1.1-1.3-4.6-0.4c-3.5,0.9-11.8,3.5-11.8,3.5l9,25.8l0.6,1.7l0.1,0.3
		c5.3-2.3,29.6-13.2,30-13.4L39.2,48.8z"/>
	<path fill="#A4A7A9" d="M158.5,0c0,0,5.6,4.1,5.4,5.2c-0.1,1.1-5.1,13.6-5.1,13.6l-1-0.4C157.9,18.4,157.1-0.2,158.5,0z"/>
	<polygon fill="#FFFFFF" stroke="#A4A7A9" stroke-width="1.3312" stroke-miterlimit="10" points="146.8,44.2 186.5,42.6 188.1,41.3 
		147.2,41.3 142,42 138.6,43.7 	"/>
	<path fill="#A4A7A9" d="M159.6,24.1c0.5,0.3,8.8,11.7,8.6,13c-0.2,1.2-2.5,4.2-3.4,4.2c-0.9,0-6.4-17-6.4-17L159.6,24.1z"/>
	<path fill="#C7C9C8" stroke="#A4A7A9" stroke-width="1.3312" stroke-miterlimit="10" d="M0.9,55.4c0.1,0,11.3-3.9,11.3-3.9h30.1
		c0,0-0.2,0.4-1.3,1c-1.1,0.6-10,3.9-13.9,4.2c-3.9,0.3-20.8-0.9-20.8-0.9L0.9,55.4z"/>
	<path fill="#FFFFFF" stroke="#A4A7A9" stroke-width="1.3312" stroke-miterlimit="10" d="M37.2,36.6c0,0,5.6-3.7,9.2-3.8
		c3.7-0.1,5.9,0,5.9,0l34.1,5.4l18.8,3.1l1.4,1.7l-34.7-5.8l-18-2.9c0,0-3.4-0.2-4.1,0.3c-0.7,0.5-6.4,2.6-9.2,3.1
		c-2.8,0.6-6.5,1.1-6.5,1.1L37.2,36.6z"/>
	<path fill="#C7C9C8" stroke="#A4A7A9" stroke-width="1.3312" stroke-miterlimit="10" d="M153.1,21.6c0,0-1.4-5.6,3.4-5.3
		c4.8,0.3,8.2,1.1,8.7,1.6c0.4,0.5-5.1,6.8-6.4,7.1C157.4,25.3,153.8,25.2,153.1,21.6z"/>
	<path fill="#A4A7A9" d="M155.4,19.5c0,0-9.7-6.6-10.3-4c-0.6,2.6,1.1,10,2,10.2c0.9,0.3,8.7-4.6,8.7-4.6L155.4,19.5z"/>
</g>
</svg>
