<?xml version="1.0" encoding="utf-8"?>
<!-- Generator: Adobe Illustrator 19.2.0, SVG Export Plug-In . SVG Version: 6.00 Build 0)  -->
<svg version="1.1" id="Layer_1" xmlns="http://www.w3.org/2000/svg" xmlns:xlink="http://www.w3.org/1999/xlink" x="0px" y="0px"
	 width="97px" height="101px" viewBox="0 0 97 101" enable-background="new 0 0 97 101" xml:space="preserve">
<g>
	<path fill="#A4A7A9" d="M35.6,87.4c0,0-0.4,0-0.5,0.3c-0.1,0.3,0.2,1,0.2,1.6c0,0.6-0.2,2.6-0.7,3.5c-0.5,0.9-1.7,1.8-2.2,1.6
		c-0.5-0.2-0.6-0.1-0.6-0.1s-0.2,0.5-0.4,0.6C31.1,95,31.1,95,31.1,95s0.1,1.2-0.1,1.8c-0.2,0.6-0.3,0.8-0.5,1.3
		c-0.2,0.6-0.5,1.4-0.6,1.9c-0.1,0.5,0.1,0.9-0.2,0.9c-0.3,0.1-0.3,0.1-0.3,0.1s-0.8,0.1-1.2-0.1c-0.3-0.2-0.1-0.3,0.1-0.6
		c0.3-0.3,0.6-0.8,0.7-1.1c0.1-0.3,0.2-0.6,0.2-0.6l0.1,0c0,0,0.1-1.3,0.1-1.9c0-0.6,0.3-1.5,0.3-1.5s0-0.3,0.2-0.6
		c0.2-0.3,0.3-0.9,0.3-0.9l-0.2-0.1c0,0-0.5,0.7-0.7,0.8c-0.2,0-0.5-0.2-0.5-0.2l-0.5,0.4c0,0,0,1-0.3,1.6c-0.3,0.6-0.9,1.3-1,1.7
		c-0.1,0.4,0.2,1.2,0.2,1.4c0,0.1,0,0.4-0.3,0.5c-0.2,0.1-0.7,0-0.7,0s-0.3,0.2-0.6,0.2c-0.3,0-0.9-0.2-0.9-0.2l0.1-0.4
		c0,0,0.6-0.2,0.8-0.5c0.2-0.2,0.4-0.6,0.5-0.9c0-0.2,0.1-0.5,0.1-0.5l0.2,0c0,0,0.4-2.1,0.6-2.8c0.2-0.6,0.4-1,0.7-1.6
		c0.3-0.6,1.1-1.9,1.4-2c0.2-0.1,0.6-0.4,0.6-0.8c0-0.4,0.8-0.7,0.9-0.9c0.1-0.2,0.3-0.7-0.1-1c-0.3-0.3-0.8-0.3-0.8-0.4
		c-0.1-0.1-0.1-0.2-0.1-0.2s-0.4,0.3-0.9,0.3c-0.5,0-1.5-0.3-2-0.6c-0.5-0.2-0.5-0.2-0.7-0.2c-0.2,0-0.2-0.3-0.2-0.3s-0.3,0-0.4-0.1
		c-0.1-0.1-0.1-0.5-0.1-0.5l0.4-0.2l0.6-0.9l0.2,0.2c0,0-0.4,0.7-0.4,1c0,0.2,0.2,0.4,0.2,0.4s1.1,0.2,1.5,0.2
		c0.5,0,0.9,0.1,0.9,0.1s0.3-0.2,0.5-0.5c0.2-0.2,1.1-1,1.3-1.2c0.2-0.2,0.5-0.3,0.5-0.3l0.4,0.1c0,0,0-0.5-0.1-0.8
		c-0.1-0.3,0-0.5,0-0.5s-0.2-0.3-0.1-0.5c0.1-0.2,0.5-0.8,1.3-0.7c0.8,0.2,1,0.7,1.1,1.2c0,0.6-0.4,0.7-0.4,0.7l0,0.3
		c0,0,0.5,0.2,0.8,0.1c0.2-0.1,0.4-0.1,0.7,0.1c0.3,0.2,0.8,0.2,0.9,0.4c0.1,0.1,1,0.2,1,0.2s0-0.9,0-1.2c-0.1-0.4-0.1-0.9-0.1-0.9
		s-0.1-0.3-0.1-0.5c0-0.2,0.4-0.5,0.6-0.4c0.2,0.1,0.6,0.3,0.5,0.6c-0.1,0.3,0.1,0.2,0.1,0.2l-0.2,0.4c0,0,0.5,2,0.2,2.4
		C37.4,87,37.2,87,36.9,87c-0.3,0-0.1-0.1-0.3,0c-0.2,0.1-0.3,0.5-0.4,0.4C36,87.5,35.6,87.4,35.6,87.4z"/>
	<g>
		
			<line fill-rule="evenodd" clip-rule="evenodd" fill="none" stroke="#A4A7A9" stroke-width="1.3312" stroke-miterlimit="10" x1="29.8" y1="83.6" x2="2.1" y2="19.9"/>
		
			<line fill-rule="evenodd" clip-rule="evenodd" fill="none" stroke="#A4A7A9" stroke-width="1.3312" stroke-miterlimit="10" x1="6.7" y1="12" x2="30.3" y2="81.4"/>
		
			<polyline fill-rule="evenodd" clip-rule="evenodd" fill="none" stroke="#A4A7A9" stroke-width="1.3312" stroke-miterlimit="10" points="
			26.3,5.7 30.3,81.4 15,10.6 		"/>
		
			<line fill-rule="evenodd" clip-rule="evenodd" fill="none" stroke="#A4A7A9" stroke-width="1.3312" stroke-miterlimit="10" x1="31.6" y1="8.2" x2="30.3" y2="81.4"/>
		
			<line fill-rule="evenodd" clip-rule="evenodd" fill="none" stroke="#A4A7A9" stroke-width="1.3312" stroke-miterlimit="10" x1="40.2" y1="6.9" x2="30.4" y2="73.2"/>
		
			<line fill-rule="evenodd" clip-rule="evenodd" fill="none" stroke="#A4A7A9" stroke-width="1.3312" stroke-miterlimit="10" x1="45.9" y1="5" x2="29.5" y2="82.9"/>
		
			<line fill-rule="evenodd" clip-rule="evenodd" fill="none" stroke="#A4A7A9" stroke-width="1.3312" stroke-miterlimit="10" x1="94.5" y1="44.2" x2="37.5" y2="84.6"/>
		
			<line fill-rule="evenodd" clip-rule="evenodd" fill="none" stroke="#A4A7A9" stroke-width="1.3312" stroke-miterlimit="10" x1="87.4" y1="27.1" x2="36.6" y2="83.8"/>
		
			<line fill-rule="evenodd" clip-rule="evenodd" fill="none" stroke="#A4A7A9" stroke-width="1.3312" stroke-miterlimit="10" x1="78.5" y1="20.1" x2="37" y2="82.9"/>
		
			<line fill-rule="evenodd" clip-rule="evenodd" fill="none" stroke="#A4A7A9" stroke-width="1.3312" stroke-miterlimit="10" x1="59.5" y1="12.6" x2="37" y2="82.9"/>
		
			<line fill-rule="evenodd" clip-rule="evenodd" fill="none" stroke="#A4A7A9" stroke-width="1.3312" stroke-miterlimit="10" x1="69.8" y1="15.5" x2="37" y2="82.9"/>
		
			<line fill-rule="evenodd" clip-rule="evenodd" fill="none" stroke="#A4A7A9" stroke-width="1.3312" stroke-miterlimit="10" x1="91.8" y1="35.1" x2="37.6" y2="83.7"/>
	</g>
	<path fill-rule="evenodd" clip-rule="evenodd" fill="none" stroke="#A4A7A9" stroke-width="1.3312" stroke-miterlimit="10" d="
		M30.2,86l-0.1-4.9c0,0-0.3-0.5-0.4-0.1c-0.1,0.5-0.1,3.6-0.1,3.9c0.1,0.4,0.2,1.4,0.2,1.4l0.3-0.2c0,0-3.9-0.4-3.9-0.6
		c0-0.2,3.4-5.8,3.4-5.8"/>
	<path fill-rule="evenodd" clip-rule="evenodd" fill="#A4A7A9" stroke="#A4A7A9" stroke-width="1.3312" stroke-miterlimit="10" d="
		M93.9,44.9c0,0,1.1-1,1.5-2.3c0.5-1.4,0.5-1.2,0.6-2.2c0.1-1,0.4-2,0.2-2.4c-0.2-0.4-0.2-0.7-0.2-0.7s0.1-0.6-0.1-1.5
		c-0.2-0.9-0.6-1.5-0.6-1.5s-0.1-0.5-0.3-1.1c-0.1-0.6-0.6-1.7-0.9-2C94,31,94,31,94,31s-0.6-1.9-1.8-2.5c0,0-0.4-1.9-2-2.7
		c0,0-0.7-1.5-2.2-2.2c0,0-0.5-1.3-2.4-2.3c0,0-0.3-0.6-1.2-1.2c-0.8-0.7-1.4-0.8-1.4-0.8s-0.3-0.8-1.2-1.4
		c-0.9-0.6-1.5-0.7-1.5-0.7s-0.5-0.9-1.2-1.4c-0.8-0.4-1.5-0.6-1.5-0.6s-0.9-1-1.8-1.4c-0.9-0.4-1.2-0.5-1.2-0.5s-0.6-0.9-1.2-1.1
		c-0.6-0.3-1.6-0.5-1.6-0.5s-0.7-0.8-1.8-1.1c-1-0.3-1.3-0.3-1.3-0.3s-0.8-0.8-1.5-1C66.3,9.1,65.6,9,65.6,9s-0.7-0.8-1.6-1
		c-0.9-0.2-1.5-0.3-1.5-0.3S61.7,7,60.7,6.8c-1-0.2-1.2-0.1-1.2-0.1s-0.9-0.8-1.7-0.9c-0.8-0.2-1.4-0.1-1.4-0.1S56,5,55.1,4.7
		c-0.9-0.3-1.4-0.3-1.4-0.3s-0.5-0.5-1.7-0.8c-1.2-0.3-1.7-0.2-1.7-0.2s-0.5-0.5-1.7-0.8C47.2,2.4,47,2.5,47,2.5s-0.6-0.5-1.7-0.7
		c-1.1-0.2-1.6,0.1-1.6,0.1S42.7,1.3,42,1.3c-0.7-0.1-1.7,0.1-1.7,0.1S39.5,1,38.5,1C37.4,0.9,37.1,1,37.1,1S36.2,0.7,35,0.7
		c-1.2,0-1.5,0.4-1.5,0.4s-0.8-0.4-1.9-0.3c-1.2,0.1-1.4,0.4-1.4,0.4s-0.8-0.4-1.9-0.3c-1.1,0.1-1.6,0.5-1.6,0.5S26.1,1,24.9,1.2
		c-1.2,0.1-1.4,0.5-1.4,0.5s-0.9-0.3-1.9-0.1c-1,0.2-1.6,0.6-1.6,0.6s-0.6-0.4-1.8,0c-1.2,0.3-1.4,0.7-1.4,0.7S16,2.6,15,3
		c-1.1,0.4-1.3,0.9-1.3,0.9s-1-0.3-1.9,0.1s-1.3,0.9-1.3,0.9s-1-0.2-1.9,0.3c-0.9,0.5-1.3,1-1.3,1S6.3,6.2,5.3,7c-1,0.8-0.8,1-0.8,1
		S3.5,8.3,3,9c-0.5,0.6-0.7,1.4-0.7,1.4s-0.4-0.2-1.1,1c-0.6,1.2-0.4,1.5-0.4,1.5s-0.2,0.6-0.1,1.5c0.1,0.9,0.4,1.3,0.4,1.3
		s-0.1,1.2,0.1,2.5c0.3,1.3,1,1.8,1,1.8l0.4,0.2c0,0,0.1-2.5,2.2-4.6c0,0,0.7-1.2,2-1.6c0,0,0.6-0.8,2.8-1.4
		C11.9,11.9,20.1,10,24,9.3c3.9-0.7,7.7-1.3,9.6-1.4c1.9-0.1,3.3-0.3,3.3-0.3s1.6,0.1,2.4,0.1c0.8,0,1.1,0,1.1,0s1.3,0.4,1.8,0.3
		c0.5-0.1,1.5-0.4,1.5-0.4s0.9,0.3,1.5,0.4C45.8,8.2,46.8,8,46.8,8s0.5,0.3,1.3,0.5c0.8,0.2,1,0,1,0s0.5,0.5,2.6,0.7
		c0,0,0.7,0.8,1.7,1c0.9,0.2,1.3,0.2,1.3,0.2s0.6,0.7,1.5,1c1,0.2,1.8,0.2,1.8,0.2s0.7,0.6,1.6,0.8c0.9,0.2,1.3,0.2,1.3,0.2
		s0.5,0.4,1.3,0.7c0.8,0.3,1.7,0.4,1.7,0.4s0.7,0.7,1.2,0.8c0.5,0.2,1.4,0.3,1.4,0.3s0.4,0.4,1.4,0.8c1.1,0.4,1.3,0.4,1.3,0.4
		s0.5,0.5,1.3,0.8c0.8,0.3,1,0.3,1,0.3s0.7,0.8,1.6,1.1c0.9,0.4,1,0.4,1,0.4s0.4,0.6,1.2,1c0.8,0.4,1.4,0.6,1.4,0.6s0.3,0.6,0.8,0.9
		c0.5,0.3,1.2,0.5,1.2,0.5s0.4,0.7,1.4,1.3c1,0.6,1.1,0.5,1.1,0.5s0.5,0.7,1.3,1.3c0.9,0.6,1.1,0.6,1.1,0.6s0.1,0.5,1,1.2
		c0.9,0.7,1.2,0.7,1.2,0.7s0.3,0.5,0.9,1.2c0.6,0.7,1.1,0.9,1.1,0.9s0.2,0.5,0.7,1.2c0.5,0.7,1.3,1.1,1.3,1.1s0,0.6,0.5,1.2
		c0.5,0.7,1,1.1,1,1.1s-0.1,0.9,0.4,1.5c0.5,0.6,0.7,0.8,0.7,0.8s-0.1,0.4,0.3,1.4c0.4,1.1,0.8,1.3,0.8,1.3s0.9,2,0.8,2.3
		c0,0.3,0.2,0.4,0.2,0.4s-0.2,0.7-0.1,1.3c0,0-0.9,1.1-1,1.5C93.2,45,93.9,44.9,93.9,44.9z"/>
	<path fill-rule="evenodd" clip-rule="evenodd" fill="#C7C9C8" stroke="#A4A7A9" stroke-width="1.3312" stroke-miterlimit="10" d="
		M14.8,11.3l2-1.7c1.2-0.9,3.1-1.8,3.1-1.8C21,6.8,23,6.4,23,6.4c1.3-1.1,3.3-0.8,3.3-0.8c1.1-1.2,3.2-0.7,3.2-0.7
		c1.2-1,3.2-0.3,3.2-0.3C33.9,3.5,36,4.4,36,4.4c1.5-1,3.3,0.1,3.3,0.1c1.5-1,3.3,0.2,3.3,0.2C44,3.6,45.9,5,45.9,5
		c1.7-0.7,3.3,0.6,3.3,0.6c1.7-0.6,3.1,0.8,3.1,0.8c2.5-0.3,3.1,1,3.1,1c2.6-0.1,3.2,1.3,3.2,1.3s0.7-0.1,1.5,0.1
		c0.8,0.2,1.4,1.1,1.4,1.1s0.7-0.1,1.7,0.1c1,0.1,1.4,1,1.4,1s0.7,0,1.5,0.1c0.8,0.1,1.5,1.1,1.5,1.1s0.8-0.1,1.6,0.1
		c0.8,0.2,1.5,1.2,1.5,1.2s0.8,0.1,1.5,0.3c0.6,0.2,1.5,1.3,1.5,1.3s0.7,0,1.4,0.3c0.7,0.3,1.2,1.3,1.2,1.3s0.9,0.1,1.5,0.4
		c0.7,0.3,1.1,1.3,1.1,1.3s1,0.2,1.7,0.6c0.7,0.3,1,1.3,1,1.3s0.3,0,1.4,0.6c1.1,0.6,1,1.4,1,1.4s0.8,0.3,1.5,0.6
		c0.6,0.4,1,1.5,1,1.5s0.4,0,1.2,0.6c0.8,0.6,0.9,1.7,0.9,1.7s0.5,0.3,1.1,0.8c0.5,0.5,1,1.6,1,1.6s0.5,0.5,0.9,1
		c0.4,0.5,0.8,1.5,0.8,1.5s0,0-0.6-0.4c-0.6-0.4-1.2-1.3-1.5-1.7c-0.3-0.4-0.7-0.6-1-0.9c-0.3-0.4-0.5-0.7-1-1.2
		c-0.5-0.5-1.4-1.1-1.7-1.4c-0.3-0.4-0.3-0.5-0.8-0.8c-0.5-0.3-1.7-1-1.9-1.3c-0.3-0.4-0.4-0.7-0.6-0.9c-0.2-0.1-0.9-0.1-1.6-0.8
		c-0.7-0.8-1-0.8-1-0.8c-1.3-0.5-2.2-1.3-2.2-1.3s-0.5-0.3-1.4-0.6c-0.9-0.3-1.3-1.1-1.3-1.1s-1.1-0.2-1.7-0.4
		c-0.7-0.2-1.3-1.2-1.3-1.2c-0.4,0-2-0.6-2.2-0.9c-0.2-0.2-0.9-0.5-0.9-0.5c-1.3,0-2.5-1-2.5-1c-1.9-0.3-2.8-1.1-2.8-1.1
		c-2.2-0.1-3.2-1.3-3.2-1.3c-2.2-0.1-2.9-1.2-2.9-1.2c-1.2,0.2-3-0.8-3-0.8c-1.5-0.2-2.6-0.8-2.6-0.8c-1,0-2.8-0.8-2.8-0.8l-0.6,0.2
		c-0.1-0.1-0.2-0.1-0.2-0.1s-0.2,0.1-1,0C47.3,8.4,46.8,8,46.8,8s-1.1,0.2-1.7,0.1c-0.6-0.1-1.5-0.4-1.5-0.4S42.6,8,42.2,8.1
		c-0.5,0.1-1.8-0.3-1.8-0.3s-0.2,0-1.1,0c-0.8,0-2.4-0.1-2.4-0.1S35.5,7.9,33.6,8c-1.9,0.1-5.7,0.7-9.6,1.4
		C21.8,9.7,18,10.5,14.8,11.3z"/>
</g>
</svg>
