<?xml version="1.0" encoding="UTF-8" standalone="no"?>
<!-- Created with Inkscape (http://www.inkscape.org/) -->

<svg
   version="1.1"
   id="svg1"
   width="800"
   height="398"
   viewBox="0 0 800 398"
   sodipodi:docname="vapari.svg"
   inkscape:version="1.4 (86a8ad7, 2024-10-11)"
   xmlns:inkscape="http://www.inkscape.org/namespaces/inkscape"
   xmlns:sodipodi="http://sodipodi.sourceforge.net/DTD/sodipodi-0.dtd"
   xmlns="http://www.w3.org/2000/svg"
   xmlns:svg="http://www.w3.org/2000/svg">
  <defs
     id="defs1" />
  <sodipodi:namedview
     id="namedview1"
     pagecolor="#ffffff"
     bordercolor="#000000"
     borderopacity="0.25"
     inkscape:showpageshadow="2"
     inkscape:pageopacity="0.0"
     inkscape:pagecheckerboard="0"
     inkscape:deskcolor="#d1d1d1"
     showgrid="false"
     inkscape:zoom="1.71125"
     inkscape:cx="400"
     inkscape:cy="198.97736"
     inkscape:window-width="1920"
     inkscape:window-height="1009"
     inkscape:window-x="-8"
     inkscape:window-y="-8"
     inkscape:window-maximized="1"
     inkscape:current-layer="g9" />
  <g
     inkscape:groupmode="layer"
     inkscape:label="Image"
     id="g1">
    <g
       id="g9"
       style="display:inline"
       inkscape:label="g9">
      <path
         style="display:none;fill:#e2e2e2;fill-opacity:1"
         d="m 634,282.62244 c 0,-0.20765 0.7875,-0.99515 1.75,-1.75 1.58606,-1.24387 1.62143,-1.2085 0.37756,0.37756 C 634.82119,282.91575 634,283.44548 634,282.62244 Z m 5.116,-6.75 c -0.0638,-0.89515 0.559,-2.18775 1.384,-2.87244 1.03636,-0.8601 1.5,-0.89795 1.5,-0.12244 0,0.61734 -0.417,1.12244 -0.92668,1.12244 -0.50967,0 -1.13247,0.7875 -1.38399,1.75 -0.38584,1.47646 -0.47546,1.4956 -0.57333,0.12244 z m 25.44829,-7.16557 c 0.37553,-0.98622 0.93469,-1.54122 1.24258,-1.23333 0.30789,0.30789 6.4e-4,1.11479 -0.68278,1.79313 -0.98762,0.98026 -1.10248,0.8654 -0.5598,-0.5598 z m -3.02158,-1.63777 c -0.31644,-0.512 -0.11799,-1.21356 0.44098,-1.55902 0.55897,-0.34546 1.01631,0.0734 1.01631,0.9309 0,1.75653 -0.60006,2.01516 -1.45729,0.62812 z m 1.53624,-6.65243 c 0.048,-1.16495 0.28494,-1.4019 0.60416,-0.60417 0.28887,0.72187 0.25335,1.58438 -0.0789,1.91667 -0.33229,0.33229 -0.56864,-0.25834 -0.52522,-1.3125 z M 650,257.05902 c 0,-0.51754 0.44485,-1.21592 0.98855,-1.55194 0.56686,-0.35034 0.7345,0.0511 0.39301,0.94098 C 650.71677,258.18048 650,258.49745 650,257.05902 Z M 657,246 c 0.5887,-1.1 1.29537,-2 1.57037,-2 0.275,0 0.0183,0.9 -0.57037,2 -0.5887,1.1 -1.29537,2 -1.57037,2 -0.275,0 -0.0183,-0.9 0.57037,-2 z m -250.84211,-2 c 0,-1.375 0.22698,-1.9375 0.50439,-1.25 0.27741,0.6875 0.27741,1.8125 0,2.5 -0.27741,0.6875 -0.50439,0.125 -0.50439,-1.25 z M 659,242.05902 c 0,-0.51754 0.44485,-1.21592 0.98855,-1.55194 0.56686,-0.35034 0.7345,0.0511 0.39301,0.94098 C 659.71677,243.18048 659,243.49745 659,242.05902 Z m -382,-3.45203 c 0,-0.21616 0.675,-0.65203 1.5,-0.96862 0.825,-0.31658 1.5,-0.13972 1.5,0.39301 0,0.53274 -0.675,0.96862 -1.5,0.96862 -0.825,0 -1.5,-0.17686 -1.5,-0.39301 z m 399.56429,-4.90012 c 0.37553,-0.98622 0.93469,-1.54122 1.24258,-1.23333 0.30789,0.30789 6.4e-4,1.11479 -0.68278,1.79313 -0.98762,0.98026 -1.10248,0.8654 -0.5598,-0.5598 z M 665,233 c 0,-0.55 0.47656,-1 1.05902,-1 0.58246,0 0.7809,0.45 0.44098,1 -0.33992,0.55 -0.81648,1 -1.05902,1 C 665.19844,234 665,233.55 665,233 Z m -304.92105,-3.58333 c 0.048,-1.16495 0.28494,-1.4019 0.60416,-0.60417 0.28887,0.72187 0.25335,1.58437 -0.0789,1.91667 -0.33229,0.33229 -0.56864,-0.25834 -0.52522,-1.3125 z m 307.46376,-0.34757 c -0.31644,-0.512 -0.11799,-1.21356 0.44098,-1.55902 0.55897,-0.34546 1.01631,0.0734 1.01631,0.9309 0,1.75653 -0.60006,2.01516 -1.45729,0.62812 z M 223.07895,209.41667 c 0.048,-1.16495 0.28494,-1.4019 0.60416,-0.60417 0.28887,0.72187 0.25335,1.58437 -0.0789,1.91667 -0.3323,0.33229 -0.56864,-0.25834 -0.52522,-1.3125 z M 454,200.45578 c 0,-0.11599 0.675,-0.77109 1.5,-1.45578 1.21651,-1.00961 1.5,-0.96975 1.5,0.21089 0,0.80068 -0.675,1.45578 -1.5,1.45578 -0.825,0 -1.5,-0.0949 -1.5,-0.21089 z m -34,-26.84879 c 0,-0.21616 0.69837,-0.661 1.55194,-0.98855 0.88992,-0.34149 1.29132,-0.17385 0.94098,0.39301 C 421.90566,173.96166 420,174.4169 420,173.60699 Z m 127,-69.98455 c 0,-0.20765 0.7875,-0.99515 1.75,-1.75 1.58606,-1.24387 1.62143,-1.2085 0.37756,0.37756 C 547.82119,103.91575 547,104.44548 547,103.62244 Z m 45.8125,-29.305554 c 0.72187,-0.288871 1.58438,-0.253344 1.91667,0.07895 0.33229,0.332292 -0.25834,0.568641 -1.3125,0.52522 -1.16495,-0.04798 -1.4019,-0.284941 -0.60417,-0.604167 z"
         id="path22" />
      <path
         style="display:none;fill:#d9d9d9;fill-opacity:1"
         d="m 87.458881,377.93347 c -0.362533,-0.58659 -0.444683,-1.281 -0.182555,-1.54313 0.262128,-0.26213 0.743066,0.21781 1.068751,1.06653 0.676184,1.76211 0.09985,2.07206 -0.886196,0.4766 z M 555,350.54484 c 0,-0.77161 2.97626,-1.39226 3.3987,-0.70875 0.25451,0.41181 -0.40608,0.81419 -1.46798,0.89418 -1.0619,0.08 -1.93072,-0.003 -1.93072,-0.18543 z M 543.5,343 c 0.33992,-0.55 0.81648,-1 1.05902,-1 0.24254,0 0.44098,0.45 0.44098,1 0,0.55 -0.47656,1 -1.05902,1 -0.58246,0 -0.7809,-0.45 -0.44098,-1 z m 36.3125,-1.68311 c 0.72187,-0.28887 1.58438,-0.25335 1.91667,0.0789 0.33229,0.33229 -0.25834,0.56864 -1.3125,0.52522 -1.16495,-0.048 -1.4019,-0.28494 -0.60417,-0.60416 z M 594,336.28678 c 0.825,-0.30543 2.175,-1.0574 3,-1.67105 1.30346,-0.96954 1.32017,-0.88643 0.12756,0.63427 -0.75485,0.9625 -2.10485,1.71447 -3,1.67105 -1.36145,-0.066 -1.38231,-0.16974 -0.12756,-0.63427 z M 556.63837,334.5 c 0.31659,-0.825 0.75246,-1.5 0.96862,-1.5 0.21615,0 0.39301,0.675 0.39301,1.5 0,0.825 -0.43588,1.5 -0.96862,1.5 -0.53273,0 -0.70959,-0.675 -0.39301,-1.5 z M 599,334.62244 c 0,-0.20765 0.7875,-0.99515 1.75,-1.75 1.58606,-1.24387 1.62143,-1.2085 0.37756,0.37756 C 599.82119,334.91575 599,335.44548 599,334.62244 Z m -467.1875,-5.30555 c 0.72187,-0.28887 1.58437,-0.25335 1.91667,0.0789 0.33229,0.33229 -0.25834,0.56864 -1.3125,0.52522 -1.16495,-0.048 -1.4019,-0.28494 -0.60417,-0.60416 z m 475.53983,-27.3102 c -1.18122,-0.47659 -2.5051,-1.46057 -2.94196,-2.18661 -0.64573,-1.07319 -0.48603,-1.07019 0.85387,0.016 0.90648,0.73485 2.07071,1.07493 2.58717,0.75574 0.51646,-0.31919 1.19705,0.0921 1.51242,0.91391 0.31537,0.82184 0.47502,1.46574 0.35479,1.43087 -0.12024,-0.0349 -1.18507,-0.45332 -2.36629,-0.92992 z M 613,296 c 0,-0.55 0.47656,-1 1.05902,-1 0.58246,0 0.73793,-0.51953 0.34549,-1.15451 -0.43207,-0.6991 -0.27535,-0.8837 0.39731,-0.46797 0.61096,0.37759 0.85734,1.34712 0.54752,2.15451 C 614.71359,297.18876 613,297.5301 613,296 Z m -12.1875,-4.68311 c 0.72187,-0.28887 1.58438,-0.25335 1.91667,0.0789 0.33229,0.33229 -0.25834,0.56864 -1.3125,0.52522 -1.16495,-0.048 -1.4019,-0.28494 -0.60417,-0.60416 z M 577.25,289.96884 c -1.2375,-0.49742 -2.25,-1.10176 -2.25,-1.343 0,-0.74433 3.99816,0.56217 4.5746,1.49487 0.636,1.02907 0.60905,1.02731 -2.3246,-0.15187 z m 167.5625,-30.65195 c 0.72187,-0.28887 1.58438,-0.25335 1.91667,0.0789 0.33229,0.33229 -0.25834,0.56864 -1.3125,0.52522 -1.16495,-0.048 -1.4019,-0.28494 -0.60417,-0.60416 z M 325,249 c -0.90129,-0.58246 -1.02463,-0.97549 -0.30902,-0.98469 0.65504,-0.008 1.4691,0.43469 1.80902,0.98469 0.7673,1.24153 0.42112,1.24153 -1.5,0 z m 6,-0.94098 c 0,-0.51754 0.44485,-1.21592 0.98855,-1.55194 0.56686,-0.35034 0.7345,0.0511 0.39301,0.94098 C 331.71677,249.18048 331,249.49745 331,248.05902 Z m 63,-0.5 C 394,246.70156 394.45,246 395,246 c 0.55,0 1,0.42344 1,0.94098 0,0.51754 -0.45,1.2191 -1,1.55902 -0.55,0.33992 -1,-0.0835 -1,-0.94098 z m -4,-5.61804 c 0,-0.58246 0.45,-0.7809 1,-0.44098 0.55,0.33992 1,0.81648 1,1.05902 0,0.24254 -0.45,0.44098 -1,0.44098 -0.55,0 -1,-0.47656 -1,-1.05902 z M 352.5,241 c -0.33992,-0.55 -0.16803,-1 0.38197,-1 0.55,0 1.27811,0.45 1.61803,1 0.33992,0.55 0.16803,1 -0.38197,1 -0.55,0 -1.27811,-0.45 -1.61803,-1 z M 242,234 c 0,-0.55 0.47656,-1 1.05902,-1 0.58246,0 0.7809,0.45 0.44098,1 -0.33992,0.55 -0.81648,1 -1.05902,1 C 242.19844,235 242,234.55 242,234 Z m 101,-0.059 c 0,-0.58246 0.45,-0.7809 1,-0.44098 0.55,0.33992 1,0.81648 1,1.05902 0,0.24254 -0.45,0.44098 -1,0.44098 -0.55,0 -1,-0.47656 -1,-1.05902 z m 6.8125,-0.62409 c 0.72187,-0.28887 1.58438,-0.25335 1.91667,0.0789 0.33229,0.33229 -0.25834,0.56864 -1.3125,0.52522 -1.16495,-0.048 -1.4019,-0.28494 -0.60417,-0.60416 z m 15.79051,-3.15022 c -0.28327,-0.45834 0.12038,-0.83334 0.89699,-0.83334 0.77661,0 1.18026,0.375 0.89699,0.83334 C 367.11373,230.625 366.71008,231 366.5,231 c -0.21008,0 -0.61373,-0.375 -0.89699,-0.83333 z m 312.73032,-0.62268 c 0,-0.80081 0.38234,-1.21971 0.84965,-0.9309 0.4673,0.28881 0.59075,0.94401 0.27431,1.45601 -0.80862,1.30838 -1.12396,1.16106 -1.12396,-0.52511 z m -439,-0.87732 c 0,-0.73334 0.5571,-1.33334 1.238,-1.33334 0.68089,0 1.00775,0.6 0.72634,1.33334 C 241.01626,229.4 240.45917,230 240.05968,230 c -0.39949,0 -0.72635,-0.6 -0.72635,-1.33333 z m -7.07517,-2.44377 c 0.0949,-1.25971 0.66281,-1.80672 1.53021,-1.47387 0.75863,0.29111 1.00409,0.80941 0.54548,1.15177 -0.45862,0.34236 -1.14721,1.0056 -1.53022,1.47387 -0.383,0.46827 -0.62846,-0.05 -0.54547,-1.15177 z M 373,225.62244 c 0,-0.20765 0.7875,-0.99515 1.75,-1.75 1.58606,-1.24387 1.62143,-1.2085 0.37756,0.37756 C 373.82119,225.91575 373,226.44548 373,225.62244 Z M 358,223 c 0,-0.55 0.47656,-1 1.05902,-1 0.58246,0 0.7809,0.45 0.44098,1 -0.33992,0.55 -0.81648,1 -1.05902,1 C 358.19844,224 358,223.55 358,223 Z m 87.5,-32 c -0.33992,-0.55 -0.14148,-1 0.44098,-1 0.58246,0 1.05902,0.45 1.05902,1 0,0.55 -0.19844,1 -0.44098,1 -0.24254,0 -0.7191,-0.45 -1.05902,-1 z m 10.5,-6.05902 c 0,-0.58246 0.45,-0.7809 1,-0.44098 0.55,0.33992 1,0.81648 1,1.05902 0,0.24254 -0.45,0.44098 -1,0.44098 -0.55,0 -1,-0.47656 -1,-1.05902 z m 19.54271,-6.87188 c -0.31644,-0.512 -0.19299,-1.1672 0.27431,-1.45601 0.46731,-0.28881 0.84965,0.13009 0.84965,0.9309 0,1.68617 -0.31534,1.83349 -1.12396,0.52511 z M 497.5,178 c 0.33992,-0.55 0.81648,-1 1.05902,-1 0.24254,0 0.44098,0.45 0.44098,1 0,0.55 -0.47656,1 -1.05902,1 -0.58246,0 -0.7809,-0.45 -0.44098,-1 z M 616,127 c -0.90129,-0.58246 -1.02463,-0.97549 -0.30902,-0.98469 0.65504,-0.008 1.4691,0.43469 1.80902,0.98469 0.7673,1.24153 0.42112,1.24153 -1.5,0 z"
         id="path21" />
      <path
         style="display:none;fill:#bebebe;fill-opacity:1"
         d="m 50.8125,376.31689 c 0.721875,-0.28887 1.584375,-0.25335 1.916667,0.0789 0.332291,0.33229 -0.258334,0.56864 -1.3125,0.52522 -1.164943,-0.048 -1.4019,-0.28494 -0.604167,-0.60416 z m 495,-35 c 0.72187,-0.28887 1.58438,-0.25335 1.91667,0.0789 0.33229,0.33229 -0.25834,0.56864 -1.3125,0.52522 -1.16495,-0.048 -1.4019,-0.28494 -0.60417,-0.60416 z m 0,-9 c 0.72187,-0.28887 1.58438,-0.25335 1.91667,0.0789 0.33229,0.33229 -0.25834,0.56864 -1.3125,0.52522 -1.16495,-0.048 -1.4019,-0.28494 -0.60417,-0.60416 z m 119,-7 c 0.72187,-0.28887 1.58438,-0.25335 1.91667,0.0789 0.33229,0.33229 -0.25834,0.56864 -1.3125,0.52522 -1.16495,-0.048 -1.4019,-0.28494 -0.60417,-0.60416 z m -514.30242,-4.3332 c 0.34546,-0.55897 1.04702,-0.75742 1.55902,-0.44098 1.38704,0.85723 1.12841,1.45729 -0.62812,1.45729 -0.85746,0 -1.27636,-0.45734 -0.9309,-1.01631 z m 451.30242,-22.6668 c 0.72187,-0.28887 1.58438,-0.25335 1.91667,0.0789 0.33229,0.33229 -0.25834,0.56864 -1.3125,0.52522 -1.16495,-0.048 -1.4019,-0.28494 -0.60417,-0.60416 z M 304,248.10765 c 0,-0.67413 -0.51953,-0.9046 -1.15451,-0.51216 -0.74421,0.45995 -0.88179,0.27227 -0.38713,-0.52811 0.54526,-0.88225 1.07722,-0.9318 1.83784,-0.17118 0.58876,0.58876 0.76297,1.37797 0.38713,1.7538 C 304.3075,249.02583 304,248.78178 304,248.10765 Z m -17.42691,-0.98939 c -0.2359,-0.38169 0.66365,-0.7844 1.999,-0.89492 1.33535,-0.11051 2.42791,-0.0335 2.42791,0.17123 0,0.74336 -4.00965,1.39884 -4.42691,0.72369 z M 387,247 c 0,-0.55 0.47656,-1 1.05902,-1 0.58246,0 0.7809,0.45 0.44098,1 -0.33992,0.55 -0.81648,1 -1.05902,1 C 387.19844,248 387,247.55 387,247 Z m 8.5,-4 c -1.63041,-0.70061 -1.68751,-0.87242 -0.30902,-0.92971 0.93004,-0.0387 1.9691,0.37971 2.30902,0.92971 0.71066,1.14988 0.67591,1.14988 -2,0 z m -17.16667,-1.48412 c 0,-1.12339 0.32409,-1.21516 1.33334,-0.37756 C 380.4,241.74693 381,242.41479 381,242.62244 381,242.8301 380.4,243 379.66667,243 c -0.73334,0 -1.33334,-0.66786 -1.33334,-1.48412 z m -3.66666,-0.18255 C 373.73453,240.4012 373.83462,239 374.83333,239 c 0.45834,0 0.83334,0.675 0.83334,1.5 0,1.69935 -0.0731,1.76025 -1,0.83333 z M 382,239.94098 c 0,-0.58246 0.45,-0.7809 1,-0.44098 0.55,0.33992 1,0.81648 1,1.05902 0,0.24254 -0.45,0.44098 -1,0.44098 -0.55,0 -1,-0.47656 -1,-1.05902 z M 266,236 c -0.90129,-0.58246 -1.02463,-0.97549 -0.30902,-0.98469 0.65504,-0.008 1.4691,0.43469 1.80902,0.98469 0.7673,1.24153 0.42112,1.24153 -1.5,0 z m 103.60301,0.16667 c -0.28327,-0.45834 0.14017,-0.83334 0.94098,-0.83334 0.8008,0 1.45601,0.375 1.45601,0.83334 0,0.45833 -0.42344,0.83333 -0.94098,0.83333 -0.51754,0 -1.17275,-0.375 -1.45601,-0.83333 z m -17.06337,-2.51403 c -1.35152,-0.98825 -1.51799,-1.54799 -0.6246,-2.10013 0.66991,-0.41403 1.48808,-0.48272 1.81816,-0.15265 0.33007,0.33008 -0.0109,0.60014 -0.75766,0.60014 -0.87886,0 -0.67309,0.51789 0.58333,1.4682 1.06762,0.8075 1.68964,1.4825 1.38226,1.5 -0.30738,0.0175 -1.38805,-0.57451 -2.40149,-1.31556 z M 397,233 c 0,-0.55 0.47656,-1 1.05902,-1 0.58246,0 0.7809,0.45 0.44098,1 -0.33992,0.55 -0.81648,1 -1.05902,1 C 397.19844,234 397,233.55 397,233 Z m -5.5,-1 c 0.33992,-0.55 0.81648,-1 1.05902,-1 0.24254,0 0.44098,0.45 0.44098,1 0,0.55 -0.47656,1 -1.05902,1 -0.58246,0 -0.7809,-0.45 -0.44098,-1 z m -9.16667,-4.45601 c 0,-0.80081 0.38234,-1.21971 0.84965,-0.9309 0.4673,0.28881 0.59075,0.94401 0.27431,1.45601 -0.80862,1.30838 -1.12396,1.16106 -1.12396,-0.52511 z m -168.83888,-5.55012 c -0.99854,-1.10337 -1.63078,-2.1843 -1.40499,-2.40206 0.2258,-0.21776 1.21905,0.685 2.20722,2.00613 2.18239,2.91772 1.69683,3.15736 -0.80223,0.39593 z M 431.8125,205.31689 c 0.72187,-0.28887 1.58438,-0.25335 1.91667,0.0789 0.33229,0.33229 -0.25834,0.56864 -1.3125,0.52522 -1.16495,-0.048 -1.4019,-0.28494 -0.60417,-0.60416 z m -195,-14 c 0.72187,-0.28887 1.58437,-0.25335 1.91667,0.0789 0.33229,0.33229 -0.25834,0.56864 -1.3125,0.52522 -1.16495,-0.048 -1.4019,-0.28494 -0.60417,-0.60416 z"
         id="path20" />
      <path
         style="display:none;fill:#a7a7a7;fill-opacity:1"
         d="m 20.8125,374.31689 c 0.721875,-0.28887 1.584375,-0.25335 1.916667,0.0789 0.332291,0.33229 -0.258334,0.56864 -1.3125,0.52522 -1.164943,-0.048 -1.4019,-0.28494 -0.604167,-0.60416 z m 130,-43 c 0.72187,-0.28887 1.58437,-0.25335 1.91667,0.0789 0.33229,0.33229 -0.25834,0.56864 -1.3125,0.52522 -1.16495,-0.048 -1.4019,-0.28494 -0.60417,-0.60416 z m -16,-2 c 0.72187,-0.28887 1.58437,-0.25335 1.91667,0.0789 0.33229,0.33229 -0.25834,0.56864 -1.3125,0.52522 -1.16495,-0.048 -1.4019,-0.28494 -0.60417,-0.60416 z M 302.36254,248 c 0.18522,-1.375 0.62942,-2.3875 0.98711,-2.25 1.08744,0.41802 1.07369,0.67497 -0.14716,2.75 -1.10553,1.87901 -1.15634,1.84877 -0.83995,-0.5 z m 74.97079,-1.33333 c 0,-0.73334 0.59286,-1.33334 1.31746,-1.33334 0.9845,0 1.0378,0.33697 0.21089,1.33334 C 378.25307,247.4 377.66021,248 377.54422,248 c -0.11599,0 -0.21089,-0.6 -0.21089,-1.33333 z m 17.47917,-3.34978 c 0.72187,-0.28887 1.58438,-0.25335 1.91667,0.0789 0.33229,0.33229 -0.25834,0.56864 -1.3125,0.52522 -1.16495,-0.048 -1.4019,-0.28494 -0.60417,-0.60416 z m -125.35362,-3.38342 c -0.36253,-0.58659 -0.44468,-1.281 -0.18255,-1.54313 0.26212,-0.26213 0.74306,0.21781 1.06875,1.06653 0.67618,1.76211 0.0999,2.07206 -0.8862,0.4766 z M 244,234.05902 c 0,-0.51754 0.44485,-1.21592 0.98855,-1.55194 0.56686,-0.35034 0.7345,0.0511 0.39301,0.94098 C 244.71677,235.18048 244,235.49745 244,234.05902 Z"
         id="path19" />
      <path
         style="display:none;fill:#9d9d9d;fill-opacity:1"
         d="M 371.66667,251.33333 C 370.73453,250.4012 370.83462,249 371.83333,249 c 0.45834,0 0.83334,0.675 0.83334,1.5 0,1.69935 -0.0731,1.76025 -1,0.83333 z m -102.20779,-7.39986 c -0.36253,-0.58659 -0.44468,-1.281 -0.18255,-1.54313 0.26212,-0.26213 0.74306,0.21781 1.06875,1.06653 0.67618,1.76211 0.0999,2.07206 -0.8862,0.4766 z m -32.37993,-15.5168 c 0.048,-1.16495 0.28494,-1.4019 0.60416,-0.60417 0.28887,0.72187 0.25335,1.58437 -0.0789,1.91667 -0.3323,0.33229 -0.56864,-0.25834 -0.52522,-1.3125 z m -15,-15 c 0.048,-1.16495 0.28494,-1.4019 0.60416,-0.60417 0.28887,0.72187 0.25335,1.58437 -0.0789,1.91667 -0.3323,0.33229 -0.56864,-0.25834 -0.52522,-1.3125 z"
         id="path18" />
      <path
         style="display:none;fill:#949494;fill-opacity:1"
         d="m 272.33333,244.54399 c 0,-0.80081 0.38234,-1.21971 0.84965,-0.9309 0.4673,0.28881 0.59075,0.94401 0.27431,1.45601 -0.80862,1.30838 -1.12396,1.16106 -1.12396,-0.52511 z m 125.4,-5.66808 c 0.67834,-0.68342 1.48524,-0.99067 1.79313,-0.68278 0.30789,0.30789 -0.24711,0.86705 -1.23333,1.24258 -1.4252,0.54268 -1.54006,0.42782 -0.5598,-0.5598 z m -39.16904,-3.58278 c -0.54268,-1.4252 -0.42782,-1.54006 0.5598,-0.5598 0.68342,0.67834 0.99067,1.48524 0.68278,1.79313 -0.30789,0.30789 -0.86705,-0.24711 -1.24258,-1.23333 z M 341.15789,216 c 0,-1.375 0.22698,-1.9375 0.50439,-1.25 0.27741,0.6875 0.27741,1.8125 0,2.5 -0.27741,0.6875 -0.50439,0.125 -0.50439,-1.25 z"
         id="path17" />
      <path
         style="display:none;fill:#878787;fill-opacity:1"
         d="m 557,342 c -0.90129,-0.58246 -1.02463,-0.97549 -0.30902,-0.98469 0.65504,-0.008 1.4691,0.43469 1.80902,0.98469 0.7673,1.24153 0.42112,1.24153 -1.5,0 z m 100.45888,-78.06653 c -0.36253,-0.58659 -0.44468,-1.281 -0.18255,-1.54313 0.26212,-0.26213 0.74306,0.21781 1.06875,1.06653 0.67618,1.76211 0.0998,2.07206 -0.8862,0.4766 z M 346.8125,252.31689 c 0.72187,-0.28887 1.58438,-0.25335 1.91667,0.0789 0.33229,0.33229 -0.25834,0.56864 -1.3125,0.52522 -1.16495,-0.048 -1.4019,-0.28494 -0.60417,-0.60416 z M 362,252.05902 c 0,-0.51754 0.44485,-1.21592 0.98855,-1.55194 0.56686,-0.35034 0.7345,0.0511 0.39301,0.94098 C 362.71677,253.18048 362,253.49745 362,252.05902 Z M 324,247 c -1.2819,-0.82843 -1.24555,-0.9716 0.25,-0.98469 0.9625,-0.008 1.75,0.43469 1.75,0.98469 0,1.21961 -0.11279,1.21961 -2,0 z m -24.12756,-1.75 c -1.24387,-1.58606 -1.2085,-1.62143 0.37756,-0.37756 1.66575,1.30637 2.19548,2.12756 1.37244,2.12756 -0.20765,0 -0.99515,-0.7875 -1.75,-1.75 z m -21.36536,-0.23855 c -0.35034,-0.56686 0.0511,-0.7345 0.94098,-0.39301 1.73242,0.66479 2.04939,1.38156 0.61096,1.38156 -0.51754,0 -1.21592,-0.44485 -1.55194,-0.98855 z m 5.30542,0.30544 c 0.72187,-0.28887 1.58438,-0.25335 1.91667,0.0789 0.33229,0.33229 -0.25834,0.56864 -1.3125,0.52522 -1.16495,-0.048 -1.4019,-0.28494 -0.60417,-0.60416 z m -30.24821,-12.02376 c -0.54268,-1.4252 -0.42782,-1.54006 0.5598,-0.5598 0.68342,0.67834 0.99067,1.48524 0.68278,1.79313 -0.30789,0.30789 -0.86705,-0.24711 -1.24258,-1.23333 z M 241,233 c 0,-0.55 0.47656,-1 1.05902,-1 0.58246,0 0.7809,0.45 0.44098,1 -0.33992,0.55 -0.81648,1 -1.05902,1 C 241.19844,234 241,233.55 241,233 Z m -11,-6.05902 c 0,-0.58246 0.45,-0.7809 1,-0.44098 0.55,0.33992 1,0.81648 1,1.05902 0,0.24254 -0.45,0.44098 -1,0.44098 -0.55,0 -1,-0.47656 -1,-1.05902 z M 367,221 c 0,-0.55 0.47656,-1 1.05902,-1 0.58246,0 0.7809,0.45 0.44098,1 -0.33992,0.55 -0.81648,1 -1.05902,1 C 367.19844,222 367,221.55 367,221 Z m -13.39699,-2.83333 c -0.28327,-0.45834 0.14017,-0.83334 0.94098,-0.83334 0.8008,0 1.45601,0.375 1.45601,0.83334 0,0.45833 -0.42344,0.83333 -0.94098,0.83333 -0.51754,0 -1.17275,-0.375 -1.45601,-0.83333 z"
         id="path16" />
      <path
         style="display:none;fill:#727272;fill-opacity:1"
         d="m 321,250.94098 c 0,-0.58246 0.45,-0.7809 1,-0.44098 0.55,0.33992 1,0.81648 1,1.05902 0,0.24254 -0.45,0.44098 -1,0.44098 -0.55,0 -1,-0.47656 -1,-1.05902 z m 28.55887,-0.47278 C 348.49125,249.66069 348.09865,249 348.68643,249 c 0.58777,0 1.62888,0.675 2.31357,1.5 1.5572,1.87632 1.06734,1.86551 -1.44113,-0.0318 z m 44.17446,0.40771 c 0.67834,-0.68342 1.48524,-0.99067 1.79313,-0.68278 0.30789,0.30789 -0.24711,0.86705 -1.23333,1.24258 -1.4252,0.54268 -1.54006,0.42782 -0.5598,-0.5598 z m 30.34562,-0.45924 c 0.048,-1.16495 0.28494,-1.4019 0.60416,-0.60417 0.28887,0.72187 0.25335,1.58437 -0.0789,1.91667 -0.33229,0.33229 -0.56864,-0.25834 -0.52522,-1.3125 z M 292.5,249 c 0.33992,-0.55 0.81648,-1 1.05902,-1 0.24254,0 0.44098,0.45 0.44098,1 0,0.55 -0.47656,1 -1.05902,1 -0.58246,0 -0.7809,-0.45 -0.44098,-1 z m 52.125,-11.79775 c -0.27117,-0.43876 -0.0926,-1.44558 0.39672,-2.23739 0.67091,-1.08556 0.84829,-0.88935 0.72121,0.79775 -0.18286,2.42756 -0.36356,2.66025 -1.11793,1.43964 z m 25.83388,-4.26878 c -0.36253,-0.58659 -0.44468,-1.281 -0.18255,-1.54313 0.26212,-0.26213 0.74306,0.21781 1.06875,1.06653 0.67618,1.76211 0.0999,2.07206 -0.8862,0.4766 z m -7.37993,-3.5168 c 0.048,-1.16495 0.28494,-1.4019 0.60416,-0.60417 0.28887,0.72187 0.25335,1.58437 -0.0789,1.91667 -0.33229,0.33229 -0.56864,-0.25834 -0.52522,-1.3125 z m 128.48534,-54.7098 c 0.37553,-0.98622 0.93469,-1.54122 1.24258,-1.23333 0.30789,0.30789 6.4e-4,1.11479 -0.68278,1.79313 -0.98762,0.98026 -1.10248,0.8654 -0.5598,-0.5598 z M 691,90.622445 c 0,-0.207656 0.7875,-0.995156 1.75,-1.75 1.58606,-1.243871 1.62143,-1.208501 0.37756,0.377555 C 691.82119,90.915748 691,91.445479 691,90.622445 Z m 34,-21 c 0,-0.207656 0.7875,-0.995156 1.75,-1.75 1.58606,-1.243871 1.62143,-1.208501 0.37756,0.377555 C 725.82119,69.915748 725,70.445479 725,69.622445 Z M 701.8125,11.316886 c 0.72187,-0.288871 1.58438,-0.253344 1.91667,0.07895 0.33229,0.332292 -0.25834,0.568641 -1.3125,0.52522 -1.16495,-0.04798 -1.4019,-0.284941 -0.60417,-0.604167 z"
         id="path15" />
      <path
         style="display:none;fill:#707070;fill-opacity:1"
         d="m 639,273.62244 c 0,-0.20765 0.7875,-0.99515 1.75,-1.75 1.58606,-1.24387 1.62143,-1.2085 0.37756,0.37756 C 639.82119,273.91575 639,274.44548 639,273.62244 Z M 316.33333,251.54399 c 0,-0.80081 0.38234,-1.21971 0.84965,-0.9309 0.4673,0.28881 0.59075,0.94401 0.27431,1.45601 -0.80862,1.30838 -1.12396,1.16106 -1.12396,-0.52511 z M 364,251 c 0,-0.55 0.47656,-1 1.05902,-1 0.58246,0 0.7809,0.45 0.44098,1 -0.33992,0.55 -0.81648,1 -1.05902,1 C 364.19844,252 364,251.55 364,251 Z m -26,-0.37756 c 0,-0.20765 0.7875,-0.99515 1.75,-1.75 1.58606,-1.24387 1.62143,-1.2085 0.37756,0.37756 C 338.82119,250.91575 338,251.44548 338,250.62244 Z m 16.60301,-0.45577 c -0.28327,-0.45834 0.12038,-0.83334 0.89699,-0.83334 0.77661,0 1.18026,0.375 0.89699,0.83334 C 356.11373,250.625 355.71008,251 355.5,251 c -0.21008,0 -0.61373,-0.375 -0.89699,-0.83333 z M 275.87244,240.25 c -1.24387,-1.58606 -1.2085,-1.62143 0.37756,-0.37756 1.66575,1.30637 2.19548,2.12756 1.37244,2.12756 -0.20765,0 -0.99515,-0.7875 -1.75,-1.75 z M 359,233.05902 c 0,-0.51754 0.44485,-1.21592 0.98855,-1.55194 0.56686,-0.35034 0.7345,0.0511 0.39301,0.94098 C 359.71677,234.18048 359,234.49745 359,233.05902 Z M 222.28601,207.5 c 0.008,-2.75 0.20172,-3.75631 0.43157,-2.23625 0.22986,1.52006 0.22371,3.77006 -0.0136,5 -0.23736,1.22994 -0.42542,-0.0137 -0.41792,-2.76375 z"
         id="path14" />
      <path
         style="display:none;fill:#5d5d5d;fill-opacity:1"
         d="m 290.8125,258.31689 c 0.72187,-0.28887 1.58438,-0.25335 1.91667,0.0789 0.33229,0.33229 -0.25834,0.56864 -1.3125,0.52522 -1.16495,-0.048 -1.4019,-0.28494 -0.60417,-0.60416 z M 273.5,254 c -0.33992,-0.55 -0.16803,-1 0.38197,-1 0.55,0 1.27811,0.45 1.61803,1 0.33992,0.55 0.16803,1 -0.38197,1 -0.55,0 -1.27811,-0.45 -1.61803,-1 z m 12.37244,-6.75 c -1.24387,-1.58606 -1.2085,-1.62143 0.37756,-0.37756 1.66575,1.30637 2.19548,2.12756 1.37244,2.12756 -0.20765,0 -0.99515,-0.7875 -1.75,-1.75 z M 297,245 c 0,-0.55 0.47656,-1 1.05902,-1 0.58246,0 0.7809,0.45 0.44098,1 -0.33992,0.55 -0.81648,1 -1.05902,1 C 297.19844,246 297,245.55 297,245 Z m 102,0.60699 c 0,-0.21616 0.69837,-0.661 1.55194,-0.98855 0.88992,-0.34149 1.29132,-0.17385 0.94098,0.39301 C 400.90566,245.96166 399,246.4169 399,245.60699 Z M 263,244 c 0,-0.55 0.45,-1 1,-1 0.55,0 1,0.45 1,1 0,0.55 -0.45,1 -1,1 -0.55,0 -1,-0.45 -1,-1 z m -4.26667,-2.12409 c 0.67834,-0.68342 1.48524,-0.99067 1.79313,-0.68278 0.30789,0.30789 -0.24711,0.86705 -1.23333,1.24258 -1.4252,0.54268 -1.54006,0.42782 -0.5598,-0.5598 z M 238,235.03138 c 0,-0.53273 0.675,-0.70959 1.5,-0.39301 0.825,0.31659 1.5,0.75246 1.5,0.96862 0,0.21615 -0.675,0.39301 -1.5,0.39301 -0.825,0 -1.5,-0.43588 -1.5,-0.96862 z M 247.8,234.8 c 0.93333,-0.93333 1.46667,-0.93333 2.4,0 0.93333,0.93333 0.66667,1.2 -1.2,1.2 -1.86667,0 -2.13333,-0.26667 -1.2,-1.2 z M 221,226.94098 c 0,-0.58246 0.45,-0.7809 1,-0.44098 0.55,0.33992 1,0.81648 1,1.05902 0,0.24254 -0.45,0.44098 -1,0.44098 -0.55,0 -1,-0.47656 -1,-1.05902 z M 350.5,226 c 0.33992,-0.55 0.81648,-1 1.05902,-1 0.24254,0 0.44098,0.45 0.44098,1 0,0.55 -0.47656,1 -1.05902,1 -0.58246,0 -0.7809,-0.45 -0.44098,-1 z"
         id="path13" />
      <path
         style="display:none;fill:#484848;fill-opacity:1"
         d="m 44.8125,376.31689 c 0.721875,-0.28887 1.584375,-0.25335 1.916667,0.0789 0.332291,0.33229 -0.258334,0.56864 -1.3125,0.52522 -1.164943,-0.048 -1.4019,-0.28494 -0.604167,-0.60416 z m 253,-117 c 0.72187,-0.28887 1.58438,-0.25335 1.91667,0.0789 0.33229,0.33229 -0.25834,0.56864 -1.3125,0.52522 -1.16495,-0.048 -1.4019,-0.28494 -0.60417,-0.60416 z m -20,-3 c 0.72187,-0.28887 1.58438,-0.25335 1.91667,0.0789 0.33229,0.33229 -0.25834,0.56864 -1.3125,0.52522 -1.16495,-0.048 -1.4019,-0.28494 -0.60417,-0.60416 z m 80.80059,-4.49987 c 0.28881,-0.4673 0.94401,-0.59075 1.45601,-0.27431 1.30838,0.80862 1.16106,1.12396 -0.52511,1.12396 -0.80081,0 -1.21971,-0.38234 -0.9309,-0.84965 z M 347.5,240 c 0.33992,-0.55 0.81648,-1 1.05902,-1 0.24254,0 0.44098,0.45 0.44098,1 0,0.55 -0.47656,1 -1.05902,1 -0.58246,0 -0.7809,-0.45 -0.44098,-1 z m -86,-4 c 0.33992,-0.55 0.81648,-1 1.05902,-1 0.24254,0 0.44098,0.45 0.44098,1 0,0.55 -0.47656,1 -1.05902,1 -0.58246,0 -0.7809,-0.45 -0.44098,-1 z"
         id="path12" />
      <path
         style="display:none;fill:#444444;fill-opacity:1"
         d="m 392.56429,248.70687 c 0.37553,-0.98622 0.93469,-1.54122 1.24258,-1.23333 0.30789,0.30789 6.4e-4,1.11479 -0.68278,1.79313 -0.98762,0.98026 -1.10248,0.8654 -0.5598,-0.5598 z M 202.50708,217.01145 c -0.35034,-0.56686 0.0511,-0.7345 0.94098,-0.39301 1.73242,0.66479 2.04939,1.38156 0.61096,1.38156 -0.51754,0 -1.21592,-0.44485 -1.55194,-0.98855 z"
         id="path11" />
      <path
         style="display:inline;fill:#333333;fill-opacity:1;opacity:1"
         d="m 78,383.91678 c -12.367656,-2.93461 -45.643467,-6.93202 -57.625,-6.92246 -12.1764086,0.01 -16.6495941,-1.73463 -10.625,-4.14328 14.139567,-5.65302 24.925187,-9.71265 29.25,-11.00947 1.925,-0.57723 4.049743,-1.49723 4.721651,-2.04446 0.671908,-0.54722 2.696908,-1.36375 4.5,-1.81451 2.812928,-0.70322 13.784056,-4.98472 20.278349,-7.91366 1.1,-0.4961 2.9,-1.13774 4,-1.42586 1.1,-0.28811 4.925,-1.63224 8.5,-2.98694 3.575,-1.3547 8.075,-3.01766 10,-3.69548 3.842716,-1.35306 9.08042,-3.38193 19,-7.35982 3.575,-1.43362 6.97798,-2.60529 7.56217,-2.60371 0.58419,0.002 2.92496,-0.89713 5.20169,-1.99713 2.27674,-1.1 4.72377,-2.01527 5.43783,-2.03393 0.71407,-0.0187 3.09831,-0.90339 5.29831,-1.96607 2.2,-1.06268 4.61373,-1.94741 5.36385,-1.96607 1.65415,-0.0412 8.49197,-3.67994 12.73054,-6.77463 1.70192,-1.24262 3.83942,-2.2593 4.75,-2.2593 0.91059,0 1.65561,-0.35851 1.65561,-0.7967 0,-0.43818 3.7125,-2.70948 8.25,-5.04733 4.5375,-2.33785 11.4,-6.04074 15.25,-8.22863 3.85,-2.18789 7.7875,-4.24407 8.75,-4.56929 0.9625,-0.32522 1.75,-0.98883 1.75,-1.47468 0,-0.48585 0.7875,-0.89338 1.75,-0.90561 0.9625,-0.0122 2.875,-0.90222 4.25,-1.97776 1.375,-1.07554 2.79427,-1.96553 3.15393,-1.97776 0.35967,-0.0122 3.50967,-1.65013 7,-3.63978 6.37308,-3.63293 12.17369,-6.84416 22.30151,-12.34616 8.44396,-4.58723 8.94515,-4.84917 10.54456,-5.51101 0.825,-0.34139 3.3,-1.72296 5.5,-3.07016 2.2,-1.3472 5.8,-3.34556 8,-4.4408 2.2,-1.09523 5.125,-2.90214 6.5,-4.01534 2.44626,-1.98049 2.45828,-2.05597 0.55887,-3.51149 C 260.49125,252.66937 258.94797,252 258.12937,252 254.31775,252 228.77796,241.7908 223,237.95749 c -0.825,-0.54733 -2.68448,-1.55374 -4.13218,-2.23646 C 208.20393,230.69205 195.18087,214.9125 196.72695,208.89379 197.55938,205.65324 201.07334,201 202.68806,201 203.40963,201 204,200.54418 204,199.98706 c 0,-3.0082 19.5006,-9.13121 35.38752,-11.11136 5.01186,-0.62468 9.78748,-1.68802 10.61248,-2.36297 0.825,-0.67495 4.05963,-2.41643 7.18807,-3.86995 4.45009,-2.06759 7.21926,-2.64278 12.72325,-2.64278 6.96199,0 8.94036,0.58704 20.58868,6.10925 2.2,1.04297 4.41457,1.89506 4.92126,1.89353 0.50669,-0.002 1.63169,0.62655 2.5,1.39574 1.41012,1.24915 5.1778,3.50642 10.69173,6.40557 1.03786,0.54569 5.37451,2.66326 9.63701,4.70572 4.2625,2.04246 7.75,4.01551 7.75,4.38456 0,1.0757 -13.79027,0.10545 -22.5,-1.58304 -4.4,-0.853 -10.025,-1.89777 -12.5,-2.32171 -2.475,-0.42395 -7.5459,-1.69068 -11.26866,-2.81497 -3.72276,-1.12428 -6.98609,-2.06833 -7.25184,-2.09788 -4.41198,-0.49056 -8.63997,-1.5274 -9.07076,-2.22443 -0.30082,-0.48673 -0.91754,-0.65592 -1.3705,-0.37598 -0.45295,0.27995 -3.45936,-0.33288 -6.6809,-1.36183 -6.24749,-1.99543 -13.13112,-1.99514 -25.35734,0.001 -10.28737,1.67965 -10.19515,1.62935 -9.57221,5.22096 0.30177,1.73989 0.26855,2.48843 -0.0738,1.66343 -1.4897,-3.58962 -2.25565,-3.76378 -8.0893,-1.83924 -6.0462,1.99472 -12.26469,7.053 -12.26469,9.97647 0,0.95965 -0.40775,1.99682 -0.90612,2.30483 -1.50641,0.93101 -0.0467,4.33709 2.09919,4.89826 1.10508,0.28898 1.70956,1.00829 1.34416,1.59951 -0.3652,0.59091 0.15203,1.38081 1.14939,1.75534 0.99736,0.37453 2.30761,1.3401 2.91168,2.14571 1.15824,1.5447 3.84713,0.68894 2.85899,-0.9099 -0.31643,-0.51199 0.12623,-0.9309 0.98369,-0.9309 0.85746,0 1.50573,0.3375 1.4406,0.75 -0.35512,2.2491 0.24596,4.28921 1.10697,3.75708 0.56686,-0.35034 0.7345,0.0511 0.39301,0.94098 -0.41797,1.08921 0.0111,1.55194 1.4391,1.55194 1.42842,0 2.57761,-1.24015 3.85699,-4.16229 l 1.82235,-4.16229 0.5,4.41229 c 0.46363,4.09134 0.71822,4.42068 3.5,4.52758 5.07713,0.19512 5.63903,0.35073 5,1.38471 -0.33992,0.55 0.0677,1 0.9058,1 1.85032,0 3.5942,2.81944 3.5942,5.81095 0,0.44602 2.24898,1.38735 4.99774,2.09183 2.74875,0.70449 5.25031,1.68956 5.55902,2.18905 0.93181,1.50771 2.42291,1.01877 1.80487,-0.59183 -0.3684,-0.96003 0.0187,-1.5 1.07522,-1.5 0.90795,0 1.5186,0.64549 1.35699,1.43442 -0.30522,1.48999 -0.14697,1.56558 3.27759,1.56558 1.90896,0 1.94444,-0.12698 0.45238,-1.61905 -2.06866,-2.06866 -1.30653,-2.87022 1.36804,-1.43883 1.77312,0.94895 1.97711,0.85491 1.45111,-0.66898 -0.54273,-1.57237 -0.44538,-1.55941 0.85971,0.11446 0.80945,1.03818 2.10749,1.67368 2.88453,1.41223 0.77704,-0.26145 1.96099,0.23913 2.631,1.1124 1.05953,1.38098 1.22234,1.27017 1.25,-0.85079 l 0.0318,-2.43856 2,2.14675 c 1.1,1.18071 2,2.61556 2,3.18856 0,0.57299 0.75,1.04181 1.66667,1.04181 2.66632,0 0.84124,1.08079 -2.22278,1.3163 -1.53307,0.11783 -2.98485,0.80658 -3.22617,1.53055 -0.27312,0.81934 0.26367,1.2265 1.42175,1.07842 1.02329,-0.13084 2.98553,0.22677 4.36053,0.79469 1.375,0.56792 5.3125,1.35745 8.75,1.7545 4.92691,0.56909 6.25644,0.43651 6.28041,-0.62627 0.0199,-0.88086 0.38485,-0.73957 1.05292,0.40758 0.7412,1.27274 1.72526,1.57939 3.57692,1.11465 1.65795,-0.41611 2.84862,-0.16509 3.39271,0.71527 1.27487,2.06279 2.25766,0.36322 1.07154,-1.85306 -0.91612,-1.71178 -0.75006,-1.88371 1.41898,-1.46907 C 296.90157,246.21434 298.06452,248 296,248 c -1.77958,0 -1.05879,1.75136 0.93542,2.27286 1.11897,0.29262 2.16034,-0.08 2.46861,-0.88337 0.85026,-2.21573 2.81166,-1.64442 2.09597,0.61051 -0.49505,1.55976 -0.1797,2 1.43261,2 1.40072,0 2.06739,-0.64494 2.06739,-2 0,-1.11111 0.66667,-2 1.5,-2 0.825,0 1.5,-0.45 1.5,-1 0,-0.55 0.675,-1 1.5,-1 1.81491,0 1.99651,1.65601 0.25,2.27976 -1.68221,0.60079 -0.83061,1.29941 2.58379,2.11965 1.85868,0.44651 2.6126,0.32286 2.19098,-0.35933 C 314.17123,249.46804 314.32723,249 314.87143,249 c 0.54421,0 1.13327,1.0079 1.30902,2.23978 0.17575,1.23189 1.16034,2.40014 2.18798,2.59614 1.16004,0.22124 1.61158,-0.0592 1.19098,-0.73979 C 319.1235,252.39081 319.99365,252 322,252 c 1.85741,0 2.86409,-0.4109 2.48992,-1.01631 -0.34546,-0.55897 -1.04702,-0.75742 -1.55902,-0.44098 -0.51199,0.31643 -0.93779,-0.0137 -0.94621,-0.73369 -0.0122,-1.04276 -0.19018,-1.03305 -0.875,0.0477 -0.63762,1.00629 -1.047,1.05369 -1.58483,0.18347 -0.39882,-0.64531 -0.4695,-1.42892 -0.15706,-1.74136 0.77187,-0.77187 6.6322,1.7221 6.6322,2.82245 0,1.67793 1.70094,0.86614 2.87331,-1.37132 1.16529,-2.22396 1.17416,-2.22486 0.76687,-0.0781 -0.36525,1.92508 0.14874,2.24898 4.52369,2.85069 5.53388,0.7611 9.63364,-0.50361 13.62569,-4.20332 2.52538,-2.34044 4.85307,-3.16804 3.71044,-1.31922 -0.34845,0.56381 0.46184,1 1.85765,1 1.36163,0 2.62568,-0.40567 2.80902,-0.90148 0.18333,-0.49581 0.91357,-0.27081 1.62276,0.5 1.0869,1.18135 0.7204,1.40148 -2.33334,1.40148 -3.85544,0 -4.29954,1.49569 -1.018,3.42856 1.34828,0.79415 1.93674,0.74794 2.27381,-0.17856 0.25012,-0.6875 0.89382,-1.25 1.43045,-1.25 0.53663,0 0.72919,0.39884 0.42791,0.88631 -0.30127,0.48747 0.45967,1.15099 1.69099,1.47448 1.23131,0.3235 2.38875,0.14966 2.57208,-0.38631 0.18334,-0.53596 1.37269,-0.97448 2.64301,-0.97448 1.27033,0 2.59521,-0.74407 2.94419,-1.6535 0.57822,-1.50683 0.75166,-1.49328 1.95528,0.15278 0.72643,0.99345 1.78824,1.51736 2.35958,1.16426 0.57962,-0.35823 0.9782,0.12678 0.90171,1.09722 -0.0754,0.95658 0.5379,1.73924 1.3629,1.73924 1.0187,0 1.43859,-0.88969 1.30862,-2.77279 -0.11382,-1.64893 0.21745,-2.52011 0.8173,-2.14938 0.55478,0.34287 1.25589,-0.32188 1.55802,-1.47721 C 378.98607,246.94528 379.85578,246 380.61663,246 381.37748,246 382,245.325 382,244.5 c 0,-2.19751 1.68028,-1.8306 2.28975,0.5 0.38794,1.48349 0.0307,2 -1.38337,2 -1.04851,0 -1.90638,0.40186 -1.90638,0.89301 0,1.34672 3.40891,2.38025 3.81662,1.15714 0.21075,-0.63226 1.49896,-0.24956 3.17344,0.94277 3.27185,2.32976 4.02109,2.41475 7.46289,0.84656 1.46049,-0.66544 2.54705,-1.99147 2.54705,-3.1084 0,-1.58908 0.47017,-1.82989 2.55242,-1.30728 2.29657,0.5764 2.44693,0.4435 1.5,-1.32585 C 401.47359,244.01639 401,241.9769 401,240.56574 401,238.95175 400.44358,238 399.5,238 c -0.825,0 -1.5,-0.45 -1.5,-1 0,-1.86872 3.18451,-1.01042 3.71025,1 0.65447,2.50268 2.28975,2.62717 2.28975,0.17431 0,-1.98791 -3.95983,-6.19487 -6.14172,-6.52502 -0.74705,-0.11304 -1.92078,-0.55693 -2.60828,-0.98643 -0.82225,-0.51367 -1.27169,-0.16185 -1.31339,1.02812 -0.0545,1.55544 -0.18128,1.51762 -0.90445,-0.2698 -0.46259,-1.14335 -2.34656,-2.82061 -4.18661,-3.72723 -5.37953,-2.65059 -0.32621,-2.05396 5.55478,0.65583 5.42652,2.50039 16.94795,5.65022 20.66731,5.65022 1.95017,0 9.41411,-3.19002 13.93236,-5.95456 0.825,-0.50478 18.49755,-9.33074 39.27233,-19.61323 20.77478,-10.2825 38.01383,-19.08622 38.30901,-19.56383 0.29518,-0.47761 1.59764,-0.86838 2.89434,-0.86838 1.29671,0 2.50765,-0.37027 2.69099,-0.82282 0.18333,-0.45255 8.43333,-4.82423 18.33333,-9.71484 9.9,-4.89062 18.15,-9.24535 18.33333,-9.67719 0.18334,-0.43183 0.85834,-0.7839 1.5,-0.78237 1.03706,0.002 6.48193,-2.39675 12.16667,-5.3611 C 577.66467,153.73396 601.67271,142 602.68749,142 c 0.72188,0 1.30763,-0.5625 1.30167,-1.25 -0.0114,-1.32018 -11.99323,-6.17404 -20.46587,-8.29079 -2.76281,-0.69024 -6.37329,-1.70769 -8.02329,-2.26099 -7.54433,-2.52986 -20.17329,-5.95818 -40,-10.85859 -3.3,-0.81563 -7.56007,-1.88854 -9.46682,-2.38424 -2.63284,-0.68447 -4.04036,-0.52548 -5.85102,0.66091 -1.3113,0.8592 -4.92623,2.92711 -8.03317,4.59536 -3.10695,1.66825 -6.74536,3.71842 -8.08536,4.55593 -1.34001,0.83751 -5.61501,3.1889 -9.5,5.22531 -3.885,2.0364 -9.08863,4.89575 -11.56363,6.3541 -2.475,1.45835 -7.425,4.08834 -11,5.84442 -3.575,1.75608 -6.725,3.50583 -7,3.88834 -0.275,0.3825 -2.075,1.42475 -4,2.3161 -1.925,0.89135 -5.75,2.92774 -8.5,4.52531 -2.75,1.59757 -6.35,3.60981 -8,4.47165 -1.65,0.86183 -3.675,1.95608 -4.5,2.43165 -0.825,0.47557 -2.53948,1.40528 -3.80995,2.06602 -7.17338,3.73067 -15.8227,8.46493 -16.69005,9.13541 -0.55,0.42516 -4.6,2.68857 -9,5.02981 -4.4,2.34123 -8.15,4.63648 -8.33333,5.10054 -0.18334,0.46406 -1.10584,0.84375 -2.05,0.84375 -0.94417,0 -2.14417,0.41248 -2.66667,0.91662 -0.5225,0.50414 -2.975,2.00797 -5.45,3.34185 -5.79678,3.12413 -14.7117,8.05097 -23.33953,12.89864 C 364.89872,203.2707 361.5662,205 361.25486,205 c -0.31134,0 -2.04103,1.125 -3.84375,2.5 -1.80272,1.375 -3.75769,2.5 -4.34439,2.5 -0.5867,0 -1.06672,0.63312 -1.06672,1.40693 0,0.84323 2.30379,2.10804 5.75,3.15682 6.72968,2.04805 8.76309,3.43625 5.03333,3.43625 -1.43916,0 -2.77321,0.46965 -2.96456,1.04368 -0.19134,0.57402 -1.35966,0.10106 -2.59627,-1.05102 -1.34875,-1.25655 -2.74337,-1.78031 -3.48545,-1.30899 -1.20946,0.76818 -1.73438,0.93693 -3.70567,1.19133 -1.50525,0.19425 -0.0611,2.95819 1.80376,3.45207 0.91567,0.24251 0.4008,0.49313 -1.14416,0.55693 -1.61351,0.0666 -2.54994,-0.30319 -2.20029,-0.86894 0.37466,-0.60622 -0.5086,-0.76148 -2.29707,-0.40378 -2.11597,0.42319 -3.07229,0.14728 -3.51832,-1.01506 C 342.29744,218.61154 342.5895,218 343.43777,218 c 0.90125,0 1.18718,-0.71821 0.82987,-2.08453 -0.41604,-1.59094 -0.74872,-1.76853 -1.40498,-0.75 -0.51792,0.80382 -0.61188,0.0421 -0.23626,-1.91547 0.60584,-3.15746 0.52569,-3.25 -2.81497,-3.25 -1.89122,0 -5.65997,-1.1013 -8.375,-2.44734 -6.40813,-3.17697 -3.82718,-3.21234 5.06357,-0.0694 8.86229,3.13288 12.12418,3.13614 16.71481,0.0167 2.0235,-1.375 4.34046,-2.5 5.1488,-2.5 0.80835,0 1.61972,-0.37486 1.80306,-0.83301 0.18333,-0.45816 4.38333,-3.03833 9.33333,-5.73371 10.22394,-5.56715 12.1838,-6.65527 20.14266,-11.18328 3.14188,-1.7875 6.30759,-3.25 7.03492,-3.25 0.72733,0 1.32242,-0.40114 1.32242,-0.89142 0,-0.49028 1.6875,-1.64574 3.75,-2.56769 2.0625,-0.92195 6,-2.97582 8.75,-4.56415 2.75,-1.58833 6.35,-3.61229 8,-4.49768 1.65,-0.88539 5.025,-2.77563 7.5,-4.20054 2.475,-1.42491 7.65,-4.25027 11.5,-6.27859 11.25017,-5.92699 20.92114,-11.22975 22.00995,-12.06843 0.55547,-0.42787 4.60547,-2.64378 9,-4.92426 4.39453,-2.28048 8.41755,-4.56503 8.94005,-5.07678 0.5225,-0.51175 1.56502,-0.93046 2.31672,-0.93046 0.7517,0 2.7992,-1.06135 4.55,-2.35855 1.7508,-1.29721 5.65828,-3.60367 8.68328,-5.12547 3.025,-1.5218 7.75,-4.02999 10.5,-5.57375 2.75,-1.54377 6.6875,-3.56117 8.75,-4.48312 2.0625,-0.92195 3.75,-2.03339 3.75,-2.46986 0,-0.43648 1.2375,-1.27393 2.75,-1.86099 1.5125,-0.58706 5,-2.43958 7.75,-4.11671 2.75,-1.67713 5.92973,-3.44822 7.06607,-3.93576 1.94553,-0.83471 8.73881,-5.08997 10.93393,-6.84892 0.55,-0.44072 3.925,-2.487672 7.5,-4.548787 3.575,-2.061116 8.3,-4.876069 10.5,-6.255452 2.2,-1.379382 4.7875,-2.766252 5.75,-3.081931 0.9625,-0.31568 1.75,-0.899961 1.75,-1.298402 0,-0.398442 2.30427,-2.033458 5.1206,-3.633369 2.81632,-1.599911 6.75382,-3.899716 8.75,-5.110679 1.99617,-1.210962 4.3044,-2.56402 5.1294,-3.006796 0.825,-0.442776 4.06588,-2.489488 7.20196,-4.54825 C 599.33804,67.684442 602.2971,66 602.77765,66 c 0.48055,0 1.9306,-1.125 3.22235,-2.5 1.29175,-1.375 3.14363,-2.5 4.1153,-2.5 0.97166,0 2.04876,-0.45643 2.39353,-1.01429 0.34478,-0.557859 2.28384,-1.918567 4.30902,-3.023795 2.02518,-1.105228 5.48215,-3.131579 7.68215,-4.503003 2.2,-1.371424 4.96879,-2.907959 6.15286,-3.414522 1.18407,-0.506563 2.45211,-1.405212 2.81785,-1.996997 0.36574,-0.591785 2.32196,-1.974255 4.34714,-3.072155 4.27232,-2.31613 7.46992,-4.261683 8.18215,-4.978364 C 647.06835,37.921848 657.17723,32 657.944,32 c 0.44611,0 1.33691,-0.633548 1.97955,-1.407885 0.64264,-0.774337 2.61024,-2.147002 4.37245,-3.050366 1.7622,-0.903365 5.229,-2.962526 7.704,-4.575912 2.475,-1.613387 5.175,-3.255531 6,-3.649208 0.825,-0.393678 1.95,-1.10984 2.5,-1.591473 1.20446,-1.054737 7.44488,-4.742533 13.18459,-7.7914744 l 4.18459,-2.222859 12.31541,3.1807654 c 6.77348,1.749421 14.09649,3.637778 16.27336,4.196349 2.17687,0.558571 5.32687,1.620435 7,2.359697 1.67313,0.739263 5.74205,2.33925 9.04205,3.555527 5.43456,2.00301 12.02208,4.819868 16.79458,7.181451 0.98701,0.488407 5.03701,2.488252 9,4.444101 3.96298,1.955848 8.10542,4.047292 9.20542,4.647652 1.1,0.60036 3.2375,1.716739 4.75,2.480841 C 784.8387,41.064994 786.09869,44 784.07143,44 c -0.51072,0 -1.54522,0.616646 -2.2989,1.370325 -0.75368,0.753679 -2.69832,2.134617 -4.32143,3.068751 -1.6231,0.934133 -4.7511,2.774684 -6.9511,4.090113 -2.2,1.315428 -5.328,3.142844 -6.9511,4.060924 -1.62311,0.91808 -3.56775,2.285883 -4.32143,3.039562 C 758.47379,60.383354 757.48447,61 757.02898,61 c -0.45549,0 -3.68585,1.802717 -7.17857,4.006037 -3.49273,2.203321 -7.02541,4.313461 -7.85041,4.6892 -0.825,0.37574 -3.975,2.278404 -7,4.228143 -5.81999,3.751228 -8.63056,5.392746 -13.5,7.884692 -1.65,0.844392 -3.225,1.847558 -3.5,2.229259 -0.275,0.3817 -2.3,1.667134 -4.5,2.85652 -2.2,1.189386 -5.35,3.037153 -7,4.106149 -1.65,1.068996 -4.575,2.87155 -6.5,4.005676 -1.925,1.134125 -5.525,3.389517 -8,5.011984 -2.475,1.62246 -5.175,3.26165 -6,3.64263 -0.825,0.38098 -4.425,2.59021 -8,4.90941 -3.575,2.31919 -8.07689,5.05227 -10.00419,6.07351 -1.92731,1.02123 -4.85424,2.75679 -6.50429,3.85679 -4.54183,3.02778 -6.61525,4.2773 -10.99152,6.62386 -2.2,1.17965 -4.225,2.42186 -4.5,2.76047 -0.275,0.33862 -1.5125,1.17817 -2.75,1.86567 -1.2375,0.6875 -3.2625,1.8125 -4.5,2.5 -1.2375,0.6875 -2.925,1.76683 -3.75,2.39852 -1.41367,1.08242 -6.40869,3.96998 -10.61299,6.13524 -1.85193,0.95375 -19.58473,9.55732 -34.38701,16.68381 -4.125,1.98596 -8.175,4.00065 -9,4.47709 -0.825,0.47643 -6.225,3.17953 -12,6.00688 -5.775,2.82735 -11.175,5.53411 -12,6.01503 -0.825,0.48091 -6,2.96482 -11.5,5.5198 -5.5,2.55499 -10.675,5.05027 -11.5,5.54508 -0.825,0.49481 -4.875,2.52373 -9,4.5087 -7.21183,3.47037 -8.91868,4.32862 -12.75,6.411 -0.9625,0.52314 -6.7,3.36289 -12.75,6.31056 -6.05,2.94766 -11.9,5.84893 -13,6.44726 -4.66348,2.53663 -19.22755,9.29284 -20.0762,9.31327 -0.50809,0.0122 -2.0488,0.90222 -3.4238,1.97776 -1.375,1.07554 -3.2875,1.96553 -4.25,1.97776 -0.9625,0.0122 -1.75,0.36239 -1.75,0.77813 0,0.41574 -1.4625,1.36255 -3.25,2.10402 -3.75193,1.55635 -16.76899,8.07891 -18.25,9.14469 -0.55,0.39579 -2.2528,1.01909 -3.78401,1.3851 -1.59454,0.38115 -3.2725,1.7376 -3.92734,3.17483 -1.52946,3.35679 0.0119,4.81593 7.71148,7.30003 6.95206,2.24294 4.50907,2.77968 -3.25013,0.71408 L 427,245.18102 v 3.75759 c 0,3.63836 0.16227,3.80998 5.11483,5.40948 2.81316,0.90855 5.74765,1.65191 6.52109,1.65191 1.37164,0 7.87951,1.67667 25.56115,6.58549 4.78339,1.32798 9.56432,2.41451 10.62428,2.41451 1.05996,0 3.89627,0.73432 6.30292,1.63182 2.40665,0.89751 6.40073,1.99578 8.87573,2.4406 4.22707,0.75972 8.1256,1.72964 24,5.97105 8.79367,2.34953 19.74224,5.06886 24,5.96095 1.925,0.40333 6.875,1.67635 11,2.82893 4.125,1.15258 11.1,2.98994 15.5,4.08302 4.4,1.09307 11.6,2.88411 16,3.98008 4.4,1.09596 11.6,2.79269 16,3.7705 4.4,0.97782 7.16654,1.94461 6.14786,2.14844 -1.01868,0.20383 -3.88592,-0.14151 -6.37164,-0.76742 -4.64385,-1.16934 -7.26924,-0.7788 -3.10158,0.46138 2.6578,0.79088 11.58947,4.78919 16.96151,7.59291 1.99989,1.04376 4.24989,1.91301 5,1.93167 0.75012,0.0187 3.16385,0.90339 5.36385,1.96607 2.2,1.06268 4.47798,1.94741 5.06217,1.96607 0.58419,0.0187 2.92496,0.93393 5.20169,2.03393 2.27674,1.1 4.59896,2 5.1605,2 0.56153,0 3.39577,1.06915 6.2983,2.37589 9.57562,4.31099 21.93259,8.74096 23.51456,8.42996 1.64003,-0.32242 4.60545,-8.78798 4.06372,-11.60095 -0.17129,-0.88946 -1.43408,-1.92958 -2.80619,-2.31137 -2.34338,-0.65205 -2.30464,-0.70022 0.63862,-0.79385 2.24304,-0.0714 3.28198,-0.66797 3.65638,-2.09968 0.67045,-2.56382 -0.58591,-2.52355 -5.38293,0.17253 l -3.86549,2.17252 -7.77067,-1.92252 c -4.27386,-1.05739 -6.79055,-2.06208 -5.59265,-2.23265 1.19791,-0.17056 4.49087,0.37673 7.31769,1.2162 3.40146,1.01013 5.70863,1.21087 6.82199,0.59356 0.92527,-0.51302 4.83231,-2.108 8.68231,-3.5444 3.85,-1.4364 9.14823,-3.73537 11.77384,-5.10883 2.62561,-1.37345 5.32561,-2.31273 6,-2.08729 0.67439,0.22545 -2.22907,2.05014 -6.45214,4.05487 -4.22306,2.00473 -7.94571,4.07765 -8.27256,4.60649 -0.32684,0.52884 -1.19048,5.26946 -1.9192,10.53469 -0.72871,5.26524 -1.64584,9.89406 -2.03805,10.28627 -1.11918,1.11918 -8.12549,0.83424 -10.73297,-0.4365 -1.29741,-0.63229 -4.60892,-1.94157 -7.35892,-2.90953 -2.75,-0.96795 -5.88763,-2.3529 -6.97251,-3.07766 -2.78657,-1.8616 -5.97631,-1.63959 -10.64203,0.74068 -2.21917,1.13214 -4.54683,1.88778 -5.17256,1.6792 C 628.42851,323.3095 634.57422,320 636.65364,320 c 2.92907,0 1.08028,-1.86434 -3.90364,-3.93646 -2.8875,-1.20052 -6.6,-2.78459 -8.25,-3.52016 -1.65,-0.73557 -5.475,-2.33504 -8.5,-3.55437 -3.025,-1.21934 -6.33639,-2.65003 -7.35864,-3.17931 -1.94295,-1.00599 -4.03191,-0.43581 -12.64136,3.45049 -2.475,1.11721 -6.3,2.80865 -8.5,3.75877 -2.2,0.95011 -6.475,2.86166 -9.5,4.24789 -3.025,1.38623 -10.45,4.62798 -16.5,7.20388 -6.05,2.57591 -12.47757,5.43422 -14.2835,6.35181 -3.7705,1.91579 -3.70731,1.95884 6.7835,4.62162 3.575,0.90741 8.525,2.27179 11,3.03196 2.475,0.76017 6.3,1.69672 8.5,2.08123 2.2,0.38451 4.62283,1.03055 5.38407,1.43566 0.76123,0.4051 3.68623,-0.14976 6.5,-1.23301 2.81376,-1.08326 6.91593,-2.63299 9.11593,-3.44384 2.2,-0.81085 5.575,-2.27948 7.5,-3.26362 5.7277,-2.92825 15.05766,-6.32821 15.67404,-5.71183 0.6485,0.6485 -1.4498,1.61745 -17.67404,8.16149 -6.325,2.55118 -13.3,5.5081 -15.5,6.57093 -2.2,1.06284 -4.38199,1.93118 -4.84887,1.92965 -0.46688,-0.002 -2.26688,0.62865 -4,1.40041 C 563.02818,352.02415 560.53795,353 558.81705,353 c -2.8999,0 -12.4252,-3.29728 -10.94787,-3.78973 0.70273,-0.23424 3.19379,0.30587 5.53569,1.20025 4.07154,1.55494 4.47339,1.53208 9.17657,-0.52186 6.08381,-2.6569 6.19922,-2.76253 4.3896,-4.01785 -1.05983,-0.7352 -0.42276,-0.8471 2.27896,-0.40032 2.0625,0.34108 3.75,0.38389 3.75,0.0951 C 573,344.56751 565.0718,341 562.85362,341 c -1.22432,0 -5.40475,-0.86246 -9.28983,-1.91659 C 546.3316,337.12113 535,335.83155 535,336.97077 c 0,0.34943 4.3875,1.48848 9.75,2.53122 5.3625,1.04275 12.225,2.66534 15.25,3.60574 4.92294,1.53044 5.15564,1.71941 2.21788,1.80105 -1.80516,0.0502 -4.93242,-0.59832 -6.94946,-1.4411 -2.01705,-0.84277 -6.61509,-1.98776 -10.21789,-2.54442 -3.60279,-0.55666 -8.24327,-1.27707 -10.31217,-1.60091 C 530.83521,338.71139 520,341.43847 520,343.0318 c 0,0.46511 2.1375,1.10908 4.75,1.43105 7.64352,0.94199 20.67325,3.89607 19.261,4.36682 -0.71319,0.23773 -4.71992,-0.31895 -8.90385,-1.23706 -4.18393,-0.91812 -9.98692,-1.98954 -12.89553,-2.38095 -2.90861,-0.39141 -5.32719,-1.15521 -5.37463,-1.69733 -0.10535,-1.20407 7.37802,-5.34993 12.14727,-6.72969 1.91634,-0.55441 4.56452,-1.85775 5.88485,-2.89632 1.32034,-1.03858 3.06615,-1.88832 3.87959,-1.88832 0.81345,0 3.11526,-0.82285 5.11515,-1.82855 3.60615,-1.81346 10.86649,-5.15226 16.63615,-7.65044 1.65,-0.71443 6.15,-2.73476 10,-4.48964 3.85,-1.75487 9.25,-4.21107 12,-5.45822 15.00604,-6.80536 17.5,-8.09649 17.5,-9.05976 C 600,301.75963 583.5812,294 579.87037,294 c -1.32581,0 -5.55152,-0.85559 -9.39047,-1.90131 -3.83894,-1.04572 -8.95907,-2.22154 -11.37805,-2.61293 -2.41898,-0.39139 -5.89203,-1.3358 -7.71788,-2.09869 C 549.55812,286.62418 546.75474,286 545.15424,286 c -1.60049,0 -4.61244,-0.71133 -6.69321,-1.58073 -2.08077,-0.8694 -6.74822,-2.17355 -10.37212,-2.8981 -6.85488,-1.37056 -15.64788,-3.46527 -27.58891,-6.57237 -3.85,-1.00179 -9.025,-2.12735 -11.5,-2.50124 -2.475,-0.3739 -5.22916,-1.06217 -6.12035,-1.52949 -0.89119,-0.46731 -4.04119,-1.2728 -7,-1.78996 -2.95881,-0.51717 -11.90465,-2.61649 -19.87965,-4.66515 -7.975,-2.04867 -16.3,-4.07164 -18.5,-4.49548 -3.79878,-0.73185 -8.53073,-1.89513 -22.75,-5.59275 -9.76923,-2.54042 -13.61521,-2.80485 -15.54993,-1.06914 -0.93504,0.83885 -3.50007,1.85099 -5.70007,2.2492 -2.2,0.39821 -8.725,3.21186 -14.5,6.25255 -5.775,3.04068 -12.3,6.41069 -14.5,7.48889 -2.2,1.07821 -4.15,2.35264 -4.33333,2.83207 -0.18334,0.47944 -1.02207,0.8717 -1.86385,0.8717 -0.84178,0 -3.39178,0.95657 -5.66667,2.12572 -2.27488,1.16914 -5.00069,2.57107 -6.05735,3.11539 -1.05666,0.54432 -3.98166,2.13476 -6.5,3.53431 -2.51834,1.39955 -5.4788,2.99288 -6.5788,3.54074 -4.32358,2.15335 -6.05995,3.0272 -7.5,3.77447 -0.825,0.42811 -2.9625,1.3677 -4.75,2.08799 -1.7875,0.72028 -3.25,1.64975 -3.25,2.06549 0,0.41574 -0.7875,0.78579 -1.75,0.82234 -0.9625,0.0366 -4,1.37746 -6.75,2.97981 C 303.65167,300.45391 290.50109,307 289.50373,307 c -0.37855,0 -1.83244,0.9 -3.23086,2 -1.39842,1.1 -3.3819,2 -4.40773,2 -1.02583,0 -1.86514,0.40114 -1.86514,0.89142 0,0.49028 -1.6875,1.60054 -3.75,2.46725 -2.0625,0.8667 -5.55,2.55017 -7.75,3.74103 -2.2,1.19086 -4.7875,2.5556 -5.75,3.03275 -0.9625,0.47715 -2.5375,1.28446 -3.5,1.79401 -7.40283,3.91909 -35.73797,17.84877 -40.75,20.03288 -5.42442,2.36383 -12.87481,4.90979 -19.5,6.66357 -6.42606,1.70108 -10.11259,2.85278 -19,5.93574 -3.575,1.24014 -9.875,3.25103 -14,4.46865 -4.125,1.21761 -9.75,3.00219 -12.5,3.96571 -2.75,0.96353 -8.375,2.77045 -12.5,4.01537 -4.125,1.24493 -10.65,3.26167 -14.5,4.48164 -3.85,1.21997 -10.375,3.25466 -14.5,4.52153 -4.125,1.26687 -9.75,3.0836 -12.5,4.03717 -12.374819,4.291 -14.377334,4.55813 -21.5,2.86806 z m 13,-5.82544 c 9.61822,-2.93158 14.10723,-4.4353 28.5,-9.54684 2.75,-0.97666 6.575,-2.12205 8.5,-2.54533 1.925,-0.42327 5.46908,-1.49625 7.87573,-2.38438 2.40665,-0.88813 4.99905,-1.61479 5.76089,-1.61479 0.76185,0 3.29277,-0.85847 5.62428,-1.90771 2.3315,-1.04924 5.3641,-2.14086 6.7391,-2.42583 1.375,-0.28496 7.79439,-2.35149 14.26531,-4.59229 6.47092,-2.24079 12.32092,-4.07694 13,-4.08033 0.67908,-0.003 2.4912,-0.66156 4.02693,-1.46261 1.53573,-0.80105 4.46073,-1.75842 6.5,-2.12749 2.03927,-0.36907 5.02428,-1.33831 6.63336,-2.15387 l 2.9256,-1.48284 -2.9256,-1.2285 c -3.14997,-1.32272 -8.57954,-2.65291 -20.4256,-5.00407 -4.125,-0.81872 -9.3,-1.92319 -11.5,-2.45439 -6.10751,-1.47468 -27.35094,-4.08866 -33.19098,-4.08411 -2.85504,0.002 -5.4477,0.41942 -5.76147,0.9271 -0.31377,0.50769 -2.02782,1.23813 -3.80902,1.62321 -1.78119,0.38509 -5.36107,1.76971 -7.95529,3.07694 C 113.18903,335.93044 110.38857,337 109.56,337 c -0.82858,0 -3.43104,0.86657 -5.78325,1.92571 -2.35221,1.05914 -6.97675,2.89739 -10.27675,4.085 -3.3,1.1876 -8.025,2.98278 -10.5,3.98929 -2.475,1.00651 -7.2,2.80442 -10.5,3.99537 -3.3,1.19095 -8.475,3.21999 -11.5,4.50898 -6.170639,2.62937 -12.327614,4.95862 -19,7.18788 -2.475,0.82691 -4.9275,1.90944 -5.45,2.40562 C 36.0275,365.59403 34.911197,366 34.069326,366 c -2.58743,0 -18.644422,6.50347 -19.508366,7.90136 -0.288199,0.46632 5.880186,1.13449 13.707521,1.48483 7.827336,0.35034 17.381519,1.04201 21.231519,1.53706 17.115946,2.20081 23.19873,3.13388 26,3.98828 1.65,0.50326 3.45,0.79467 4,0.64758 0.55,-0.14709 5.725,-1.70759 11.5,-3.46777 z m 130.71607,-44.71342 c 2.08116,-0.89215 4.58299,-2.02818 5.55963,-2.52453 1.87915,-0.95501 40.96291,-20.90573 44.59346,-22.7632 2.75635,-1.41021 5.68493,-2.87394 7.88084,-3.93889 0.9625,-0.46679 3.1,-1.61306 4.75,-2.54728 1.65,-0.93421 4.8,-2.57162 7,-3.63869 2.2,-1.06706 4.675,-2.33088 5.5,-2.8085 1.73207,-1.00273 15.74722,-8.12043 45.47162,-23.09309 L 363.44324,261.5 346.47162,261 C 337.13723,260.725 330.175,260.22709 331,259.89352 c 0.85328,-0.34499 0.63771,-0.43617 -0.5,-0.21146 -5.29169,1.04513 -29.05645,0.0352 -40.40886,-1.71721 -18.27997,-2.82184 -21.21218,-2.62155 -29.59114,2.0212 -3.85,2.13328 -8.6875,4.63298 -10.75,5.5549 -2.0625,0.92191 -3.75,2.07735 -3.75,2.56763 0,0.49028 -0.81,0.89142 -1.8,0.89142 -0.99,0 -2.24084,0.44084 -2.77965,0.97965 -0.53882,0.53882 -4.34132,2.77504 -8.45,4.96939 -10.04429,5.3644 -13.56504,7.27682 -19.47035,10.57599 -2.75,1.53636 -6.65889,3.61842 -8.68642,4.6268 -2.02754,1.00838 -3.96659,2.28673 -4.30902,2.84079 C 200.16213,293.54668 199.00852,294 197.94098,294 196.87344,294 196,294.39 196,294.86667 c 0,0.47668 -2.1375,1.84157 -4.75,3.0331 -2.6125,1.19153 -6.55,3.24887 -8.75,4.57187 -2.2,1.32299 -7.6,4.28717 -12,6.58706 -4.4,2.29989 -8.15,4.57754 -8.33333,5.06146 -0.18334,0.48391 -1.04086,0.87984 -1.90561,0.87984 -0.86475,0 -2.96475,1.04563 -4.66667,2.32362 -1.70191,1.27799 -3.99439,2.68344 -5.09439,3.12323 -1.80961,0.72351 -1.71441,0.88551 1,1.70177 1.65,0.49618 6.6,1.27114 11,1.72213 12.975,1.32989 50.01221,8.73091 55.21607,11.03364 0.11884,0.0526 1.91884,-0.63433 4,-1.52647 z M 381,257 c 0,-0.55 -1.0125,-0.96837 -2.25,-0.92971 -2.1469,0.0671 -2.15836,0.10966 -0.25,0.92971 1.1,0.47269 2.1125,0.89106 2.25,0.92971 C 380.8875,257.96837 381,257.55 381,257 Z m -88.27083,-0.60417 c -0.33229,-0.33229 -1.1948,-0.36781 -1.91667,-0.0789 -0.79773,0.31922 -0.56078,0.55618 0.60417,0.60416 1.05416,0.0434 1.64479,-0.19293 1.3125,-0.52522 z m -17.40809,-2.47475 c -0.5934,-0.5934 -3.0459,-1.27174 -5.45,-1.50743 l -4.37108,-0.42851 4,1.40258 c 5.12206,1.79602 7.28161,1.99389 5.82108,0.53336 z M 330,254 c 0,-0.55 -0.45,-1 -1,-1 -0.55,0 -1,0.45 -1,1 0,0.55 0.45,1 1,1 0.55,0 1,-0.45 1,-1 z m 20.63988,-3.78869 c -0.87574,-0.87574 -1.92744,-1.25708 -2.33711,-0.84741 -0.40967,0.40966 -0.0829,1.16349 0.72619,1.67516 1.08499,0.68617 0.55252,0.97157 -2.02896,1.08753 l -3.5,0.15722 4,0.6081 c 4.44152,0.67521 5.54965,-0.27083 3.13988,-2.6806 z M 370,253 c 0,-1.25292 -1.06124,-1.25292 -3,0 -1.21296,0.78387 -1.06944,0.9723 0.75,0.98469 C 368.9875,253.99311 370,253.55 370,253 Z m 10,0.55902 c 0,-0.24254 -0.45,-0.7191 -1,-1.05902 -0.55,-0.33992 -1,-0.14148 -1,0.44098 0,0.58246 0.45,1.05902 1,1.05902 0.55,0 1,-0.19844 1,-0.44098 z m -120.96161,-3.5951 c -3.00389,-1.08015 -6.15389,-1.92904 -7,-1.88642 -2.0869,0.10514 7.94263,3.75674 10.46161,3.80892 1.1,0.0228 -0.45773,-0.84234 -3.46161,-1.9225 z M 425,250 c 0,-1.1 -0.45,-2 -1,-2 -0.55,0 -1,0.9 -1,2 0,1.1 0.45,2 1,2 0.55,0 1,-0.9 1,-2 z m -3.80699,-0.75 c 2.23562,-2.60303 2.95742,-5.27093 1.54013,-5.69256 -0.67823,-0.20176 -4.27022,-1.19149 -7.9822,-2.19938 -4.35274,-1.18188 -6.13797,-2.04691 -5.02796,-2.43628 1.36691,-0.47948 1.19472,-0.70436 -0.83669,-1.09269 -2.45484,-0.46927 -2.56614,-0.28281 -2.76499,4.63242 l -0.2072,5.12138 5.79295,1.61199 c 7.56002,2.1037 7.72571,2.10467 9.48596,0.0551 z M 247,246.36894 c -1.925,-0.87204 -4.51182,-2.06247 -5.74849,-2.6454 -1.23667,-0.58294 -2.51454,-0.79384 -2.83971,-0.46867 -0.76663,0.76662 7.47967,4.5579 10.0882,4.6381 1.30257,0.0401 0.77949,-0.49141 -1.5,-1.52403 z M 261,242 c 0,-0.55 -0.48214,-1 -1.07143,-1 -0.58928,0 -1.73642,-0.66499 -2.54918,-1.47776 -1.19598,-1.19597 -1.85062,-1.2449 -3.43316,-0.25659 -1.83932,1.14867 -1.76219,1.29125 1.29918,2.40168 C 259.38094,243.16738 261,243.26098 261,242 Z m 142.5,0 c 0.33992,-0.55 0.14148,-1 -0.44098,-1 -0.58246,0 -1.05902,0.45 -1.05902,1 0,0.55 0.19844,1 0.44098,1 0.24254,0 0.7191,-0.45 1.05902,-1 z m 19.5,-0.88337 c 0,-1.07274 -3.58935,-2.11206 -7,-2.0269 -2.21377,0.0553 -2.09927,0.21675 1,1.41027 4.20539,1.61949 6,1.80393 6,0.61663 z M 228.01993,229.03724 c -0.62761,-1.1727 -1.65836,-1.72948 -2.56071,-1.38322 -1.16376,0.44658 -1.24689,0.8969 -0.3623,1.96276 0.63138,0.76077 1.7837,1.38322 2.56071,1.38322 1.09393,0 1.17569,-0.44294 0.3623,-1.96276 z M 222.5,227 c -0.33992,-0.55 -1.06803,-1 -1.61803,-1 -0.55,0 -0.72189,0.45 -0.38197,1 0.33992,0.55 1.06803,1 1.61803,1 0.55,0 0.72189,-0.45 0.38197,-1 z m 128.22917,-12.60417 c -0.33229,-0.33229 -1.1948,-0.36781 -1.91667,-0.0789 -0.79773,0.31922 -0.56078,0.55618 0.60417,0.60416 1.05416,0.0434 1.64479,-0.19293 1.3125,-0.52522 z M 637.56445,122.86324 C 638.6999,121.83846 640.00742,121 640.47006,121 c 0.46264,0 2.23363,-1.02371 3.93555,-2.27491 1.70191,-1.25119 5.56939,-3.58699 8.59439,-5.19065 3.025,-1.60366 6.09464,-3.50495 6.82143,-4.22509 0.72678,-0.72014 1.7581,-1.30935 2.29181,-1.30935 0.53371,0 1.93642,-0.9 3.11713,-2 1.18072,-1.1 2.77823,-2 3.55003,-2 0.7718,0 2.59945,-0.94281 4.06144,-2.09513 C 677.57699,98.17267 689.15083,91 690.43796,91 c 0.68864,0 2.06655,-0.9 3.06204,-2 0.99549,-1.1 2.26025,-2 2.8106,-2 0.55034,0 2.39309,-1.021646 4.09501,-2.270324 1.70191,-1.248679 4.33189,-2.899719 5.84439,-3.66898 1.5125,-0.76926 2.75,-1.772615 2.75,-2.229676 0,-0.457061 0.5625,-0.835295 1.25,-0.84052 0.6875,-0.0052 3.95,-1.71785 7.25,-3.805832 3.3,-2.087983 6.675,-4.115999 7.5,-4.506703 0.825,-0.390704 3.525,-2.057993 6,-3.705086 2.475,-1.647093 6.1875,-3.733062 8.25,-4.635487 2.0625,-0.902425 3.75,-1.976907 3.75,-2.38774 0,-0.410832 2.76608,-2.186554 6.14684,-3.946049 3.38076,-1.759495 6.64326,-3.611437 7.25,-4.115427 C 758.18272,49.40473 764.17632,45.58628 768.75,43.018123 771.0875,41.7056 773,40.26021 773,39.806145 773,38.159284 748.06178,26.280063 733.5,20.990483 730.2,19.791754 725.30249,17.953506 722.61665,16.905488 719.9308,15.85747 717.10706,15 716.34166,15 715.57627,15 712.38937,14.1 709.25968,13 703.62435,11.019343 693,10.244702 693,11.814477 c 0,0.447962 -1.6875,1.719383 -3.75,2.825378 -4.68059,2.509923 -8.33114,4.628374 -9.69908,5.628478 -3.99565,2.921233 -10.21875,6.698296 -11.06114,6.71347 -0.55562,0.01001 -2.22348,1.143197 -3.70635,2.518197 -1.48288,1.375 -3.39078,2.5 -4.23979,2.5 -0.849,0 -1.54364,0.366654 -1.54364,0.814788 0,0.448133 -1.4625,1.563449 -3.25,2.478481 -1.7875,0.915031 -5.05,2.786671 -7.25,4.159199 -2.2,1.372527 -5.35,3.245 -7,4.161051 -1.65,0.91605 -3.225,1.96355 -3.5,2.327776 C 637.38666,46.753636 628.06786,53 627.46929,53 c -0.23675,0 -3.02669,1.671391 -6.19987,3.714201 -3.17318,2.042811 -7.11942,4.427063 -8.76942,5.298337 -4.3856,2.315797 -7.35308,4.11311 -12.45491,7.543577 -2.4998,1.680864 -7.24509,4.58396 -10.54509,6.451325 -3.3,1.867366 -6.59464,3.979614 -7.32143,4.693885 -0.72678,0.714271 -1.85178,1.299225 -2.5,1.299896 -0.64821,6.72e-4 -2.48606,1.125672 -4.08411,2.5 C 573.99641,85.87555 572.3289,87 571.88887,87 c -0.44003,0 -2.50754,1.133251 -4.59446,2.518336 C 565.20748,90.903421 562.825,92.47017 562,93 c -0.825,0.52983 -3.1411,2.051526 -5.14688,3.381547 -2.00578,1.33002 -4.59328,2.718596 -5.75,3.085723 -1.15672,0.367128 -2.10312,1.01495 -2.10312,1.4396 0,0.42466 -1.19346,1.31588 -2.65213,1.98049 -3.96804,1.80796 -3.06183,2.28003 11.65213,6.06986 2.475,0.63748 7.65,2.00673 11.5,3.04278 3.85,1.03605 9.025,2.4198 11.5,3.07501 5.20055,1.37674 7.07657,2.03136 12.28393,4.28638 2.08116,0.90124 4.32246,1.63861 4.98067,1.63861 1.28787,0 9.74091,3.15527 16.2354,6.0602 8.49987,3.80191 9.54244,3.84462 15.49508,0.63473 3.02771,-1.63265 6.43392,-3.80692 7.56937,-4.83169 z m -15.24422,203.03264 c 2.10113,-1.10865 4.35113,-1.82809 5,-1.59875 0.64888,0.22933 -0.56269,1.1563 -2.69235,2.05992 -5.38626,2.2854 -6.92876,1.97714 -2.30765,-0.46117 z M 636,305 c -3.6131,-1.00421 -5.38966,-1.843 -4,-1.88856 1.375,-0.0451 5.2,0.78719 8.5,1.84951 7.54631,2.42928 4.20426,2.45828 -4.5,0.039 z m -23,-4.5005 -8.5,-2.30914 5.72564,0.0358 c 3.8424,0.024 6.61384,-0.54618 8.42604,-1.73358 l 2.7004,-1.76937 -7.92604,-2.26641 c -10.23068,-2.92542 -15.74338,-4.35726 -21.92604,-5.69499 -7.83629,-1.69551 -19.25439,-5.5926 -16.64638,-5.68154 1.29449,-0.0441 6.01949,0.99609 10.5,2.31162 4.48051,1.31554 10.39638,2.86656 13.14638,3.44671 8.10561,1.70999 16.6973,3.80828 21.26293,5.19291 4.00284,1.21394 4.41469,1.15027 6.75,-1.04365 1.36789,-1.28506 2.48707,-2.75107 2.48707,-3.25779 0,-0.50673 1.0125,-2.33145 2.25,-4.05494 2.44432,-3.40427 3.09765,-4.43471 6.52379,-10.28952 1.25059,-2.13708 3.39587,-5.6856 4.7673,-7.8856 1.37142,-2.2 2.88884,-4.91849 3.37203,-6.0411 0.48319,-1.1226 1.60041,-2.6402 2.4827,-3.37244 0.8823,-0.73224 1.60418,-1.75627 1.60418,-2.27563 0,-0.51935 1.125,-2.41922 2.5,-4.22194 1.375,-1.80272 2.5,-3.55014 2.5,-3.88315 0,-0.47591 5.16043,-8.6896 6.67376,-10.62241 0.17943,-0.22916 0.59649,-0.14642 0.92679,0.18389 0.3303,0.3303 -0.3447,1.61515 -1.5,2.85523 -1.1553,1.24007 -2.10055,2.84482 -2.10055,3.56611 0,0.72129 -0.36033,1.31144 -0.80073,1.31144 -0.44041,0 -1.79863,1.9125 -3.01827,4.25 -1.21965,2.3375 -3.55203,6.275 -5.18307,8.75 -1.63104,2.475 -3.28296,5.175 -3.67093,6 -0.38797,0.825 -2.29731,3.975 -4.24298,7 -5.22342,8.12105 -6.9881,11.18955 -8.19511,14.25 -0.59651,1.5125 -1.41831,2.75 -1.82622,2.75 -0.40791,0 -1.25741,1.13195 -1.88777,2.51544 -1.09844,2.41082 -1.03234,2.48793 1.58949,1.85421 1.50457,-0.36368 4.31059,-1.43468 6.23559,-2.38 5.78142,-2.83914 14.28534,-6.66511 17.86228,-8.03635 2.36554,-0.90685 3.92809,-2.49911 5.2709,-5.37113 1.86124,-3.98086 1.8963,-4.00151 1.41271,-0.83217 -0.57763,3.7857 0.1613,3.97333 5.25599,1.33463 2.03397,-1.05345 5.60947,-2.74095 7.94557,-3.75 2.3361,-1.00905 4.44592,-2.50963 4.68848,-3.33463 0.24257,-0.825 1.11773,-4.425 1.94479,-8 0.82707,-3.575 2.42975,-10.40473 3.56152,-15.17719 3.1238,-13.17247 2.87099,-15.83455 -1.86518,-19.64065 l -3.92295,-3.15256 -1.77386,4.64479 c -0.97562,2.55463 -1.96259,4.07859 -2.19326,3.38658 -0.23067,-0.692 0.12728,-2.27967 0.79544,-3.52814 1.62107,-3.02899 0.98954,-5.6329 -1.59776,-6.58793 -1.75977,-0.64957 -2.64222,-0.0333 -5.25,3.66638 -1.72407,2.44596 -3.13467,4.70056 -3.13467,5.01023 0,0.30967 -0.9,1.7072 -2,3.10562 -1.48095,1.88272 -2,2.1183 -2,0.90773 0,-0.89917 0.38166,-1.63486 0.84813,-1.63486 0.46646,0 1.64495,-1.76705 2.61885,-3.92678 2.64211,-5.85914 6.654,-9.33195 9.85302,-8.52904 1.42888,0.35862 3.12152,1.2829 3.76143,2.05393 0.6399,0.77104 1.89586,1.41611 2.79101,1.43349 0.89516,0.0174 2.93651,1.18226 4.53634,2.58861 3.71285,3.26384 3.66307,7.03594 -0.29806,22.5873 -1.58199,6.21087 -3.17797,13.40543 -3.54662,15.98791 l -0.67028,4.69542 2.80309,-0.83852 c 4.21473,-1.26081 8.30537,-2.88246 13.30309,-5.27375 2.475,-1.18423 6.3,-2.92998 8.5,-3.87945 2.2,-0.94947 6.025,-2.61407 8.5,-3.69911 C 726.56006,249.5705 732.79732,247 733.47068,247 c 0.39632,0 2.11826,-0.99524 3.82653,-2.21164 4.19187,-2.98486 13.09096,-2.69977 24.57792,0.7874 4.74368,1.44006 11.32487,3.43974 14.62487,4.44373 3.3,1.00399 7.29186,2.10754 8.8708,2.45234 1.57894,0.3448 3.51554,1.27165 4.30356,2.05967 1.24367,1.24368 0.99678,1.69856 -1.8708,3.44689 -4.27437,2.60602 -6.23364,2.6244 -2.30356,0.0216 1.65,-1.09275 2.39447,-1.98979 1.65437,-1.99341 -0.7401,-0.004 -2.5401,-0.84632 -4,-1.87267 -1.4599,-1.02634 -4.00437,-2.09836 -5.65437,-2.38226 -3.95376,-0.68029 -15.10235,-3.39043 -24.76647,-6.02053 l -7.76646,-2.11366 -4.51029,2.19126 c -2.48065,1.2052 -5.12339,2.19127 -5.87275,2.19127 -0.74935,0 -2.42481,0.88503 -3.72325,1.96673 l -2.36078,1.96673 3.70295,0.0333 c 2.03662,0.0183 4.73662,0.49027 6,1.04882 1.26338,0.55855 6.12205,1.85877 10.79705,2.88937 4.675,1.03059 12.46381,2.88556 17.30847,4.12213 7.37227,1.88175 9.19047,2.04389 11.15138,0.99444 1.28861,-0.68965 2.88168,-1.07431 3.54016,-0.85482 1.16027,0.38676 -3.39977,2.60263 -14.25001,6.92452 -2.8875,1.15016 -7.05,2.91596 -9.25,3.924 -2.2,1.00804 -5.125,2.15262 -6.5,2.54351 -1.375,0.39088 -3.38763,1.32508 -4.47251,2.076 -1.08487,0.75091 -2.88487,1.33738 -4,1.30327 -1.31767,-0.0403 -0.45206,-0.79191 2.47251,-2.14681 9.25589,-4.28809 13,-6.11213 13,-6.33327 C 758,267.94873 747.99044,265 746.2621,265 c -1.02415,0 -2.2896,-0.35814 -2.8121,-0.79586 -1.60784,-1.34696 -7.4886,-3.01368 -18.40305,-5.21577 -11.59662,-2.33972 -10.21993,-2.55931 -24.04695,3.83556 -3.025,1.39903 -6.85,3.10143 -8.5,3.78311 -5.84393,2.41434 -15.0534,6.50453 -19,8.43844 -2.2,1.07804 -4.38199,1.95883 -4.84887,1.9573 -0.85917,-0.003 -2.92202,0.86234 -14.65113,6.14464 -11.9699,5.39074 -15.47561,6.99677 -19.5,8.93332 -2.2,1.05865 -4.40071,1.92357 -4.89047,1.92204 -0.48976,-0.002 -2.73976,0.8609 -5,1.91652 -2.26024,1.05561 -5.00953,2.22423 -6.10953,2.59693 -1.57894,0.53498 -0.84209,1.0567 3.5,2.47812 8.39106,2.74689 1.54791,2.37063 -9,-0.49485 z m 157,-36.33708 c 0,-1.24911 -13.62735,-5.12761 -33.64308,-9.5752 C 728.39391,252.81781 722,252.5209 722,253.92054 c 0,0.94529 2.15311,1.50522 10,2.60055 2.475,0.34548 6.3,1.21931 8.5,1.94184 2.2,0.72253 6.41925,1.87008 9.37612,2.55012 2.95687,0.68003 6.55687,1.85252 8,2.60553 2.85127,1.48775 12.12388,1.90369 12.12388,0.54384 z m -75,31.67029 c 2.475,-1.12377 6.42065,-2.96271 8.7681,-4.08653 2.34746,-1.12382 4.52876,-1.78266 4.84733,-1.46408 0.31858,0.31858 -1.60206,1.52897 -4.2681,2.68976 -2.66603,1.16079 -6.04176,2.76699 -7.50162,3.56934 -1.45986,0.80234 -3.48486,1.43088 -4.5,1.39677 -1.01514,-0.0341 0.17929,-0.98149 2.65429,-2.10526 z m 19,-7.85342 c 2.475,-1.19495 6.87552,-3.31611 9.77893,-4.7137 2.90341,-1.39759 5.52945,-2.29054 5.83564,-1.98435 0.66804,0.66804 -2.21015,2.32247 -9.61457,5.52663 -7.16695,3.1014 -11.91905,4.02918 -6,1.17142 z m -152.5,-9.02464 c -6.69706,-2.50667 -2.0095,-2.50339 5.5,0.004 4.4813,1.4962 4.94435,1.83922 2.5,1.85198 -1.65,0.009 -5.25,-0.82652 -8,-1.85583 z m 172.02749,0.68005 C 735.81156,278.05375 740,276.61213 740,277.40693 740,278.17307 734.3566,281 732.82715,281 c -0.69969,0 -0.38453,-0.61439 0.70034,-1.3653 z M 549,275.87493 c -1.375,-0.54907 -7.45,-2.18094 -13.5,-3.62638 -6.05,-1.44543 -10.28614,-2.78649 -9.41365,-2.98011 0.87249,-0.19363 3.34749,0.0843 5.5,0.61765 11.96009,2.96342 22.57592,5.94284 23.12263,6.48956 0.95878,0.95878 -2.90201,0.62016 -5.70898,-0.50072 z M 514.5,267 c -6.65545,-2.45585 -3.60021,-2.48568 4,-0.039 3.38427,1.08945 4.91011,1.92115 3.5,1.90777 -1.375,-0.0131 -4.75,-0.85397 -7.5,-1.86872 z m 148.57416,0.75 c 0.0408,-0.6875 0.90742,-3.05 1.92584,-5.25 2.2211,-4.79803 2.64535,-2.28879 0.48658,2.87788 -1.53008,3.662 -2.54835,4.66326 -2.41242,2.37212 z M 652.75,265.24177 c -3.0465,-1.88884 -3.2975,-2.94602 -1.58948,-6.69472 1.43533,-3.15021 2.82158,-3.33984 2.17164,-0.29705 -0.44561,2.08619 -0.37617,2.12259 0.95386,0.5 3.06935,-3.7445 7.90462,-0.75381 5.55535,3.43608 l -1.29741,2.31392 -0.34153,-2.25 C 657.87639,260.10204 655,258.95112 655,260.96862 c 0,0.53273 -0.72064,0.69207 -1.60142,0.35409 -1.16255,-0.44612 -1.50512,-0.11766 -1.25,1.19852 0.19328,0.99717 0.97656,2.02121 1.74062,2.27564 0.84314,0.28076 1.11474,0.0185 0.69098,-0.66714 C 654.19616,263.50838 654.33197,263 654.88197,263 c 1.59128,0 2.25689,1.77822 0.87426,2.33564 -0.73379,0.29584 -0.50111,0.5393 0.55951,0.58541 2.96581,0.12895 5.67615,-1.83653 5.80026,-4.20623 0.0945,-1.80352 0.20359,-1.87602 0.58765,-0.39042 0.60758,2.35016 -2.40674,5.68331 -5.10864,5.64899 -1.15225,-0.0146 -3.33251,-0.79386 -4.84501,-1.73162 z M 498.5,262.95404 c -2.75,-1.07383 -5.9,-2.00498 -7,-2.06923 -1.75132,-0.10229 -1.77638,-0.17484 -0.20149,-0.58348 1.75958,-0.45656 15.70149,3.29714 15.70149,4.22745 0,0.98721 -3.68948,0.30368 -8.5,-1.57474 z m -15.5,-3.8578 c -0.825,-0.46361 -6.7875,-2.05936 -13.25,-3.5461 -6.4625,-1.48674 -11.75,-2.94483 -11.75,-3.2402 0,-0.77504 9.31104,0.72364 10.5,1.69006 0.55,0.44706 3.06781,1.12058 5.59513,1.49673 6.18167,0.92004 16.23475,4.34983 12.90487,4.40273 -1.375,0.0219 -3.175,-0.3396 -4,-0.80322 z M 667.07527,257 c -0.0363,-0.825 1.08761,-4.2 2.49759,-7.5 1.57755,-3.69219 2.37212,-4.84609 2.06577,-3 -0.61272,3.69231 -4.47216,12.57262 -4.56336,10.5 z M 334,251 c 0,-0.55 0.92656,-1 2.05902,-1 1.13246,0 1.7809,0.45 1.44098,1 -0.33992,0.55 -1.26648,1 -2.05902,1 C 334.64844,252 334,251.55 334,251 Z m 113.66535,-0.5074 c -5.85,-1.60759 -7.01383,-2.51958 -3.08202,-2.4151 3.7818,0.1005 13.96666,3.7725 10.41667,3.75558 -1.375,-0.007 -4.67559,-0.60977 -7.33465,-1.34048 z m -86.12758,-0.43149 c -0.28946,-0.46835 0.13172,-1.10404 0.93595,-1.41265 0.80423,-0.30861 1.69906,-0.17792 1.98851,0.29043 0.28946,0.46835 -0.13172,1.10404 -0.93595,1.41265 -0.80423,0.30861 -1.69906,0.17792 -1.98851,-0.29043 z m 11.41271,-3.23834 c 1.11562,-1.19747 2.27958,-1.92604 2.58658,-1.61904 0.68399,0.68399 -2.30627,3.79627 -3.64744,3.79627 -0.53214,0 -0.0547,-0.97975 1.06086,-2.17723 z M 390.5,248.03705 c 1.83597,-0.75493 1.85648,-0.88096 0.25,-1.5367 -0.9625,-0.39288 -1.75,-1.34118 -1.75,-2.10734 0,-0.76615 -1.0125,-1.42854 -2.25,-1.47196 -1.2375,-0.0434 -1.6847,-0.30685 -0.99377,-0.58541 0.69093,-0.27855 1.02109,-0.88693 0.73369,-1.35195 -0.2874,-0.46502 -0.0349,-1.14686 0.56108,-1.51521 0.60775,-0.37561 1.32485,0.25277 1.63294,1.4309 0.30213,1.15534 0.9734,2.10062 1.49171,2.10062 0.51831,0 0.6623,0.45318 0.31998,1.00706 -0.34231,0.55389 0.0811,1.27703 0.94099,1.60699 2.3959,0.91939 1.88305,3.39594 -0.68662,3.31566 -2.13909,-0.0668 -2.15142,-0.11082 -0.25,-0.89266 z m -50.38572,-0.96642 c -0.85973,-0.53135 -0.96201,-1.0467 -0.29014,-1.46194 0.57071,-0.35272 1.33882,-0.15403 1.7069,0.44153 0.91846,1.4861 0.188,2.0122 -1.41676,1.02041 z m 26.96467,-0.65396 c 0.048,-1.16495 0.28494,-1.4019 0.60416,-0.60417 0.28887,0.72187 0.25335,1.58437 -0.0789,1.91667 -0.33229,0.33229 -0.56864,-0.25834 -0.52522,-1.3125 z M 298,246.03138 c 0,-0.53273 0.675,-0.70959 1.5,-0.39301 0.825,0.31659 1.5,0.75246 1.5,0.96862 0,0.21615 -0.675,0.39301 -1.5,0.39301 -0.825,0 -1.5,-0.43588 -1.5,-0.96862 z M 343,245.5 c 0,-0.92825 0.94096,-1.5 2.46862,-1.5 1.78348,0 2.30886,-0.41631 1.89301,-1.5 -0.67828,-1.76757 1.5437,-1.96113 6.42902,-0.56004 l 3.27745,0.93996 -0.64586,-3.68996 c -0.56477,-3.22671 -0.47489,-3.47589 0.71595,-1.98482 0.96396,1.207 3.26076,1.81183 7.86181,2.07032 4.68467,0.26319 6.41876,0.7289 6.20911,1.66754 -0.17832,0.79833 0.29305,1.07828 1.21797,0.72336 0.82988,-0.31846 1.7457,-0.19582 2.03515,0.27253 0.28946,0.46835 -0.18294,1.12369 -1.04976,1.45633 C 370.79341,244.40024 369,244.07987 369,242.60699 369,240.86212 366.82343,240 362.41821,240 c -3.97237,0 -4.34106,1.38877 -1.2439,4.68555 2.44005,2.59731 1.36674,2.99535 -2.56982,0.95304 -1.44326,-0.74877 -3.8572,-1.16859 -5.3643,-0.93292 -1.50711,0.23567 -3.52769,0.42627 -4.49019,0.42356 -0.9625,-0.003 -1.75,0.4171 -1.75,0.93292 0,0.51582 -0.9,0.93785 -2,0.93785 -1.11111,0 -2,-0.66667 -2,-1.5 z m -69.79333,-1.54068 C 271.90223,241.87059 272.33281,240 274.11803,240 c 0.55,0 0.67463,0.52647 0.27694,1.16994 -0.49057,0.79376 -0.1713,0.95821 0.99292,0.51145 1.01928,-0.39113 1.46793,-0.25712 1.10503,0.33006 -0.33602,0.5437 -0.0793,0.98855 0.57051,0.98855 0.88042,0 0.86426,0.3822 -0.0634,1.5 -1.64665,1.98409 -2.27227,1.89492 -3.79333,-0.54068 z m 7.54705,1.15377 c -1.62553,-0.59263 -1.61439,-0.71901 0.16108,-1.82781 1.5279,-0.95419 2.01581,-0.90849 2.4526,0.22976 0.68581,1.78719 -0.35289,2.42227 -2.61368,1.59805 z m 6.50146,-1.07609 c -1.02539,-1.64191 -0.98295,-1.86977 0.25945,-1.39301 0.81695,0.31349 1.48537,1.19684 1.48537,1.963 0,1.85504 -0.28941,1.7605 -1.74482,-0.56999 z M 385.5,245 c -0.33992,-0.55 -0.14148,-1 0.44098,-1 0.58246,0 1.05902,0.45 1.05902,1 0,0.55 -0.19844,1 -0.44098,1 -0.24254,0 -0.7191,-0.45 -1.05902,-1 z m 9.25,-0.66228 c 0.6875,-0.27741 1.8125,-0.27741 2.5,0 0.6875,0.27741 0.125,0.50439 -1.25,0.50439 -1.375,0 -1.9375,-0.22698 -1.25,-0.50439 z M 343,241.08333 c 0,-1.6231 0.60751,-2.0678 2.75,-2.01304 2.17281,0.0555 2.36717,0.22114 0.926,0.78904 -1.0032,0.39532 -1.75695,1.13994 -1.675,1.65471 0.082,0.51478 -0.33475,1.09721 -0.926,1.29429 -0.59125,0.19709 -1.075,-0.57916 -1.075,-1.725 z m 329.04192,0.77587 c -0.0231,-0.90243 0.8482,-3.60243 1.93612,-6 1.60121,-3.52876 1.97423,-3.88294 1.95808,-1.8592 -0.0222,2.78632 -3.82761,10.46624 -3.8942,7.8592 z m -393.83135,-1.39724 c -1.06534,-1.2079 -1.0219,-1.46196 0.25,-1.46196 0.84669,0 1.53943,0.675 1.53943,1.5 0,1.82367 -0.15025,1.82047 -1.78943,-0.038 z m 115.05846,0.84505 c 0.97297,-0.25354 2.32297,-0.23687 3,0.0371 0.67703,0.27393 -0.11903,0.48137 -1.76903,0.46099 -1.65,-0.0204 -2.20394,-0.2445 -1.23097,-0.49804 z m -19.00346,-3.69652 c -1.03377,-1.31423 -2.75393,-2.61203 -3.82258,-2.884 -1.63647,-0.41648 -1.66691,-0.51279 -0.19299,-0.61049 0.9625,-0.0638 1.75,-0.791 1.75,-1.616 0,-1.72861 0.87357,-1.8742 3,-0.5 1.2819,0.82843 1.24555,0.9716 -0.25,0.98469 -2.43966,0.0213 -2.19226,1.66639 0.35062,2.33137 1.15668,0.30248 1.8042,1.02893 1.44098,1.61663 -0.394,0.63751 0.27021,1.07348 1.64938,1.08262 1.85764,0.0123 2.01579,0.20481 0.80902,0.98469 -2.17133,1.40322 -2.64762,1.26343 -4.73443,-1.38951 z m 16.74451,1.49712 c -1.69474,-0.4717 -2.09394,-0.93775 -1.25,-1.45933 0.68196,-0.42147 1.23992,-0.45966 1.23992,-0.0848 0,0.3748 0.675,0.12126 1.5,-0.56343 1.2532,-1.04007 1.5,-0.89568 1.5,0.87756 0,1.16734 -0.1125,2.07758 -0.25,2.02276 -0.1375,-0.0548 -1.37046,-0.41154 -2.73992,-0.79271 z M 351,238 c -0.79314,-0.49019 -1.21708,-1.11625 -0.94208,-1.39125 0.275,-0.275 1.14894,-0.0989 1.94208,0.39125 0.79314,0.49019 1.21708,1.11625 0.94208,1.39125 -0.275,0.275 -1.14894,0.0989 -1.94208,-0.39125 z m -81,-1 c 0,-0.55 0.45,-1 1,-1 0.55,0 1,0.45 1,1 0,0.55 -0.45,1 -1,1 -0.55,0 -1,-0.45 -1,-1 z m 91.44113,-0.4682 c -1.89257,-1.43146 -1.88484,-1.46899 0.30887,-1.5 1.34747,-0.019 2.25,0.56989 2.25,1.4682 0,1.85321 -0.14832,1.85505 -2.55887,0.0318 z m 4.12363,0.57298 c -0.3043,-0.49236 0.11914,-1.15324 0.94098,-1.46861 0.90766,-0.3483 1.49426,0.003 1.49426,0.89521 0,1.61739 -1.56262,1.98533 -2.43524,0.5734 z M 381,236.06739 c 0,-0.51294 -0.93106,-1.22812 -2.06902,-1.58929 -1.97978,-0.62836 -1.99056,-0.71615 -0.25,-2.03559 2.56302,-1.94289 2.80568,-1.81351 2.9255,1.55977 0.0586,1.64875 -0.0539,2.99772 -0.25,2.99772 C 381.16042,237 381,236.58032 381,236.06739 Z M 346,234.5 c 0,-0.825 0.17686,-1.5 0.39301,-1.5 0.21616,0 0.65203,0.675 0.96862,1.5 0.31658,0.825 0.13972,1.5 -0.39301,1.5 C 346.43588,236 346,235.325 346,234.5 Z m 41.8125,0.81689 c 0.72187,-0.28887 1.58438,-0.25335 1.91667,0.0789 0.33229,0.33229 -0.25834,0.56864 -1.3125,0.52522 -1.16495,-0.048 -1.4019,-0.28494 -0.60417,-0.60416 z m -149.78354,-1.27783 c -0.80907,-0.51167 -1.16598,-1.23537 -0.79313,-1.60823 0.9151,-0.91509 3.76417,0.24885 3.76417,1.53779 0,1.2701 -1.03529,1.29465 -2.97104,0.0704 z m 111.78354,0.27783 c 0.72187,-0.28887 1.58438,-0.25335 1.91667,0.0789 0.33229,0.33229 -0.25834,0.56864 -1.3125,0.52522 -1.16495,-0.048 -1.4019,-0.28494 -0.60417,-0.60416 z m 4.73726,-1.04781 c -0.36532,-0.95201 -0.18566,-1.89045 0.39924,-2.08541 0.5849,-0.19497 0.83504,-0.72409 0.55585,-1.17582 -0.27919,-0.45173 0.40002,-0.58398 1.50935,-0.29388 1.10933,0.29009 2.30532,0.99401 2.65776,1.56426 0.40515,0.65555 -0.18855,0.81994 -1.6145,0.44705 -1.86176,-0.48686 -2.16712,-0.25261 -1.74999,1.34247 0.62743,2.39931 -0.84936,2.56846 -1.75771,0.20133 z m 9.015,0.8357 c -0.6945,-1.12373 2.26105,-2.33047 3.63224,-1.48302 0.63768,0.3941 0.51088,0.94864 -0.34024,1.48793 -1.74738,1.1072 -2.60547,1.10592 -3.292,-0.005 z m 21.96625,-1.05461 c -0.32287,-0.5224 0.35964,-1.45646 1.51668,-2.07569 1.93056,-1.0332 2.01227,-0.95503 0.99282,0.94983 -1.24129,2.31936 -1.6567,2.50573 -2.5095,1.12586 z m 4.28149,0.26672 c 0.72187,-0.28887 1.58438,-0.25335 1.91667,0.0789 0.33229,0.33229 -0.25834,0.56864 -1.3125,0.52522 -1.16495,-0.048 -1.4019,-0.28494 -0.60417,-0.60416 z m -147.73355,-2.90022 c 0.048,-1.16495 0.28494,-1.4019 0.60416,-0.60417 0.28887,0.72187 0.25335,1.58437 -0.0789,1.91667 -0.3323,0.33229 -0.56864,-0.25834 -0.52522,-1.3125 z m -7.42266,-1.623 c -0.66176,-2.53059 -0.25192,-3.27982 1.27718,-2.33479 1.28337,0.79317 1.43455,4.54112 0.18316,4.54112 -0.48585,0 -1.143,-0.99285 -1.46034,-2.20633 z M 344,229.55902 C 344,228.70156 344.45,228 345,228 c 0.55,0 1,0.42344 1,0.94098 0,0.51754 -0.45,1.2191 -1,1.55902 -0.55,0.33992 -1,-0.0835 -1,-0.94098 z m 23.67944,-0.67686 c -0.29311,-1.12083 0.28783,-1.90687 1.68673,-2.28225 3.14919,-0.84506 3.35467,-0.77544 3.90334,1.32268 0.31168,1.19188 1.59121,2.07154 3.36663,2.3145 1.57512,0.21555 0.30483,0.38354 -2.82288,0.37332 -4.51395,-0.0148 -5.77894,-0.37118 -6.13382,-1.72825 z m 12.77843,0.0497 c -0.3631,-0.5875 -1.27524,-0.83215 -2.027,-0.54368 -1.88566,0.7236 -3.00869,-1.40807 -1.30899,-2.48464 1.08172,-0.68515 1.09658,-0.87618 0.0691,-0.8882 -0.71996,-0.008 -1.05092,-0.43291 -0.73548,-0.94331 0.31545,-0.51041 -0.44549,-1.21369 -1.69098,-1.56285 -1.24549,-0.34917 -3.27634,-1.13225 -4.51301,-1.74017 -2.89879,-1.425 -3.55216,-0.68995 -2.30424,2.59233 1.10323,2.9017 -0.25756,3.69753 -1.51957,0.88869 -1.29066,-2.87262 -1.24507,-5.38285 0.10719,-5.90176 0.69835,-0.26798 3.31399,0.44404 5.81255,1.58226 2.49856,1.13823 4.94838,2.0695 5.44406,2.0695 2.29536,0 7.20041,3.31833 7.12955,4.82324 -0.049,1.04011 -0.27046,1.20214 -0.58333,0.42676 -0.27741,-0.6875 -1.35276,-1.25 -2.38967,-1.25 -2.58503,0 -1.42883,2.75632 1.3865,3.30535 l 2.16545,0.42229 -2.19098,0.13618 c -1.20504,0.0749 -2.48806,-0.3445 -2.85115,-0.93199 z m -32.99585,-0.87037 c 0.31902,-0.5162 -0.1676,-1.35694 -1.08139,-1.86832 -2.32522,-1.30127 -0.80072,-3.22037 2.42839,-3.05696 2.35689,0.11928 2.41164,0.18999 0.44098,0.56955 -2.54047,0.48932 -3.08408,2.29427 -0.69098,2.29427 0.85746,0 1.30465,0.41157 0.99377,0.91459 -0.31089,0.50302 5e-5,1.1425 0.69098,1.42105 0.69093,0.27856 0.21717,0.54199 -1.05279,0.58541 -1.26996,0.0434 -2.04799,-0.34339 -1.72896,-0.85959 z M 355.41067,223.5 c -0.57423,-2.475 -0.67654,-4.5 -0.22736,-4.5 0.44918,0 0.81669,0.675 0.81669,1.5 0,0.825 0.47656,1.5 1.05902,1.5 0.58246,0 0.7809,0.45 0.44098,1 -0.33992,0.55 0.057,1 0.88197,1 0.825,0 1.76596,-0.43035 2.09104,-0.95633 0.68713,-1.1118 3.52699,-0.25564 3.52699,1.06332 0,0.49115 -1.17314,0.89301 -2.60699,0.89301 -1.90648,0 -2.45232,0.40306 -2.03138,1.5 0.37583,0.97941 -0.0287,1.5 -1.16565,1.5 -1.24237,0 -2.04039,-1.28929 -2.78531,-4.5 z m 7.1271,3.56111 c -0.28946,-0.46835 0.13172,-1.10404 0.93595,-1.41265 0.80423,-0.30861 1.69906,-0.17792 1.98851,0.29043 0.28946,0.46835 -0.13172,1.10404 -0.93595,1.41265 -0.80423,0.30861 -1.69906,0.17792 -1.98851,-0.29043 z m 8.27473,-3.74422 c 0.72187,-0.28887 1.58438,-0.25335 1.91667,0.0789 0.33229,0.33229 -0.25834,0.56864 -1.3125,0.52522 -1.16495,-0.048 -1.4019,-0.28494 -0.60417,-0.60416 z M 221.33621,209 c 0,-4.125 0.17651,-5.8125 0.39226,-3.75 0.21574,2.0625 0.21574,5.4375 0,7.5 -0.21575,2.0625 -0.39226,0.375 -0.39226,-3.75 z M 425,210.41611 c -3.84259,-2.13309 -9.08895,-2.89022 -9.98466,-1.44093 C 414.0208,210.58437 410,209.34769 410,207.43261 410,206.64468 410.5051,206 411.12244,206 c 0.7618,0 0.71116,-0.49557 -0.15761,-1.54238 -2.43608,-2.93529 0.1979,-3.90432 9.82901,-3.61606 4.36317,0.13059 5.24218,0.45441 5,1.84199 -0.18761,1.07488 0.61001,1.94269 2.20616,2.40032 3.7832,1.08467 8,1.04047 8,-0.0839 0,-0.55 -0.69735,-1 -1.54966,-1 -2.76829,0 -7.45066,-3.0064 -7.43796,-4.77568 0.007,-0.94838 1.69431,-2.83822 3.75,-4.19966 3.23673,-2.14362 4.88629,-2.47865 12.30905,-2.5 9.58722,-0.0276 12.64094,1.50089 11.56482,5.7885 -0.62874,2.50511 -8.16216,6.68684 -12.04637,6.68684 -1.49174,0 -2.5429,0.71235 -2.86421,1.94102 -0.55154,2.1091 -6.67715,5.11855 -10.09779,4.96093 -1.17034,-0.0539 -3.25288,-0.72255 -4.62788,-1.48584 z m 22.41655,-11.05924 c 0.7145,-1.86194 0.81713,-1.70457 -2.10081,-3.22142 -2.95056,-1.5338 -6.53073,-1.42995 -8.83686,0.25634 -1.61719,1.18252 -1.7027,1.6336 -0.56869,3 1.87781,2.26261 10.63491,2.23604 11.50636,-0.0349 z M 460,195.34793 c -2.17401,-0.71623 -4.79263,-1.81806 -11,-4.62848 -3.025,-1.36959 -6.7375,-2.77532 -8.25,-3.12385 -3.72747,-0.85895 -3.46096,-2.30529 0.63307,-3.4357 3.6368,-1.00417 9.76579,-0.23696 13.30119,1.66501 3.13873,1.68857 3.31574,1.55967 3.31574,-2.41462 0,-2.49984 0.68312,-4.15959 2.25,-5.46673 3.38464,-2.82358 4.75,-2.4072 4.75,1.44857 v 3.39213 l 10.25,0.75306 c 5.6375,0.41418 9.575,0.97871 8.75,1.2545 -0.825,0.2758 -1.85986,1.11046 -2.29969,1.85481 -0.56565,0.95728 -3.12649,1.35337 -8.75,1.35337 -4.37267,0 -7.95031,0.26537 -7.95031,0.58971 0,0.32434 0.98991,1.39129 2.1998,2.371 l 2.1998,1.78129 -3.15014,1.629 c -3.29602,1.70444 -3.8014,1.78344 -6.24946,0.97693 z m 19.75,-13.42803 c -0.9625,-0.5606 -1.75,-2.12192 -1.75,-3.46959 0,-2.79234 -1.56644,-3.15265 -4.02664,-0.9262 -2.09954,1.90006 -4.97336,0.91626 -4.97336,-1.70253 0,-1.97449 2.14759,-4.80237 3.67857,-4.84382 0.45179,-0.0122 1.94643,-0.90222 3.32143,-1.97776 1.375,-1.07554 3.25,-1.96553 4.16667,-1.97776 0.91666,-0.0122 1.81666,-0.46606 2,-1.0085 0.18333,-0.54245 2.36682,-1.26436 4.8522,-1.60425 3.74953,-0.51277 5.56327,-0.11207 10.65333,2.3536 3.37396,1.63436 7.35348,3.27752 8.84338,3.65146 2.60796,0.65456 2.64371,0.75195 0.95938,2.61312 -0.96224,1.06327 -3.37526,2.22261 -5.36225,2.57632 -1.98699,0.35371 -4.51271,1.44218 -5.61271,2.41883 -2.14146,1.90132 -10.45501,4.99695 -13.28495,4.94677 -0.94328,-0.0167 -2.50255,-0.48908 -3.46505,-1.04969 z m 13.00621,-7.6699 c 0.59625,-1.81583 -3.26411,-1.54787 -4.82679,0.33505 -1.15523,1.39196 -0.96636,1.54423 1.55043,1.25 1.57625,-0.18428 3.05062,-0.89755 3.27636,-1.58505 z m -9.91058,-1.10742 c 1.4599,-1.02157 3.32937,-2.11105 4.15437,-2.42105 0.85174,-0.32005 0.28312,-0.59775 -1.31574,-0.64258 -3.52619,-0.0989 -6.68426,1.53408 -6.68426,3.45623 0,1.91387 0.64341,1.84818 3.84563,-0.3926 z"
         id="path10" />
    </g>
  </g>
</svg>
