<?xml version="1.0" standalone="no"?>
<!DOCTYPE svg PUBLIC "-//W3C//DTD SVG 20010904//EN"
 "http://www.w3.org/TR/2001/REC-SVG-20010904/DTD/svg10.dtd">
<svg version="1.0" xmlns="http://www.w3.org/2000/svg"
 width="500.000000pt" height="500.000000pt" viewBox="0 0 500.000000 500.000000"
 preserveAspectRatio="xMidYMid meet">
<metadata>
Created by potrace 1.11, written by Peter Selinger 2001-2013
</metadata>
<g transform="translate(0.000000,500.000000) scale(0.100000,-0.100000)"
fill="#000000" stroke="none">
<path d="M10 2958 c0 -47 90 -109 220 -153 87 -29 235 -68 265 -70 6 0 11 -10
13 -22 5 -31 46 -69 109 -99 62 -29 245 -90 315 -105 38 -8 60 -23 106 -67 94
-93 308 -188 498 -221 33 -5 75 -13 94 -16 19 -3 98 -8 175 -11 136 -6 142 -7
202 -40 201 -113 488 -166 641 -120 9 3 33 8 52 11 61 10 181 54 270 99 l86
43 144 6 c139 6 259 22 352 47 23 7 50 13 58 15 8 2 47 16 85 31 146 58 275
140 297 189 8 17 22 25 56 30 59 9 273 80 337 112 60 29 90 56 105 92 9 24 20
29 78 41 112 22 283 80 337 114 56 37 69 51 80 84 7 24 7 24 -62 18 -37 -3
-108 -8 -158 -11 -49 -4 -110 -8 -135 -10 -25 -2 -90 -7 -145 -10 -55 -3 -127
-8 -160 -10 -163 -12 -217 -15 -295 -20 -47 -3 -112 -7 -145 -10 -33 -2 -105
-7 -160 -10 -306 -17 -447 -28 -509 -41 -12 -2 -37 -7 -56 -10 -57 -9 -182
-63 -223 -96 -31 -24 -44 -29 -70 -24 -49 9 -96 42 -114 80 l-16 35 -18 -23
c-10 -13 -42 -34 -71 -47 -43 -19 -71 -23 -148 -24 -83 0 -102 3 -152 27 -31
14 -62 35 -69 47 -13 19 -14 18 -36 -19 -23 -38 -89 -80 -126 -80 -9 0 -38 15
-64 34 -96 67 -246 107 -458 121 -49 3 -119 8 -155 10 -36 3 -114 7 -175 10
-60 4 -130 8 -155 10 -25 3 -92 7 -150 10 -58 3 -125 8 -150 10 -25 3 -90 7
-145 10 -55 3 -120 7 -145 10 -25 2 -92 7 -150 10 -125 7 -202 13 -292 21 -53
4 -68 2 -68 -8z"/>
</g>
</svg>
